<svg width="1116" height="145" viewBox="0 0 1116 145" fill="none" xmlns="http://www.w3.org/2000/svg">
<path d="M81.224 53.232V52.232H80.3351L80.2309 53.1148L81.224 53.232ZM78.776 73.968L77.7829 73.8508L77.651 74.968H78.776V73.968ZM96.776 73.968H97.776V72.968H96.776V73.968ZM96.776 92.544V93.544H97.776V92.544H96.776ZM76.472 92.544V91.544H75.5914L75.48 92.4175L76.472 92.544ZM73.736 114V115H74.6166L74.728 114.126L73.736 114ZM54.152 114L53.16 113.874L53.0164 115H54.152V114ZM56.888 92.544L57.88 92.6705L58.0236 91.544H56.888V92.544ZM39.176 92.544V91.544H38.2954L38.184 92.4175L39.176 92.544ZM36.44 114V115H37.3206L37.432 114.126L36.44 114ZM16.856 114L15.864 113.874L15.7204 115H16.856V114ZM19.592 92.544L20.584 92.6705L20.7276 91.544H19.592V92.544ZM1.448 92.544H0.448V93.544H1.448V92.544ZM1.448 73.968V72.968H0.448V73.968H1.448ZM21.896 73.968V74.968H22.7849L22.8891 74.0852L21.896 73.968ZM24.344 53.232L25.3371 53.3492L25.469 52.232H24.344V53.232ZM6.2 53.232H5.2V54.232H6.2V53.232ZM6.2 34.656V33.656H5.2V34.656H6.2ZM26.648 34.656V35.656H27.5286L27.64 34.7825L26.648 34.656ZM29.384 13.2V12.2H28.5034L28.392 13.0735L29.384 13.2ZM48.968 13.2L49.96 13.3265L50.1036 12.2H48.968V13.2ZM46.232 34.656L45.24 34.5295L45.0964 35.656H46.232V34.656ZM63.944 34.656V35.656H64.8246L64.936 34.7825L63.944 34.656ZM66.68 13.2V12.2H65.7994L65.688 13.0735L66.68 13.2ZM86.264 13.2L87.256 13.3265L87.3996 12.2H86.264V13.2ZM83.528 34.656L82.536 34.5295L82.3924 35.656H83.528V34.656ZM101.672 34.656H102.672V33.656H101.672V34.656ZM101.672 53.232V54.232H102.672V53.232H101.672ZM61.64 53.232L62.6331 53.3492L62.765 52.232H61.64V53.232ZM43.928 53.232V52.232H43.0391L42.9349 53.1148L43.928 53.232ZM41.48 73.968L40.4869 73.8508L40.355 74.968H41.48V73.968ZM59.192 73.968V74.968H60.0809L60.1851 74.0852L59.192 73.968ZM80.2309 53.1148L77.7829 73.8508L79.7691 74.0852L82.2171 53.3492L80.2309 53.1148ZM78.776 74.968H96.776V72.968H78.776V74.968ZM95.776 73.968V92.544H97.776V73.968H95.776ZM96.776 91.544H76.472V93.544H96.776V91.544ZM75.48 92.4175L72.744 113.874L74.728 114.126L77.464 92.6705L75.48 92.4175ZM73.736 113H54.152V115H73.736V113ZM55.144 114.126L57.88 92.6705L55.896 92.4175L53.16 113.874L55.144 114.126ZM56.888 91.544H39.176V93.544H56.888V91.544ZM38.184 92.4175L35.448 113.874L37.432 114.126L40.168 92.6705L38.184 92.4175ZM36.44 113H16.856V115H36.44V113ZM17.848 114.126L20.584 92.6705L18.6 92.4175L15.864 113.874L17.848 114.126ZM19.592 91.544H1.448V93.544H19.592V91.544ZM2.448 92.544V73.968H0.448V92.544H2.448ZM1.448 74.968H21.896V72.968H1.448V74.968ZM22.8891 74.0852L25.3371 53.3492L23.3509 53.1148L20.9029 73.8508L22.8891 74.0852ZM24.344 52.232H6.2V54.232H24.344V52.232ZM7.2 53.232V34.656H5.2V53.232H7.2ZM6.2 35.656H26.648V33.656H6.2V35.656ZM27.64 34.7825L30.376 13.3265L28.392 13.0735L25.656 34.5295L27.64 34.7825ZM29.384 14.2H48.968V12.2H29.384V14.2ZM47.976 13.0735L45.24 34.5295L47.224 34.7825L49.96 13.3265L47.976 13.0735ZM46.232 35.656H63.944V33.656H46.232V35.656ZM64.936 34.7825L67.672 13.3265L65.688 13.0735L62.952 34.5295L64.936 34.7825ZM66.68 14.2H86.264V12.2H66.68V14.2ZM85.272 13.0735L82.536 34.5295L84.52 34.7825L87.256 13.3265L85.272 13.0735ZM83.528 35.656H101.672V33.656H83.528V35.656ZM100.672 34.656V53.232H102.672V34.656H100.672ZM101.672 52.232H81.224V54.232H101.672V52.232ZM61.64 52.232H43.928V54.232H61.64V52.232ZM42.9349 53.1148L40.4869 73.8508L42.4731 74.0852L44.9211 53.3492L42.9349 53.1148ZM41.48 74.968H59.192V72.968H41.48V74.968ZM60.1851 74.0852L62.6331 53.3492L60.6469 53.1148L58.1989 73.8508L60.1851 74.0852ZM192.892 35.952H193.892V34.952H192.892V35.952ZM192.892 114V115H193.892V114H192.892ZM165.532 114H164.532V115H165.532V114ZM165.532 57.696H166.532V56.696H165.532V57.696ZM145.803 57.696V56.696H144.851L144.805 57.6479L145.803 57.696ZM145.228 69.648L144.229 69.5999L144.228 69.6103L145.228 69.648ZM142.204 94.848L141.233 94.6088L142.204 94.848ZM134.139 110.4L134.837 111.116L134.847 111.107L134.139 110.4ZM105.483 114L104.485 113.948L104.441 114.788L105.261 114.975L105.483 114ZM106.635 91.68L106.746 90.6861L105.692 90.569L105.637 91.6285L106.635 91.68ZM116.86 89.088L117.64 89.7127L116.86 89.088ZM120.028 81.456L121.011 81.6349L121.012 81.6298L120.028 81.456ZM121.18 68.496L122.179 68.5317L122.179 68.5314L121.18 68.496ZM122.331 35.952V34.952H121.366L121.332 35.9166L122.331 35.952ZM191.892 35.952V114H193.892V35.952H191.892ZM192.892 113H165.532V115H192.892V113ZM166.532 114V57.696H164.532V114H166.532ZM165.532 56.696H145.803V58.696H165.532V56.696ZM144.805 57.6479L144.229 69.5999L146.226 69.6961L146.802 57.7441L144.805 57.6479ZM144.228 69.6103C143.846 79.7481 142.842 88.0745 141.233 94.6088L143.174 95.0872C144.829 88.3735 145.841 79.8999 146.227 69.6857L144.228 69.6103ZM141.233 94.6088C139.632 101.106 137.015 106.11 133.432 109.693L134.847 111.107C138.752 107.202 141.511 101.838 143.174 95.0872L141.233 94.6088ZM133.442 109.684C129.928 113.107 125.067 114.872 118.731 114.872V116.872C125.452 116.872 130.863 114.989 134.837 111.116L133.442 109.684ZM118.731 114.872C115.479 114.872 111.147 114.266 105.706 113.025L105.261 114.975C110.764 116.23 115.264 116.872 118.731 116.872V114.872ZM106.482 114.052L107.634 91.7315L105.637 91.6285L104.485 113.948L106.482 114.052ZM106.525 92.6739C108.244 92.8648 109.451 92.968 110.091 92.968V90.968C109.58 90.968 108.483 90.8792 106.746 90.6861L106.525 92.6739ZM110.091 92.968C113.3 92.968 115.874 91.9202 117.64 89.7127L116.079 88.4633C114.773 90.0958 112.835 90.968 110.091 90.968V92.968ZM117.64 89.7127C119.307 87.6293 120.415 84.9172 121.011 81.6349L119.044 81.2771C118.488 84.3308 117.484 86.7067 116.079 88.4633L117.64 89.7127ZM121.012 81.6298C121.6 78.301 121.986 73.9293 122.179 68.5317L120.18 68.4603C119.989 73.8147 119.607 78.083 119.043 81.2822L121.012 81.6298ZM122.179 68.5314L123.331 35.9874L121.332 35.9166L120.18 68.4606L122.179 68.5314ZM122.331 36.952H192.892V34.952H122.331V36.952ZM289.902 81.888V82.888H290.838L290.9 81.9545L289.902 81.888ZM233.167 81.888V80.888H231.841L232.205 82.1627L233.167 81.888ZM239.79 91.248L239.23 92.0763L239.244 92.0857L239.258 92.0946L239.79 91.248ZM261.966 92.832L261.612 91.8969L261.601 91.9012L261.966 92.832ZM270.319 87.648L271.039 86.9549L270.383 86.2722L269.666 86.8906L270.319 87.648ZM284.719 102.624L285.463 103.292L286.083 102.601L285.439 101.931L284.719 102.624ZM227.407 110.112L227.854 109.218L227.407 110.112ZM211.279 95.712L210.424 96.2324L210.43 96.242L211.279 95.712ZM211.135 54.24L210.281 53.7196L210.278 53.7235L211.135 54.24ZM226.542 39.84L226.075 38.9562V38.9562L226.542 39.84ZM269.742 39.552L269.285 40.441L269.295 40.4464L269.742 39.552ZM284.719 53.52L283.859 54.0305L283.863 54.0385L283.868 54.0464L284.719 53.52ZM238.062 57.696L237.422 56.9278L237.416 56.9331L237.41 56.9386L238.062 57.696ZM232.734 67.488L231.751 67.3051L231.531 68.488H232.734V67.488ZM264.703 67.488V68.488H265.906L265.686 67.3051L264.703 67.488ZM259.23 57.696L258.578 58.4534L258.584 58.4589L258.59 58.4642L259.23 57.696ZM289.335 75.12C289.335 75.1132 289.334 75.1414 289.329 75.238C289.325 75.3226 289.318 75.4403 289.309 75.5923C289.291 75.8958 289.264 76.3288 289.229 76.8923C289.157 78.0189 289.049 79.6617 288.905 81.8215L290.9 81.9545C291.186 77.6715 291.335 75.3562 291.335 75.12H289.335ZM289.902 80.888H233.167V82.888H289.902V80.888ZM232.205 82.1627C233.417 86.405 235.758 89.7278 239.23 92.0763L240.351 90.4197C237.295 88.3522 235.22 85.435 234.128 81.6133L232.205 82.1627ZM239.258 92.0946C242.814 94.3297 247.186 95.416 252.318 95.416V93.416C247.467 93.416 243.487 92.3903 240.323 90.4014L239.258 92.0946ZM252.318 95.416C256.152 95.416 259.499 94.8759 262.332 93.7627L261.601 91.9012C259.058 92.9001 255.973 93.416 252.318 93.416V95.416ZM262.321 93.767C265.236 92.6612 268.119 90.8643 270.971 88.4054L269.666 86.8906C266.95 89.2317 264.265 90.8908 261.612 91.897L262.321 93.767ZM269.598 88.3411L283.998 103.317L285.439 101.931L271.039 86.9549L269.598 88.3411ZM283.974 101.956C276.631 110.136 265.849 114.296 251.454 114.296V116.296C266.244 116.296 277.638 112.008 285.463 103.292L283.974 101.956ZM251.454 114.296C242.462 114.296 234.604 112.593 227.854 109.218L226.959 111.006C234.033 114.543 242.207 116.296 251.454 116.296V114.296ZM227.854 109.218C221.095 105.838 215.862 101.159 212.126 95.182L210.43 96.242C214.375 102.553 219.894 107.474 226.959 111.006L227.854 109.218ZM212.132 95.1916C208.492 89.217 206.663 82.4398 206.663 74.832H204.663C204.663 82.7762 206.577 89.919 210.425 96.2324L212.132 95.1916ZM206.663 74.832C206.663 67.3176 208.445 60.6351 211.991 54.7565L210.278 53.7235C206.528 59.9409 204.663 66.9864 204.663 74.832H206.663ZM211.988 54.7604C215.636 48.7743 220.637 44.0979 227.01 40.7238L226.075 38.9562C219.392 42.4941 214.121 47.4177 210.281 53.7196L211.988 54.7604ZM227.01 40.7238C233.38 37.3518 240.56 35.656 248.575 35.656V33.656C240.269 33.656 232.761 35.4161 226.075 38.9562L227.01 40.7238ZM248.575 35.656C256.206 35.656 263.103 37.2564 269.285 40.441L270.2 38.663C263.71 35.3196 256.495 33.656 248.575 33.656V35.656ZM269.295 40.4464C275.458 43.5279 280.308 48.0499 283.859 54.0305L285.578 53.0095C281.833 46.7021 276.699 41.9121 270.19 38.6576L269.295 40.4464ZM283.868 54.0464C287.498 59.9105 289.335 66.9211 289.335 75.12H291.335C291.335 66.6149 289.427 59.2255 285.569 52.9936L283.868 54.0464ZM248.719 53.096C244.292 53.096 240.505 54.359 237.422 56.9278L238.703 58.4642C241.38 56.233 244.697 55.096 248.719 55.096V53.096ZM237.41 56.9386C234.429 59.5078 232.555 62.9871 231.751 67.3051L233.718 67.6709C234.45 63.7329 236.128 60.6842 238.715 58.4534L237.41 56.9386ZM232.734 68.488H264.703V66.488H232.734V68.488ZM265.686 67.3051C264.88 62.9772 262.951 59.4949 259.871 56.9278L258.59 58.4642C261.27 60.697 262.989 63.7428 263.719 67.6709L265.686 67.3051ZM259.883 56.9386C256.891 54.359 253.144 53.096 248.719 53.096V55.096C252.741 55.096 256.002 56.233 258.578 58.4534L259.883 56.9386ZM379.53 35.952H380.53V34.952H379.53V35.952ZM379.53 114V115H380.53V114H379.53ZM352.314 114H351.314V115H352.314V114ZM352.314 86.208H353.314V84.5658L351.855 85.3196L352.314 86.208ZM307.818 83.328L308.485 82.5828L307.818 83.328ZM299.61 35.952V34.952H298.61V35.952H299.61ZM326.97 35.952H327.97V34.952H326.97V35.952ZM329.85 67.632L329.143 68.3391L329.161 68.3568L329.179 68.3735L329.85 67.632ZM352.314 67.2L352.778 68.0858L353.314 67.8051V67.2H352.314ZM352.314 35.952V34.952H351.314V35.952H352.314ZM378.53 35.952V114H380.53V35.952H378.53ZM379.53 113H352.314V115H379.53V113ZM353.314 114V86.208H351.314V114H353.314ZM351.855 85.3196C346.258 88.2116 339.795 89.672 332.442 89.672V91.672C340.065 91.672 346.851 90.1563 352.773 87.0964L351.855 85.3196ZM332.442 89.672C321.627 89.672 313.702 87.2503 308.485 82.5828L307.151 84.0732C312.879 89.1977 321.37 91.672 332.442 91.672V89.672ZM308.485 82.5828C303.304 77.9475 300.61 70.547 300.61 60.144H298.61C298.61 70.861 301.388 78.9165 307.151 84.0732L308.485 82.5828ZM300.61 60.144V35.952H298.61V60.144H300.61ZM299.61 36.952H326.97V34.952H299.61V36.952ZM325.97 35.952V58.272H327.97V35.952H325.97ZM325.97 58.272C325.97 62.706 326.95 66.1465 329.143 68.3391L330.557 66.9249C328.91 65.2775 327.97 62.478 327.97 58.272H325.97ZM329.179 68.3735C331.447 70.4251 334.704 71.368 338.778 71.368V69.368C334.98 69.368 332.285 68.4869 330.521 66.8905L329.179 68.3735ZM338.778 71.368C343.916 71.368 348.589 70.2799 352.778 68.0858L351.85 66.3142C347.975 68.3441 343.624 69.368 338.778 69.368V71.368ZM353.314 67.2V35.952H351.314V67.2H353.314ZM352.314 36.952H379.53V34.952H352.314V36.952ZM481.26 35.952L482.184 36.3352L482.758 34.952H481.26V35.952ZM447.565 117.168L446.641 116.785L446.639 116.789L447.565 117.168ZM433.164 137.328L432.603 136.5L432.594 136.507L433.164 137.328ZM399.901 141.216L400.204 140.263L400.197 140.261L400.19 140.259L399.901 141.216ZM389.82 136.176L388.925 135.731L388.57 136.447L389.189 136.951L389.82 136.176ZM399.324 117.024L400.008 116.294L399.027 115.374L398.429 116.579L399.324 117.024ZM404.797 120.336L405.161 119.405L405.15 119.4L405.138 119.396L404.797 120.336ZM417.757 120.048L417.235 119.195L417.224 119.201L417.213 119.208L417.757 120.048ZM422.077 115.008L422.971 115.455L423.177 115.043L422.998 114.619L422.077 115.008ZM388.668 35.952V34.952H387.16L387.747 36.3412L388.668 35.952ZM416.749 35.952L417.676 35.5792L417.424 34.952H416.749V35.952ZM435.901 83.616L434.973 83.9888L435.897 86.2895L436.827 83.9912L435.901 83.616ZM455.197 35.952V34.952H454.522L454.27 35.5767L455.197 35.952ZM480.337 35.5688L446.641 116.785L448.488 117.551L482.184 36.3352L480.337 35.5688ZM446.639 116.789C442.742 126.294 438.041 132.814 432.603 136.5L433.726 138.156C439.616 134.162 444.515 127.242 448.49 117.547L446.639 116.789ZM432.594 136.507C427.126 140.306 420.423 142.232 412.428 142.232V144.232C420.754 144.232 427.875 142.222 433.735 138.149L432.594 136.507ZM412.428 142.232C408.411 142.232 404.337 141.578 400.204 140.263L399.597 142.169C403.912 143.542 408.19 144.232 412.428 144.232V142.232ZM400.19 140.259C396.152 139.038 392.918 137.41 390.452 135.401L389.189 136.951C391.907 139.166 395.393 140.898 399.611 142.173L400.19 140.259ZM390.716 136.621L400.22 117.469L398.429 116.579L388.925 135.731L390.716 136.621ZM398.641 117.754C400.282 119.292 402.224 120.465 404.455 121.276L405.138 119.396C403.145 118.671 401.439 117.636 400.008 116.294L398.641 117.754ZM404.432 121.267C406.748 122.173 409.079 122.632 411.421 122.632V120.632C409.346 120.632 407.261 120.227 405.161 119.405L404.432 121.267ZM411.421 122.632C414.142 122.632 416.46 122.078 418.3 120.888L417.213 119.208C415.789 120.13 413.883 120.632 411.421 120.632V122.632ZM418.278 120.901C420.204 119.724 421.758 117.882 422.971 115.455L421.182 114.561C420.091 116.742 418.765 118.26 417.235 119.195L418.278 120.901ZM422.998 114.619L389.59 35.5627L387.747 36.3412L421.155 115.397L422.998 114.619ZM388.668 36.952H416.749V34.952H388.668V36.952ZM415.821 36.3248L434.973 83.9888L436.828 83.2432L417.676 35.5792L415.821 36.3248ZM436.827 83.9912L456.123 36.3272L454.27 35.5767L434.974 83.2407L436.827 83.9912ZM455.197 36.952H481.26V34.952H455.197V36.952ZM594.972 73.104L594.535 72.2048L592.33 73.2774L594.656 74.0527L594.972 73.104ZM600.156 108.096L600.74 108.908L600.749 108.901L600.156 108.096ZM532.044 114H531.044V115H532.044V114ZM532.044 35.952V34.952H531.044V35.952H532.044ZM597.564 41.28L597.026 42.1231L597.033 42.1272L597.564 41.28ZM556.524 67.344H555.524V68.344H556.524V67.344ZM556.524 53.52V52.52H555.524V53.52H556.524ZM556.524 81.888V80.888H555.524V81.888H556.524ZM556.524 96.288H555.524V97.288H556.524V96.288ZM594.656 74.0527C598.97 75.4907 602.124 77.6653 604.207 80.5318C606.289 83.3974 607.364 87.0426 607.364 91.536H609.364C609.364 86.7174 608.207 82.6346 605.825 79.3562C603.444 76.0787 599.902 73.6933 595.288 72.1553L594.656 74.0527ZM607.364 91.536C607.364 98.2379 604.77 103.454 599.563 107.291L600.749 108.901C606.486 104.674 609.364 98.8501 609.364 91.536H607.364ZM599.572 107.284C594.343 111.045 586.523 113 575.964 113V115C586.717 115 595.025 113.019 600.74 108.908L599.572 107.284ZM575.964 113H532.044V115H575.964V113ZM533.044 114V35.952H531.044V114H533.044ZM532.044 36.952H573.948V34.952H532.044V36.952ZM573.948 36.952C584.029 36.952 591.684 38.7149 597.026 42.1231L598.102 40.4369C592.308 36.7411 584.219 34.952 573.948 34.952V36.952ZM597.033 42.1272C602.419 45.505 605.06 50.1844 605.06 56.256H607.06C607.06 49.4636 604.037 44.159 598.095 40.4328L597.033 42.1272ZM605.06 56.256C605.06 59.8194 604.15 62.9351 602.348 65.6373L604.012 66.7467C606.051 63.6889 607.06 60.1805 607.06 56.256H605.06ZM602.348 65.6373C600.54 68.3495 597.95 70.5433 594.535 72.2048L595.41 74.0032C599.098 72.2087 601.98 69.7945 604.012 66.7467L602.348 65.6373ZM556.524 68.344H571.5V66.344H556.524V68.344ZM571.5 68.344C574.763 68.344 577.391 67.7436 579.224 66.3829C581.113 64.9808 582.004 62.8878 582.004 60.288H580.004C580.004 62.3922 579.311 63.8272 578.032 64.7771C576.697 65.7684 574.574 66.344 571.5 66.344V68.344ZM582.004 60.288C582.004 57.768 581.101 55.7451 579.208 54.3974C577.378 53.0943 574.757 52.52 571.5 52.52V54.52C574.58 54.52 576.71 55.0737 578.048 56.0266C579.324 56.9349 580.004 58.296 580.004 60.288H582.004ZM571.5 52.52H556.524V54.52H571.5V52.52ZM555.524 53.52V67.344H557.524V53.52H555.524ZM573.516 97.288C576.919 97.288 579.652 96.6769 581.555 95.2978C583.518 93.8753 584.452 91.7452 584.452 89.088H582.452C582.452 91.2308 581.73 92.7007 580.381 93.6783C578.973 94.6991 576.737 95.288 573.516 95.288V97.288ZM584.452 89.088C584.452 86.4421 583.55 84.3135 581.638 82.8866C579.781 81.5007 577.115 80.888 573.804 80.888V82.888C576.925 82.888 579.083 83.4753 580.442 84.4894C581.746 85.4625 582.452 86.9339 582.452 89.088H584.452ZM573.804 80.888H556.524V82.888H573.804V80.888ZM555.524 81.888V96.288H557.524V81.888H555.524ZM556.524 97.288H573.516V95.288H556.524V97.288ZM733.787 57.696V58.696H734.787V57.696H733.787ZM708.731 57.696V56.696H707.731V57.696H708.731ZM708.731 114V115H709.731V114H708.731ZM681.515 114H680.515V115H681.515V114ZM681.515 57.696H682.515V56.696H681.515V57.696ZM656.315 57.696H655.315V58.696H656.315V57.696ZM656.315 35.952V34.952H655.315V35.952H656.315ZM733.787 35.952H734.787V34.952H733.787V35.952ZM733.787 56.696H708.731V58.696H733.787V56.696ZM707.731 57.696V114H709.731V57.696H707.731ZM708.731 113H681.515V115H708.731V113ZM682.515 114V57.696H680.515V114H682.515ZM681.515 56.696H656.315V58.696H681.515V56.696ZM657.315 57.696V35.952H655.315V57.696H657.315ZM656.315 36.952H733.787V34.952H656.315V36.952ZM732.787 35.952V57.696H734.787V35.952H732.787ZM812.788 39.696L812.284 40.5598L812.292 40.5647L812.301 40.5695L812.788 39.696ZM826.612 53.808L825.734 54.2878L825.739 54.296L825.744 54.3041L826.612 53.808ZM826.612 96.288L825.74 95.7977L825.738 95.8024L826.612 96.288ZM812.788 110.4L813.281 111.27L813.286 111.267L812.788 110.4ZM771.748 107.088L772.461 106.387L770.748 104.643V107.088H771.748ZM771.748 141.936V142.936H772.748V141.936H771.748ZM744.388 141.936H743.388V142.936H744.388V141.936ZM744.388 35.952V34.952H743.388V35.952H744.388ZM770.452 35.952H771.452V34.952H770.452V35.952ZM770.452 43.728H769.452V46.47L771.217 44.3718L770.452 43.728ZM799.54 88.656L800.268 89.3414L800.273 89.3361L800.278 89.3308L799.54 88.656ZM799.54 61.44L798.802 62.1148L798.807 62.1201L798.812 62.1254L799.54 61.44ZM775.924 61.44L776.652 62.1254L776.657 62.1201L776.662 62.1148L775.924 61.44ZM775.924 88.656L775.186 89.3308L775.191 89.3361L775.196 89.3414L775.924 88.656ZM793.492 35.656C800.431 35.656 806.687 37.2948 812.284 40.5598L813.292 38.8322C807.369 35.3772 800.761 33.656 793.492 33.656V35.656ZM812.301 40.5695C817.985 43.7375 822.461 48.3015 825.734 54.2878L827.489 53.3282C824.043 47.0265 819.303 42.1825 813.275 38.8225L812.301 40.5695ZM825.744 54.3041C829.101 60.1786 830.796 67.0583 830.796 74.976H832.796C832.796 66.7657 831.035 59.5333 827.48 53.3119L825.744 54.3041ZM830.796 74.976C830.796 82.8933 829.101 89.8238 825.74 95.7977L827.483 96.7783C831.035 90.4642 832.796 83.1867 832.796 74.976H830.796ZM825.738 95.8024C822.464 101.695 817.984 106.266 812.29 109.533L813.286 111.267C819.304 107.814 824.04 102.977 827.486 96.7736L825.738 95.8024ZM812.295 109.53C806.696 112.703 800.436 114.296 793.492 114.296V116.296C800.756 116.296 807.36 114.625 813.281 111.27L812.295 109.53ZM793.492 114.296C784.586 114.296 777.614 111.632 772.461 106.387L771.035 107.789C776.634 113.488 784.158 116.296 793.492 116.296V114.296ZM770.748 107.088V141.936H772.748V107.088H770.748ZM771.748 140.936H744.388V142.936H771.748V140.936ZM745.388 141.936V35.952H743.388V141.936H745.388ZM744.388 36.952H770.452V34.952H744.388V36.952ZM769.452 35.952V43.728H771.452V35.952H769.452ZM771.217 44.3718C776.062 38.6133 783.42 35.656 793.492 35.656V33.656C783.02 33.656 775.018 36.7467 769.687 43.0842L771.217 44.3718ZM787.732 94.552C792.786 94.552 796.993 92.8215 800.268 89.3414L798.812 87.9706C795.943 91.0185 792.278 92.552 787.732 92.552V94.552ZM800.278 89.3308C803.56 85.7413 805.148 80.917 805.148 74.976H803.148C803.148 80.555 801.664 84.8507 798.802 87.9812L800.278 89.3308ZM805.148 74.976C805.148 69.0366 803.56 64.2525 800.268 60.7546L798.812 62.1254C801.664 65.1555 803.148 69.3954 803.148 74.976H805.148ZM800.278 60.7652C797.005 57.1857 792.795 55.4 787.732 55.4V57.4C792.268 57.4 795.931 58.9743 798.802 62.1148L800.278 60.7652ZM787.732 55.4C782.668 55.4 778.459 57.1857 775.186 60.7652L776.662 62.1148C779.533 58.9743 783.195 57.4 787.732 57.4V55.4ZM775.196 60.7546C771.904 64.2525 770.316 69.0366 770.316 74.976H772.316C772.316 69.3954 773.8 65.1555 776.652 62.1254L775.196 60.7546ZM770.316 74.976C770.316 80.917 771.904 85.7413 775.186 89.3308L776.662 87.9812C773.8 84.8507 772.316 80.555 772.316 74.976H770.316ZM775.196 89.3414C778.471 92.8215 782.678 94.552 787.732 94.552V92.552C783.186 92.552 779.521 91.0185 776.652 87.9706L775.196 89.3414ZM926.057 35.952L926.981 36.3352L927.555 34.952H926.057V35.952ZM892.361 117.168L891.438 116.785L891.436 116.789L892.361 117.168ZM877.961 137.328L877.4 136.5L877.391 136.507L877.961 137.328ZM844.697 141.216L845.001 140.263L844.994 140.261L844.987 140.259L844.697 141.216ZM834.617 136.176L833.722 135.731L833.367 136.447L833.986 136.951L834.617 136.176ZM844.121 117.024L844.805 116.294L843.824 115.374L843.226 116.579L844.121 117.024ZM849.593 120.336L849.958 119.405L849.946 119.4L849.935 119.396L849.593 120.336ZM862.553 120.048L862.032 119.195L862.021 119.201L862.01 119.208L862.553 120.048ZM866.873 115.008L867.768 115.455L867.974 115.043L867.794 114.619L866.873 115.008ZM833.465 35.952V34.952H831.957L832.544 36.3412L833.465 35.952ZM861.545 35.952L862.473 35.5792L862.221 34.952H861.545V35.952ZM880.697 83.616L879.769 83.9888L880.694 86.2895L881.624 83.9912L880.697 83.616ZM899.993 35.952V34.952H899.319L899.066 35.5767L899.993 35.952ZM925.134 35.5688L891.438 116.785L893.285 117.551L926.981 36.3352L925.134 35.5688ZM891.436 116.789C887.539 126.294 882.838 132.814 877.4 136.5L878.523 138.156C884.413 134.162 889.312 127.242 893.287 117.547L891.436 116.789ZM877.391 136.507C871.923 140.306 865.22 142.232 857.225 142.232V144.232C865.551 144.232 872.672 142.222 878.532 138.149L877.391 136.507ZM857.225 142.232C853.208 142.232 849.134 141.578 845.001 140.263L844.394 142.169C848.709 143.542 852.987 144.232 857.225 144.232V142.232ZM844.987 140.259C840.949 139.038 837.715 137.41 835.249 135.401L833.986 136.951C836.703 139.166 840.19 140.898 844.408 142.173L844.987 140.259ZM835.513 136.621L845.017 117.469L843.226 116.579L833.722 135.731L835.513 136.621ZM843.437 117.754C845.079 119.292 847.021 120.465 849.252 121.276L849.935 119.396C847.942 118.671 846.236 117.636 844.805 116.294L843.437 117.754ZM849.229 121.267C851.544 122.173 853.876 122.632 856.217 122.632V120.632C854.143 120.632 852.058 120.227 849.958 119.405L849.229 121.267ZM856.217 122.632C858.939 122.632 861.257 122.078 863.097 120.888L862.01 119.208C860.586 120.13 858.679 120.632 856.217 120.632V122.632ZM863.075 120.901C865.001 119.724 866.555 117.882 867.768 115.455L865.979 114.561C864.888 116.742 863.562 118.26 862.032 119.195L863.075 120.901ZM867.794 114.619L834.386 35.5627L832.544 36.3412L865.952 115.397L867.794 114.619ZM833.465 36.952H861.545V34.952H833.465V36.952ZM860.617 36.3248L879.769 83.9888L881.625 83.2432L862.473 35.5792L860.617 36.3248ZM881.624 83.9912L900.92 36.3272L899.066 35.5767L879.77 83.2407L881.624 83.9912ZM899.993 36.952H926.057V34.952H899.993V36.952ZM1002.62 47.328L1002.15 48.21L1002.16 48.2162L1002.62 47.328ZM1015.29 59.856L1014.41 60.3217L1014.41 60.3311L1014.42 60.3403L1015.29 59.856ZM1014 98.304L1013.17 97.7428L1013.17 97.746L1014 98.304ZM998.302 111.408L998.722 112.315L998.728 112.313L998.302 111.408ZM943.005 103.2L943.729 102.509L943.005 103.2ZM973.39 8.59199L973.575 9.57456L973.576 9.5744L973.39 8.59199ZM1011.26 1.39199L1012.25 1.23061L1012.08 0.217939L1011.07 0.409586L1011.26 1.39199ZM1015.01 24.288L1015.19 25.2707L1016.15 25.0898L1015.99 24.1266L1015.01 24.288ZM982.174 30.48L982.354 31.4635L982.359 31.4627L982.174 30.48ZM963.742 37.968L964.4 38.7206L964.401 38.7194L963.742 37.968ZM956.83 52.656L955.837 52.5374L955.513 55.2492L957.511 53.3877L956.83 52.656ZM987.502 90.528L986.762 89.8553L986.756 89.8616L986.75 89.8679L987.502 90.528ZM987.502 67.056L986.794 67.7631L986.8 67.7691L986.806 67.775L987.502 67.056ZM964.174 67.056L963.478 66.3374L963.472 66.3431L963.466 66.3489L964.174 67.056ZM964.318 90.672L963.599 91.3678L964.318 90.672ZM982.893 43.864C990.346 43.864 996.754 45.3256 1002.15 48.2099L1003.09 46.4461C997.353 43.3784 990.609 41.864 982.893 41.864V43.864ZM1002.16 48.2162C1007.55 51.0036 1011.63 55.0334 1014.41 60.3217L1016.18 59.3903C1013.2 53.7346 1008.83 49.4124 1003.08 46.4398L1002.16 48.2162ZM1014.42 60.3403C1017.3 65.5444 1018.76 71.6602 1018.76 78.72H1020.76C1020.76 71.3798 1019.24 64.9195 1016.17 59.3717L1014.42 60.3403ZM1018.76 78.72C1018.76 85.9288 1016.89 92.2579 1013.17 97.7428L1014.83 98.8652C1018.79 93.0221 1020.76 86.2952 1020.76 78.72H1018.76ZM1013.17 97.746C1009.53 103.148 1004.45 107.404 997.875 110.503L998.728 112.313C1005.59 109.076 1010.97 104.596 1014.83 98.862L1013.17 97.746ZM997.881 110.501C991.406 113.503 984.065 115.016 975.838 115.016V117.016C984.314 117.016 991.949 115.457 998.722 112.315L997.881 110.501ZM975.838 115.016C962.335 115.016 951.669 110.823 943.729 102.509L942.282 103.891C950.662 112.665 961.885 117.016 975.838 117.016V115.016ZM943.729 102.509C935.812 94.2202 931.766 81.6971 931.766 64.752H929.766C929.766 81.9829 933.879 95.0918 942.282 103.891L943.729 102.509ZM931.766 64.752C931.766 48.8599 935.287 36.4011 942.218 27.2686C949.14 18.1487 959.552 12.2276 973.575 9.57456L973.204 7.60942C958.811 10.3324 947.911 16.4593 940.625 26.0594C933.348 35.6469 929.766 48.5801 929.766 64.752H931.766ZM973.576 9.5744L1011.45 2.3744L1011.07 0.409586L973.203 7.60959L973.576 9.5744ZM1010.27 1.55337L1014.02 24.4494L1015.99 24.1266L1012.25 1.23061L1010.27 1.55337ZM1014.82 23.3053L981.988 29.4973L982.359 31.4627L1015.19 25.2707L1014.82 23.3053ZM981.993 29.4965C973.562 31.0469 967.213 33.5888 963.082 37.2166L964.401 38.7194C968.142 35.4352 974.081 32.9851 982.354 31.4635L981.993 29.4965ZM963.083 37.2154C959.011 40.7785 956.626 45.9285 955.837 52.5374L957.822 52.7746C958.569 46.5195 960.792 41.8775 964.4 38.7206L963.083 37.2154ZM957.511 53.3877C964.318 47.0471 972.756 43.864 982.893 43.864V41.864C972.295 41.864 963.357 45.2089 956.148 51.9243L957.511 53.3877ZM975.982 96.28C981.114 96.28 985.247 94.6078 988.253 91.1881L986.75 89.8679C984.188 92.7842 980.641 94.28 975.982 94.28V96.28ZM988.241 91.2007C991.306 87.8298 992.822 83.6462 992.822 78.72H990.822C990.822 83.2018 989.457 86.8902 986.762 89.8553L988.241 91.2007ZM992.822 78.72C992.822 73.5279 991.317 69.3536 988.197 66.337L986.806 67.775C989.446 70.3264 990.822 73.9281 990.822 78.72H992.822ZM988.209 66.3489C985.108 63.2482 980.996 61.736 975.982 61.736V63.736C980.567 63.736 984.135 65.1038 986.794 67.7631L988.209 66.3489ZM975.982 61.736C970.877 61.736 966.674 63.2445 963.478 66.3374L964.869 67.7746C967.625 65.1075 971.294 63.736 975.982 63.736V61.736ZM963.466 66.3489C960.358 69.4571 958.854 73.6704 958.854 78.864H960.854C960.854 74.0736 962.229 70.4149 964.881 67.7631L963.466 66.3489ZM958.854 78.864C958.854 83.8892 960.42 88.0859 963.599 91.3678L965.036 89.9762C962.263 87.1141 960.854 83.4388 960.854 78.864H958.854ZM963.599 91.3678C966.787 94.6589 970.947 96.28 975.982 96.28V94.28C971.416 94.28 967.799 92.8291 965.036 89.9762L963.599 91.3678ZM1113.51 35.952L1114.43 36.3352L1115.01 34.952H1113.51V35.952ZM1079.81 117.168L1078.89 116.785L1078.89 116.789L1079.81 117.168ZM1065.41 137.328L1064.85 136.5L1064.84 136.507L1065.41 137.328ZM1032.15 141.216L1032.45 140.263L1032.45 140.261L1032.44 140.259L1032.15 141.216ZM1022.07 136.176L1021.17 135.731L1020.82 136.447L1021.44 136.951L1022.07 136.176ZM1031.57 117.024L1032.26 116.294L1031.28 115.374L1030.68 116.579L1031.57 117.024ZM1037.05 120.336L1037.41 119.405L1037.4 119.4L1037.39 119.396L1037.05 120.336ZM1050.01 120.048L1049.49 119.195L1049.47 119.201L1049.46 119.208L1050.01 120.048ZM1054.33 115.008L1055.22 115.455L1055.43 115.043L1055.25 114.619L1054.33 115.008ZM1020.92 35.952V34.952H1019.41L1020 36.3412L1020.92 35.952ZM1049 35.952L1049.93 35.5792L1049.67 34.952H1049V35.952ZM1068.15 83.616L1067.22 83.9888L1068.15 86.2895L1069.08 83.9912L1068.15 83.616ZM1087.45 35.952V34.952H1086.77L1086.52 35.5767L1087.45 35.952ZM1112.59 35.5688L1078.89 116.785L1080.74 117.551L1114.43 36.3352L1112.59 35.5688ZM1078.89 116.789C1074.99 126.294 1070.29 132.814 1064.85 136.5L1065.98 138.156C1071.87 134.162 1076.77 127.242 1080.74 117.547L1078.89 116.789ZM1064.84 136.507C1059.38 140.306 1052.67 142.232 1044.68 142.232V144.232C1053 144.232 1060.12 142.222 1065.99 138.149L1064.84 136.507ZM1044.68 142.232C1040.66 142.232 1036.59 141.578 1032.45 140.263L1031.85 142.169C1036.16 143.542 1040.44 144.232 1044.68 144.232V142.232ZM1032.44 140.259C1028.4 139.038 1025.17 137.41 1022.7 135.401L1021.44 136.951C1024.16 139.166 1027.64 140.898 1031.86 142.173L1032.44 140.259ZM1022.97 136.621L1032.47 117.469L1030.68 116.579L1021.17 135.731L1022.97 136.621ZM1030.89 117.754C1032.53 119.292 1034.47 120.465 1036.7 121.276L1037.39 119.396C1035.39 118.671 1033.69 117.636 1032.26 116.294L1030.89 117.754ZM1036.68 121.267C1039 122.173 1041.33 122.632 1043.67 122.632V120.632C1041.6 120.632 1039.51 120.227 1037.41 119.405L1036.68 121.267ZM1043.67 122.632C1046.39 122.632 1048.71 122.078 1050.55 120.888L1049.46 119.208C1048.04 120.13 1046.13 120.632 1043.67 120.632V122.632ZM1050.53 120.901C1052.45 119.724 1054.01 117.882 1055.22 115.455L1053.43 114.561C1052.34 116.742 1051.01 118.26 1049.49 119.195L1050.53 120.901ZM1055.25 114.619L1021.84 35.5627L1020 36.3412L1053.41 115.397L1055.25 114.619ZM1020.92 36.952H1049V34.952H1020.92V36.952ZM1048.07 36.3248L1067.22 83.9888L1069.08 83.2432L1049.93 35.5792L1048.07 36.3248ZM1069.08 83.9912L1088.37 36.3272L1086.52 35.5767L1067.22 83.2407L1069.08 83.9912ZM1087.45 36.952H1113.51V34.952H1087.45V36.952Z" fill="#E3F0FB"/>
</svg>
