<svg width="754" height="103" viewBox="0 0 754 103" fill="none" xmlns="http://www.w3.org/2000/svg">
<path d="M41.6286 62.6414L42.4886 62.1312L42.1981 61.6414H41.6286V62.6414ZM28.6686 62.6414V61.6414H27.6686V62.6414H28.6686ZM28.6686 101.233V102.233H29.6686V101.233H28.6686ZM0.300599 101.233H-0.699401V102.233H0.300599V101.233ZM0.300599 0.433392V-0.566608H-0.699401V0.433392H0.300599ZM28.6686 0.433392H29.6686V-0.566608H28.6686V0.433392ZM28.6686 39.6014H27.6686V40.6014H28.6686V39.6014ZM42.3486 39.6014V40.6014H42.9081L43.2008 40.1246L42.3486 39.6014ZM66.3966 0.433392V-0.566608H65.8371L65.5444 -0.0898323L66.3966 0.433392ZM96.3486 0.433392L97.1878 0.977158L98.1881 -0.566608H96.3486V0.433392ZM64.8126 49.1054L63.9734 48.5616L63.6313 49.0896L63.9591 49.6265L64.8126 49.1054ZM96.6366 101.233V102.233H98.4187L97.4901 100.712L96.6366 101.233ZM64.5246 101.233L63.6646 101.744L63.9551 102.233H64.5246V101.233ZM41.6286 61.6414H28.6686V63.6414H41.6286V61.6414ZM27.6686 62.6414V101.233H29.6686V62.6414H27.6686ZM28.6686 100.233H0.300599V102.233H28.6686V100.233ZM1.3006 101.233V0.433392H-0.699401V101.233H1.3006ZM0.300599 1.43339H28.6686V-0.566608H0.300599V1.43339ZM27.6686 0.433392V39.6014H29.6686V0.433392H27.6686ZM28.6686 40.6014H42.3486V38.6014H28.6686V40.6014ZM43.2008 40.1246L67.2488 0.956615L65.5444 -0.0898323L41.4964 39.0782L43.2008 40.1246ZM66.3966 1.43339H96.3486V-0.566608H66.3966V1.43339ZM95.5094 -0.110374L63.9734 48.5616L65.6518 49.6492L97.1878 0.977158L95.5094 -0.110374ZM63.9591 49.6265L95.7831 101.754L97.4901 100.712L65.6661 48.5843L63.9591 49.6265ZM96.6366 100.233H64.5246V102.233H96.6366V100.233ZM65.3846 100.723L42.4886 62.1312L40.7686 63.1516L63.6646 101.744L65.3846 100.723ZM118.773 97.3454L119.231 96.4561L118.773 97.3454ZM102.933 82.9454L102.079 83.4658L102.085 83.4754L102.933 82.9454ZM102.933 41.3294L102.085 40.7994L102.079 40.809L102.933 41.3294ZM118.629 27.0734L119.082 27.9652L119.087 27.9627L118.629 27.0734ZM164.133 27.0734L163.676 27.9627L163.686 27.9678L164.133 27.0734ZM179.829 41.3294L178.975 41.8498L178.979 41.8558L179.829 41.3294ZM179.829 82.9454L180.683 83.4658L179.829 82.9454ZM164.133 97.3454L163.676 96.4561L164.133 97.3454ZM153.189 75.8894L153.917 76.5748L153.922 76.5695L153.927 76.5642L153.189 75.8894ZM153.189 48.5294L153.917 47.844L153.189 48.5294ZM129.573 48.5294L128.845 47.844L129.573 48.5294ZM129.573 75.8894L128.835 76.5642L128.84 76.5695L128.845 76.5748L129.573 75.8894ZM141.381 101.529C133.171 101.529 125.795 99.832 119.231 96.4561L118.316 98.2347C125.192 101.771 132.887 103.529 141.381 103.529V101.529ZM119.231 96.4561C112.664 93.0788 107.522 88.3999 103.781 82.4154L102.085 83.4754C106.025 89.7789 111.443 94.7 118.316 98.2347L119.231 96.4561ZM103.787 82.425C100.146 76.4504 98.3172 69.6732 98.3172 62.0654H96.3172C96.3172 70.0096 98.2321 77.1524 102.079 83.4658L103.787 82.425ZM98.3172 62.0654C98.3172 54.5561 100.145 47.8264 103.787 41.8498L102.079 40.809C98.2333 47.1204 96.3172 54.2147 96.3172 62.0654H98.3172ZM103.781 41.8594C107.522 35.8738 112.616 31.245 119.082 27.9652L118.177 26.1816C111.395 29.6217 106.024 34.497 102.085 40.7994L103.781 41.8594ZM119.087 27.9627C125.649 24.5877 133.073 22.8894 141.381 22.8894V20.8894C132.793 20.8894 125.049 22.6471 118.172 26.1841L119.087 27.9627ZM141.381 22.8894C149.689 22.8894 157.113 24.5877 163.676 27.9627L164.591 26.1841C157.713 22.6471 149.969 20.8894 141.381 20.8894V22.8894ZM163.686 27.9678C170.246 31.2477 175.333 35.8735 178.975 41.8498L180.683 40.809C176.837 34.4973 171.461 29.6191 164.58 26.179L163.686 27.9678ZM178.979 41.8558C182.616 47.731 184.445 54.4574 184.445 62.0654H186.445C186.445 54.1214 184.53 47.0238 180.679 40.803L178.979 41.8558ZM184.445 62.0654C184.445 69.6732 182.616 76.4504 178.975 82.425L180.683 83.4658C184.53 77.1524 186.445 70.0096 186.445 62.0654H184.445ZM178.975 82.425C175.332 88.4039 170.241 93.0798 163.676 96.4561L164.591 98.2347C171.466 94.699 176.839 89.7749 180.683 83.4658L178.975 82.425ZM163.676 96.4561C157.113 99.8311 149.689 101.529 141.381 101.529V103.529C149.969 103.529 157.713 101.772 164.591 98.2347L163.676 96.4561ZM141.381 81.7854C146.435 81.7854 150.642 80.0549 153.917 76.5748L152.461 75.204C149.592 78.2519 145.927 79.7854 141.381 79.7854V81.7854ZM153.927 76.5642C157.212 72.9718 158.797 68.0973 158.797 62.0654H156.797C156.797 67.7454 155.311 72.087 152.451 75.2146L153.927 76.5642ZM158.797 62.0654C158.797 56.126 157.21 51.3419 153.917 47.844L152.461 49.2148C155.313 52.2449 156.797 56.4848 156.797 62.0654H158.797ZM153.917 47.844C150.642 44.3639 146.435 42.6334 141.381 42.6334V44.6334C145.927 44.6334 149.592 46.1669 152.461 49.2148L153.917 47.844ZM141.381 42.6334C136.327 42.6334 132.12 44.3639 128.845 47.844L130.301 49.2148C133.17 46.1669 136.835 44.6334 141.381 44.6334V42.6334ZM128.845 47.844C125.553 51.3419 123.965 56.126 123.965 62.0654H125.965C125.965 56.4848 127.45 52.2449 130.301 49.2148L128.845 47.844ZM123.965 62.0654C123.965 68.0973 125.551 72.9718 128.835 76.5642L130.311 75.2146C127.452 72.087 125.965 67.7454 125.965 62.0654H123.965ZM128.845 76.5748C132.12 80.0549 136.327 81.7854 141.381 81.7854V79.7854C136.835 79.7854 133.17 78.2519 130.301 75.204L128.845 76.5748ZM198.277 23.1854V22.1854H197.277V23.1854H198.277ZM225.493 23.1854H226.493V22.1854H225.493V23.1854ZM225.493 52.1294H224.493V53.1294H225.493V52.1294ZM253.573 52.1294V53.1294H254.573V52.1294H253.573ZM253.573 23.1854V22.1854H252.573V23.1854H253.573ZM280.933 23.1854H281.933V22.1854H280.933V23.1854ZM280.933 101.233V102.233H281.933V101.233H280.933ZM253.573 101.233H252.573V102.233H253.573V101.233ZM253.573 73.8734H254.573V72.8734H253.573V73.8734ZM225.493 73.8734V72.8734H224.493V73.8734H225.493ZM225.493 101.233V102.233H226.493V101.233H225.493ZM198.277 101.233H197.277V102.233H198.277V101.233ZM198.277 24.1854H225.493V22.1854H198.277V24.1854ZM224.493 23.1854V52.1294H226.493V23.1854H224.493ZM225.493 53.1294H253.573V51.1294H225.493V53.1294ZM254.573 52.1294V23.1854H252.573V52.1294H254.573ZM253.573 24.1854H280.933V22.1854H253.573V24.1854ZM279.933 23.1854V101.233H281.933V23.1854H279.933ZM280.933 100.233H253.573V102.233H280.933V100.233ZM254.573 101.233V73.8734H252.573V101.233H254.573ZM253.573 72.8734H225.493V74.8734H253.573V72.8734ZM224.493 73.8734V101.233H226.493V73.8734H224.493ZM225.493 100.233H198.277V102.233H225.493V100.233ZM199.277 101.233V23.1854H197.277V101.233H199.277ZM369.082 44.9294V45.9294H370.082V44.9294H369.082ZM344.026 44.9294V43.9294H343.026V44.9294H344.026ZM344.026 101.233V102.233H345.026V101.233H344.026ZM316.81 101.233H315.81V102.233H316.81V101.233ZM316.81 44.9294H317.81V43.9294H316.81V44.9294ZM291.61 44.9294H290.61V45.9294H291.61V44.9294ZM291.61 23.1854V22.1854H290.61V23.1854H291.61ZM369.082 23.1854H370.082V22.1854H369.082V23.1854ZM369.082 43.9294H344.026V45.9294H369.082V43.9294ZM343.026 44.9294V101.233H345.026V44.9294H343.026ZM344.026 100.233H316.81V102.233H344.026V100.233ZM317.81 101.233V44.9294H315.81V101.233H317.81ZM316.81 43.9294H291.61V45.9294H316.81V43.9294ZM292.61 44.9294V23.1854H290.61V44.9294H292.61ZM291.61 24.1854H369.082V22.1854H291.61V24.1854ZM368.082 23.1854V44.9294H370.082V23.1854H368.082ZM441.171 30.8174L440.513 31.5707L440.52 31.5759L441.171 30.8174ZM451.395 101.233V102.233H452.395V101.233H451.395ZM425.907 101.233H424.907V102.233H425.907V101.233ZM425.907 91.1534H426.907L425.02 90.6927L425.907 91.1534ZM387.171 99.3614L387.603 98.4593L387.171 99.3614ZM377.091 90.8654L376.236 91.3832L376.244 91.3965L376.252 91.4096L377.091 90.8654ZM382.275 61.3454L382.855 62.1601L382.864 62.1535L382.275 61.3454ZM424.035 55.1534V56.1534H425.095L425.034 55.0954L424.035 55.1534ZM396.099 44.6414L396.387 45.5992L396.397 45.596L396.408 45.5924L396.099 44.6414ZM386.307 49.5374L385.411 49.9818L385.958 51.0835L386.925 50.3237L386.307 49.5374ZM377.091 30.9614L376.537 30.1293L375.804 30.6175L376.195 31.4058L377.091 30.9614ZM392.787 24.3374L393.03 25.3076L393.04 25.3049L392.787 24.3374ZM418.851 82.9454L419.39 83.7877L418.851 82.9454ZM424.035 76.1774L424.978 76.5118L425.035 76.3496V76.1774H424.035ZM424.035 69.4094H425.035V68.4094H424.035V69.4094ZM403.011 83.0894L402.392 83.8743L403.011 83.0894ZM411.507 22.8894C424.328 22.8894 433.945 25.8345 440.513 31.5706L441.829 30.0642C434.766 23.8963 424.606 20.8894 411.507 20.8894V22.8894ZM440.52 31.5759C447.043 37.1806 450.395 45.8795 450.395 57.8894H452.395C452.395 45.5153 448.931 36.1662 441.823 30.0589L440.52 31.5759ZM450.395 57.8894V101.233H452.395V57.8894H450.395ZM451.395 100.233H425.907V102.233H451.395V100.233ZM426.907 101.233V91.1534H424.907V101.233H426.907ZM425.02 90.6927C421.314 97.8332 414.064 101.529 402.867 101.529V103.529C414.519 103.529 422.629 99.6416 426.795 91.614L425.02 90.6927ZM402.867 101.529C396.934 101.529 391.856 100.493 387.603 98.4593L386.74 100.264C391.318 102.453 396.704 103.529 402.867 103.529V101.529ZM387.603 98.4593C383.326 96.4141 380.119 93.6958 377.93 90.3212L376.252 91.4096C378.671 95.139 382.184 98.0847 386.74 100.264L387.603 98.4593ZM377.947 90.3476C375.841 86.8683 374.779 82.9221 374.779 78.4814H372.779C372.779 83.2567 373.926 87.5665 376.236 91.3832L377.947 90.3476ZM374.779 78.4814C374.779 71.3889 377.474 65.9909 382.855 62.1601L381.695 60.5307C375.749 64.7639 372.779 70.7899 372.779 78.4814H374.779ZM382.864 62.1535C388.275 58.2099 396.756 56.1534 408.483 56.1534V54.1534C396.594 54.1534 387.603 56.2249 381.686 60.5373L382.864 62.1535ZM408.483 56.1534H424.035V54.1534H408.483V56.1534ZM425.034 55.0954C424.78 50.7377 423.178 47.3406 420.134 45.0646C417.131 42.8188 412.863 41.7694 407.475 41.7694V43.7694C412.648 43.7694 416.419 44.784 418.936 46.6662C421.413 48.5182 422.81 51.3131 423.037 55.2114L425.034 55.0954ZM407.475 41.7694C403.618 41.7694 399.722 42.4125 395.79 43.6904L396.408 45.5924C400.156 44.3743 403.844 43.7694 407.475 43.7694V41.7694ZM395.812 43.6836C391.872 44.8654 388.491 46.5496 385.689 48.7511L386.925 50.3237C389.499 48.3012 392.646 46.7214 396.387 45.5992L395.812 43.6836ZM387.203 49.093L377.987 30.517L376.195 31.4058L385.411 49.9818L387.203 49.093ZM377.646 31.7934C381.852 28.9893 386.973 26.8216 393.03 25.3075L392.545 23.3672C386.313 24.9251 380.97 27.1735 376.537 30.1293L377.646 31.7934ZM393.04 25.3049C399.2 23.6937 405.355 22.8894 411.507 22.8894V20.8894C405.179 20.8894 398.854 21.7171 392.534 23.3699L393.04 25.3049ZM410.499 86.2494C413.836 86.2494 416.812 85.438 419.39 83.7877L418.312 82.1031C416.091 83.5248 413.498 84.2494 410.499 84.2494V86.2494ZM419.39 83.7877C421.998 82.1189 423.856 79.6732 424.978 76.5118L423.093 75.843C422.103 78.6336 420.505 80.6999 418.312 82.1031L419.39 83.7877ZM425.035 76.1774V69.4094H423.035V76.1774H425.035ZM424.035 68.4094H412.227V70.4094H424.035V68.4094ZM412.227 68.4094C408.164 68.4094 404.943 69.0767 402.711 70.5558C400.406 72.0828 399.275 74.3955 399.275 77.3294H401.275C401.275 74.9833 402.136 73.336 403.816 72.223C405.568 71.0621 408.322 70.4094 412.227 70.4094V68.4094ZM399.275 77.3294C399.275 80.0238 400.318 82.2375 402.392 83.8743L403.631 82.3045C402.056 81.0613 401.275 79.435 401.275 77.3294H399.275ZM402.392 83.8743C404.447 85.4966 407.187 86.2494 410.499 86.2494V84.2494C407.475 84.2494 405.224 83.5622 403.631 82.3045L402.392 83.8743ZM504.431 73.4414L505.268 72.8947L504.972 72.4414H504.431V73.4414ZM495.215 73.4414V72.4414H494.215V73.4414H495.215ZM495.215 101.233V102.233H496.215V101.233H495.215ZM467.855 101.233H466.855V102.233H467.855V101.233ZM467.855 23.1854V22.1854H466.855V23.1854H467.855ZM495.215 23.1854H496.215V22.1854H495.215V23.1854ZM495.215 51.9854H494.215V52.9854H495.215V51.9854ZM505.007 51.9854V52.9854H505.543L505.84 52.5391L505.007 51.9854ZM524.159 23.1854V22.1854H523.623L523.326 22.6317L524.159 23.1854ZM553.103 23.1854L553.922 23.7589L555.024 22.1854H553.103V23.1854ZM526.895 60.6254L526.076 60.0519L525.678 60.6204L526.071 61.1922L526.895 60.6254ZM554.831 101.233V102.233H556.733L555.655 100.667L554.831 101.233ZM522.575 101.233L521.738 101.78L522.034 102.233H522.575V101.233ZM504.431 72.4414H495.215V74.4414H504.431V72.4414ZM494.215 73.4414V101.233H496.215V73.4414H494.215ZM495.215 100.233H467.855V102.233H495.215V100.233ZM468.855 101.233V23.1854H466.855V101.233H468.855ZM467.855 24.1854H495.215V22.1854H467.855V24.1854ZM494.215 23.1854V51.9854H496.215V23.1854H494.215ZM495.215 52.9854H505.007V50.9854H495.215V52.9854ZM505.84 52.5391L524.992 23.7391L523.326 22.6317L504.174 51.4317L505.84 52.5391ZM524.159 24.1854H553.103V22.1854H524.159V24.1854ZM552.284 22.6119L526.076 60.0519L527.714 61.1989L553.922 23.7589L552.284 22.6119ZM526.071 61.1922L554.007 101.8L555.655 100.667L527.719 60.0586L526.071 61.1922ZM554.831 100.233H522.575V102.233H554.831V100.233ZM523.412 100.687L505.268 72.8947L503.594 73.9881L521.738 101.78L523.412 100.687ZM633.317 44.9294V45.9294H634.317V44.9294H633.317ZM608.261 44.9294V43.9294H607.261V44.9294H608.261ZM608.261 101.233V102.233H609.261V101.233H608.261ZM581.045 101.233H580.045V102.233H581.045V101.233ZM581.045 44.9294H582.045V43.9294H581.045V44.9294ZM555.845 44.9294H554.845V45.9294H555.845V44.9294ZM555.845 23.1854V22.1854H554.845V23.1854H555.845ZM633.317 23.1854H634.317V22.1854H633.317V23.1854ZM633.317 43.9294H608.261V45.9294H633.317V43.9294ZM607.261 44.9294V101.233H609.261V44.9294H607.261ZM608.261 100.233H581.045V102.233H608.261V100.233ZM582.045 101.233V44.9294H580.045V101.233H582.045ZM581.045 43.9294H555.845V45.9294H581.045V43.9294ZM556.845 44.9294V23.1854H554.845V44.9294H556.845ZM555.845 24.1854H633.317V22.1854H555.845V24.1854ZM632.317 23.1854V44.9294H634.317V23.1854H632.317ZM688.558 47.3774L688.567 46.3774H688.558V47.3774ZM711.742 54.2894L711.085 55.0437L711.742 54.2894ZM710.446 94.0334L709.816 93.2561L709.81 93.2611L710.446 94.0334ZM685.102 101.233L685.11 100.233H685.102V101.233ZM643.918 101.233H642.918V102.233H643.918V101.233ZM643.918 23.1854V22.1854H642.918V23.1854H643.918ZM671.134 23.1854H672.134V22.1854H671.134V23.1854ZM671.134 47.3774H670.134V48.3774H671.134V47.3774ZM726.142 23.1854V22.1854H725.142V23.1854H726.142ZM753.358 23.1854H754.358V22.1854H753.358V23.1854ZM753.358 101.233V102.233H754.358V101.233H753.358ZM726.142 101.233H725.142V102.233H726.142V101.233ZM682.366 82.5134L682.353 83.5134H682.366V82.5134ZM690.142 66.3854L690.782 65.6172L690.142 66.3854ZM682.366 64.0814L682.393 63.0818L682.38 63.0814H682.366V64.0814ZM671.134 64.0814V63.0814H670.134V64.0814H671.134ZM671.134 82.3694H670.134V83.3567L671.121 83.3693L671.134 82.3694ZM688.548 48.3773C698.696 48.4722 706.151 50.7494 711.085 55.0437L712.398 53.5351C706.964 48.8054 698.963 46.4746 688.567 46.3774L688.548 48.3773ZM711.085 55.0437C716.004 59.3253 718.518 65.4548 718.518 73.5854H720.518C720.518 65.012 717.847 58.2775 712.398 53.5351L711.085 55.0437ZM718.518 73.5854C718.518 82.0615 715.599 88.5749 709.816 93.2561L711.075 94.8106C717.388 89.6999 720.518 82.5813 720.518 73.5854H718.518ZM709.81 93.2611C704.103 97.9562 695.917 100.328 685.11 100.233L685.093 102.233C696.175 102.331 704.885 99.9026 711.081 94.8057L709.81 93.2611ZM685.102 100.233H643.918V102.233H685.102V100.233ZM644.918 101.233V23.1854H642.918V101.233H644.918ZM643.918 24.1854H671.134V22.1854H643.918V24.1854ZM670.134 23.1854V47.3774H672.134V23.1854H670.134ZM671.134 48.3774H688.558V46.3774H671.134V48.3774ZM726.142 24.1854H753.358V22.1854H726.142V24.1854ZM752.358 23.1854V101.233H754.358V23.1854H752.358ZM753.358 100.233H726.142V102.233H753.358V100.233ZM727.142 101.233V23.1854H725.142V101.233H727.142ZM682.366 83.5134C685.952 83.5134 688.828 82.7062 690.812 80.9157C692.815 79.1076 693.734 76.4554 693.734 73.1534H691.734C691.734 76.0914 690.925 78.1192 689.471 79.4311C687.999 80.7606 685.691 81.5134 682.366 81.5134V83.5134ZM693.734 73.1534C693.734 69.8992 692.813 67.31 690.782 65.6172L689.501 67.1536C690.926 68.3408 691.734 70.2636 691.734 73.1534H693.734ZM690.782 65.6172C688.81 63.9744 685.96 63.1808 682.393 63.0818L682.338 65.081C685.684 65.174 688.017 65.9164 689.501 67.1536L690.782 65.6172ZM682.366 63.0814H671.134V65.0814H682.366V63.0814ZM670.134 64.0814V82.3694H672.134V64.0814H670.134ZM671.121 83.3693L682.353 83.5133L682.378 81.5135L671.146 81.3695L671.121 83.3693Z" fill="#005481"/>
</svg>
