<svg width="631" height="129" viewBox="0 0 631 129" fill="none" xmlns="http://www.w3.org/2000/svg">
<path d="M74.528 22.808V23.808H75.5217L75.528 22.8144L74.528 22.808ZM28.88 22.808V21.808H27.88V22.808H28.88ZM28.88 101V102H29.88V101H28.88ZM0.8 101H-0.2V102H0.8V101ZM0.8 0.199993V-0.800007H-0.2V0.199993H0.8ZM74.672 0.199993L75.672 0.206364L75.6784 -0.800007H74.672V0.199993ZM74.528 21.808H28.88V23.808H74.528V21.808ZM27.88 22.808V101H29.88V22.808H27.88ZM28.88 100H0.8V102H28.88V100ZM1.8 101V0.199993H-0.2V101H1.8ZM0.8 1.19999H74.672V-0.800007H0.8V1.19999ZM73.672 0.193623L73.528 22.8016L75.528 22.8144L75.672 0.206364L73.672 0.193623ZM147.329 30.584L146.671 31.3373L146.677 31.3425L147.329 30.584ZM157.553 101V102H158.553V101H157.553ZM132.065 101H131.065V102H132.065V101ZM132.065 90.92H133.065L131.177 90.4594L132.065 90.92ZM93.329 99.128L93.7605 98.2259H93.7605L93.329 99.128ZM83.249 90.632L82.3935 91.1498L82.4016 91.1631L82.41 91.1762L83.249 90.632ZM88.433 61.112L89.013 61.9267L89.022 61.9201L88.433 61.112ZM130.193 54.92V55.92H131.253L131.191 54.862L130.193 54.92ZM102.257 44.408L102.544 45.3658L102.555 45.3626L102.566 45.359L102.257 44.408ZM92.465 49.304L91.5692 49.7484L92.1158 50.8501L93.0828 50.0903L92.465 49.304ZM83.249 30.728L82.6943 29.8959L81.9621 30.3841L82.3532 31.1724L83.249 30.728ZM98.945 24.104L99.1876 25.0742L99.198 25.0715L98.945 24.104ZM125.009 82.712L125.548 83.5543L125.009 82.712ZM130.193 75.944L131.135 76.2784L131.193 76.1162V75.944H130.193ZM130.193 69.176H131.193V68.176H130.193V69.176ZM109.169 82.856L108.549 83.6409L109.169 82.856ZM117.665 22.656C130.486 22.656 140.102 25.6011 146.671 31.3372L147.987 29.8308C140.924 23.6629 130.764 20.656 117.665 20.656V22.656ZM146.677 31.3425C153.201 36.9472 156.553 45.6461 156.553 57.656H158.553C158.553 45.2819 155.089 35.9328 147.981 29.8255L146.677 31.3425ZM156.553 57.656V101H158.553V57.656H156.553ZM157.553 100H132.065V102H157.553V100ZM133.065 101V90.92H131.065V101H133.065ZM131.177 90.4594C127.472 97.5998 120.222 101.296 109.025 101.296V103.296C120.676 103.296 128.786 99.4082 132.953 91.3806L131.177 90.4594ZM109.025 101.296C103.092 101.296 98.0138 100.26 93.7605 98.2259L92.8975 100.03C97.4762 102.22 102.862 103.296 109.025 103.296V101.296ZM93.7605 98.2259C89.4843 96.1807 86.2769 93.4624 84.088 90.0878L82.41 91.1762C84.8291 94.9056 88.3418 97.8513 92.8975 100.03L93.7605 98.2259ZM84.1045 90.1142C81.9986 86.6349 80.937 82.6887 80.937 78.248H78.937C78.937 83.0233 80.0834 87.3331 82.3935 91.1498L84.1045 90.1142ZM80.937 78.248C80.937 71.1555 83.6315 65.7575 89.0129 61.9267L87.8531 60.2973C81.9065 64.5305 78.937 70.5565 78.937 78.248H80.937ZM89.022 61.9201C94.433 57.9765 102.914 55.92 114.641 55.92V53.92C102.752 53.92 93.761 55.9915 87.844 60.3039L89.022 61.9201ZM114.641 55.92H130.193V53.92H114.641V55.92ZM131.191 54.862C130.938 50.5043 129.335 47.1072 126.292 44.8312C123.289 42.5854 119.021 41.536 113.633 41.536V43.536C118.805 43.536 122.577 44.5506 125.094 46.4328C127.571 48.2848 128.968 51.0797 129.195 54.978L131.191 54.862ZM113.633 41.536C109.776 41.536 105.88 42.1791 101.948 43.457L102.566 45.359C106.314 44.1409 110.002 43.536 113.633 43.536V41.536ZM101.97 43.4502C98.0301 44.632 94.6491 46.3162 91.8472 48.5177L93.0828 50.0903C95.6569 48.0678 98.8039 46.488 102.544 45.3658L101.97 43.4502ZM93.3608 48.8596L84.1448 30.2836L82.3532 31.1724L91.5692 49.7484L93.3608 48.8596ZM83.8037 31.56C88.01 28.7559 93.1311 26.5882 99.1875 25.0741L98.7025 23.1339C92.4709 24.6917 87.128 26.9401 82.6943 29.8959L83.8037 31.56ZM99.198 25.0715C105.358 23.4603 111.513 22.656 117.665 22.656V20.656C111.337 20.656 105.012 21.4837 98.692 23.1365L99.198 25.0715ZM116.657 86.016C119.994 86.016 122.969 85.2046 125.548 83.5543L124.47 81.8697C122.249 83.2914 119.656 84.016 116.657 84.016V86.016ZM125.548 83.5543C128.156 81.8855 130.014 79.4398 131.135 76.2784L129.251 75.6096C128.26 78.4002 126.662 80.4665 124.47 81.8697L125.548 83.5543ZM131.193 75.944V69.176H129.193V75.944H131.193ZM130.193 68.176H118.385V70.176H130.193V68.176ZM118.385 68.176C114.322 68.176 111.101 68.8433 108.869 70.3224C106.564 71.8494 105.433 74.1621 105.433 77.096H107.433C107.433 74.7499 108.294 73.1026 109.973 71.9896C111.725 70.8287 114.48 70.176 118.385 70.176V68.176ZM105.433 77.096C105.433 79.7904 106.476 82.0041 108.549 83.6409L109.789 82.0711C108.214 80.8279 107.433 79.2016 107.433 77.096H105.433ZM108.549 83.6409C110.604 85.2632 113.345 86.016 116.657 86.016V84.016C113.633 84.016 111.382 83.3288 109.789 82.0711L108.549 83.6409ZM253.501 22.952H254.501V21.952H253.501V22.952ZM253.501 101V102H254.501V101H253.501ZM226.141 101H225.141V102H226.141V101ZM226.141 44.696H227.141V43.696H226.141V44.696ZM206.413 44.696V43.696H205.46L205.414 44.6479L206.413 44.696ZM205.837 56.648L204.838 56.5999L204.838 56.6103L205.837 56.648ZM202.813 81.848L201.842 81.6088L202.813 81.848ZM194.749 97.4L195.447 98.1163L195.456 98.1071L194.749 97.4ZM166.093 101L165.094 100.948L165.051 101.788L165.871 101.975L166.093 101ZM167.245 78.68L167.355 77.6861L166.301 77.569L166.246 78.6285L167.245 78.68ZM177.469 76.088L178.25 76.7127L177.469 76.088ZM180.637 68.456L181.621 68.6349L181.622 68.6298L180.637 68.456ZM181.789 55.496L182.788 55.5317L182.788 55.5314L181.789 55.496ZM182.941 22.952V21.952H181.976L181.941 22.9166L182.941 22.952ZM252.501 22.952V101H254.501V22.952H252.501ZM253.501 100H226.141V102H253.501V100ZM227.141 101V44.696H225.141V101H227.141ZM226.141 43.696H206.413V45.696H226.141V43.696ZM205.414 44.6479L204.838 56.5999L206.836 56.6961L207.412 44.7441L205.414 44.6479ZM204.838 56.6103C204.455 66.7481 203.452 75.0745 201.842 81.6088L203.784 82.0872C205.438 75.3735 206.451 66.8999 206.836 56.6857L204.838 56.6103ZM201.842 81.6088C200.241 88.1059 197.625 93.1101 194.042 96.6929L195.456 98.1071C199.361 94.2019 202.121 88.8382 203.784 82.0872L201.842 81.6088ZM194.051 96.6838C190.538 100.107 185.676 101.872 179.341 101.872V103.872C186.061 103.872 191.472 101.989 195.447 98.1162L194.051 96.6838ZM179.341 101.872C176.089 101.872 171.756 101.266 166.315 100.025L165.871 101.975C171.374 103.23 175.873 103.872 179.341 103.872V101.872ZM167.092 101.052L168.244 78.7315L166.246 78.6285L165.094 100.948L167.092 101.052ZM167.134 79.6739C168.853 79.8648 170.06 79.968 170.701 79.968V77.968C170.19 77.968 169.093 77.8792 167.355 77.6861L167.134 79.6739ZM170.701 79.968C173.91 79.968 176.484 78.9202 178.25 76.7127L176.688 75.4633C175.382 77.0958 173.444 77.968 170.701 77.968V79.968ZM178.25 76.7127C179.916 74.6293 181.024 71.9172 181.621 68.6349L179.653 68.2771C179.098 71.3308 178.093 73.7067 176.688 75.4633L178.25 76.7127ZM181.622 68.6298C182.209 65.301 182.595 60.9293 182.788 55.5317L180.79 55.4603C180.598 60.8147 180.217 65.083 179.652 68.2822L181.622 68.6298ZM182.788 55.5314L183.94 22.9874L181.941 22.9166L180.79 55.4606L182.788 55.5314ZM182.941 23.952H253.501V21.952H182.941V23.952ZM350.512 68.888V69.888H351.447L351.51 68.9545L350.512 68.888ZM293.776 68.888V67.888H292.45L292.814 69.1627L293.776 68.888ZM300.4 78.248L299.84 79.0763L299.853 79.0857L299.868 79.0946L300.4 78.248ZM322.576 79.832L322.221 78.8969L322.21 78.9012L322.576 79.832ZM330.928 74.648L331.649 73.9549L330.992 73.2722L330.275 73.8906L330.928 74.648ZM345.328 89.624L346.072 90.292L346.693 89.6006L346.049 88.9309L345.328 89.624ZM288.016 97.112L288.463 96.2176L288.016 97.112ZM271.888 82.712L271.034 83.2324L271.04 83.242L271.888 82.712ZM271.744 41.24L270.89 40.7196L270.888 40.7235L271.744 41.24ZM287.152 26.84L286.684 25.9562L287.152 26.84ZM330.352 26.552L329.894 27.441L329.905 27.4464L330.352 26.552ZM345.328 40.52L344.468 41.0305L344.473 41.0385L344.478 41.0464L345.328 40.52ZM298.672 44.696L298.032 43.9278L298.025 43.9331L298.019 43.9386L298.672 44.696ZM293.344 54.488L292.361 54.3051L292.141 55.488H293.344V54.488ZM325.312 54.488V55.488H326.515L326.295 54.3051L325.312 54.488ZM319.84 44.696L319.187 45.4534L319.193 45.4589L319.2 45.4642L319.84 44.696ZM349.944 62.12C349.944 62.1132 349.943 62.1414 349.938 62.238C349.934 62.3226 349.928 62.4403 349.919 62.5923C349.901 62.8958 349.874 63.3288 349.838 63.8923C349.766 65.0189 349.658 66.6617 349.514 68.8215L351.51 68.9545C351.795 64.6715 351.944 62.3562 351.944 62.12H349.944ZM350.512 67.888H293.776V69.888H350.512V67.888ZM292.814 69.1627C294.026 73.405 296.368 76.7278 299.84 79.0763L300.96 77.4197C297.904 75.3522 295.829 72.435 294.737 68.6133L292.814 69.1627ZM299.868 79.0946C303.424 81.3297 307.796 82.416 312.928 82.416V80.416C308.076 80.416 304.096 79.3903 300.932 77.4014L299.868 79.0946ZM312.928 82.416C316.762 82.416 320.108 81.8759 322.942 80.7627L322.21 78.9012C319.668 79.9001 316.582 80.416 312.928 80.416V82.416ZM322.931 80.767C325.846 79.6612 328.728 77.8643 331.581 75.4054L330.275 73.8906C327.559 76.2317 324.874 77.8908 322.221 78.897L322.931 80.767ZM330.207 75.3411L344.607 90.3171L346.049 88.9309L331.649 73.9549L330.207 75.3411ZM344.584 88.956C337.24 97.136 326.458 101.296 312.064 101.296V103.296C326.854 103.296 338.247 99.0079 346.072 90.292L344.584 88.956ZM312.064 101.296C303.071 101.296 295.213 99.5927 288.463 96.2176L287.569 98.0064C294.642 101.543 302.816 103.296 312.064 103.296V101.296ZM288.463 96.2176C281.704 92.8382 276.472 88.1595 272.736 82.182L271.04 83.242C274.984 89.5525 280.504 94.4738 287.569 98.0064L288.463 96.2176ZM272.742 82.1916C269.101 76.217 267.272 69.4398 267.272 61.832H265.272C265.272 69.7762 267.187 76.919 271.034 83.2324L272.742 82.1916ZM267.272 61.832C267.272 54.3176 269.054 47.6351 272.6 41.7565L270.888 40.7235C267.137 46.9409 265.272 53.9864 265.272 61.832H267.272ZM272.598 41.7604C276.246 35.7743 281.246 31.0979 287.62 27.7238L286.684 25.9562C280.001 29.494 274.73 34.4177 270.89 40.7196L272.598 41.7604ZM287.62 27.7238C293.989 24.3518 301.17 22.656 309.184 22.656V20.656C300.878 20.656 293.371 22.4161 286.684 25.9562L287.62 27.7238ZM309.184 22.656C316.815 22.656 323.712 24.2564 329.894 27.441L330.81 25.663C324.32 22.3196 317.104 20.656 309.184 20.656V22.656ZM329.905 27.4464C336.068 30.5279 340.917 35.0499 344.468 41.0305L346.188 40.0095C342.443 33.7021 337.308 28.9121 330.799 25.6576L329.905 27.4464ZM344.478 41.0464C348.108 46.9105 349.944 53.9211 349.944 62.12H351.944C351.944 53.6149 350.036 46.2255 346.178 39.9936L344.478 41.0464ZM309.328 40.096C304.901 40.096 301.114 41.359 298.032 43.9278L299.312 45.4642C301.99 43.233 305.306 42.096 309.328 42.096V40.096ZM298.019 43.9386C295.039 46.5078 293.164 49.9871 292.361 54.3051L294.327 54.6709C295.06 50.7329 296.737 47.6842 299.325 45.4534L298.019 43.9386ZM293.344 55.488H325.312V53.488H293.344V55.488ZM326.295 54.3051C325.49 49.9772 323.561 46.4949 320.48 43.9278L319.2 45.4642C321.879 47.697 323.598 50.7428 324.329 54.6709L326.295 54.3051ZM320.493 43.9386C317.5 41.359 313.754 40.096 309.328 40.096V42.096C313.35 42.096 316.611 43.233 319.187 45.4534L320.493 43.9386ZM433.803 26.696L433.3 27.5598L433.308 27.5647L433.317 27.5695L433.803 26.696ZM447.628 40.808L446.75 41.2878L446.755 41.296L446.759 41.3041L447.628 40.808ZM447.628 83.288L446.756 82.7977L446.753 82.8024L447.628 83.288ZM433.803 97.4L434.297 98.27L434.301 98.2674L433.803 97.4ZM392.763 94.088L393.477 93.3872L391.763 91.6432V94.088H392.763ZM392.763 128.936V129.936H393.763V128.936H392.763ZM365.404 128.936H364.404V129.936H365.404V128.936ZM365.404 22.952V21.952H364.404V22.952H365.404ZM391.467 22.952H392.467V21.952H391.467V22.952ZM391.467 30.728H390.467V33.47L392.233 31.3718L391.467 30.728ZM420.556 75.656L421.284 76.3414L421.289 76.3361L421.294 76.3308L420.556 75.656ZM420.556 48.44L419.817 49.1148L419.822 49.1201L419.827 49.1254L420.556 48.44ZM396.94 48.44L397.668 49.1254L397.673 49.1201L397.678 49.1148L396.94 48.44ZM396.94 75.656L396.201 76.3308L396.206 76.3361L396.211 76.3414L396.94 75.656ZM414.508 22.656C421.446 22.656 427.703 24.2948 433.3 27.5598L434.307 25.8322C428.384 22.3772 421.777 20.656 414.508 20.656V22.656ZM433.317 27.5695C439 30.7375 443.476 35.3015 446.75 41.2878L448.505 40.3282C445.059 34.0265 440.319 29.1825 434.29 25.8225L433.317 27.5695ZM446.759 41.3041C450.116 47.1786 451.811 54.0583 451.811 61.976H453.811C453.811 53.7657 452.051 46.5333 448.496 40.3119L446.759 41.3041ZM451.811 61.976C451.811 69.8933 450.116 76.8238 446.756 82.7977L448.499 83.7783C452.051 77.4642 453.811 70.1867 453.811 61.976H451.811ZM446.753 82.8024C443.479 88.6954 439 93.2656 433.306 96.5326L434.301 98.2674C440.319 94.8144 445.056 89.9766 448.502 83.7736L446.753 82.8024ZM433.31 96.53C427.712 99.7026 421.452 101.296 414.508 101.296V103.296C421.771 103.296 428.375 101.625 434.297 98.27L433.31 96.53ZM414.508 101.296C405.601 101.296 398.63 98.6321 393.477 93.3872L392.05 94.7888C397.649 100.488 405.174 103.296 414.508 103.296V101.296ZM391.763 94.088V128.936H393.763V94.088H391.763ZM392.763 127.936H365.404V129.936H392.763V127.936ZM366.404 128.936V22.952H364.404V128.936H366.404ZM365.404 23.952H391.467V21.952H365.404V23.952ZM390.467 22.952V30.728H392.467V22.952H390.467ZM392.233 31.3718C397.077 25.6133 404.436 22.656 414.508 22.656V20.656C404.035 20.656 396.034 23.7467 390.702 30.0842L392.233 31.3718ZM408.747 81.552C413.801 81.552 418.008 79.8215 421.284 76.3414L419.827 74.9706C416.959 78.0185 413.294 79.552 408.747 79.552V81.552ZM421.294 76.3308C424.575 72.7413 426.164 67.917 426.164 61.976H424.164C424.164 67.555 422.68 71.8507 419.817 74.9812L421.294 76.3308ZM426.164 61.976C426.164 56.0366 424.576 51.2525 421.284 47.7546L419.827 49.1254C422.679 52.1555 424.164 56.3954 424.164 61.976H426.164ZM421.294 47.7652C418.021 44.1857 413.811 42.4 408.747 42.4V44.4C413.284 44.4 416.946 45.9743 419.817 49.1148L421.294 47.7652ZM408.747 42.4C403.684 42.4 399.474 44.1857 396.201 47.7652L397.678 49.1148C400.549 45.9743 404.211 44.4 408.747 44.4V42.4ZM396.211 47.7546C392.919 51.2525 391.332 56.0366 391.332 61.976H393.332C393.332 56.3954 394.816 52.1555 397.668 49.1254L396.211 47.7546ZM391.332 61.976C391.332 67.917 392.92 72.7413 396.201 76.3308L397.678 74.9812C394.815 71.8507 393.332 67.555 393.332 61.976H391.332ZM396.211 76.3414C399.487 79.8215 403.694 81.552 408.747 81.552V79.552C404.201 79.552 400.536 78.0185 397.668 74.9706L396.211 76.3414ZM544.574 68.888V69.888H545.51L545.572 68.9545L544.574 68.888ZM487.838 68.888V67.888H486.513L486.877 69.1627L487.838 68.888ZM494.462 78.248L493.902 79.0763L493.916 79.0857L493.93 79.0946L494.462 78.248ZM516.638 79.832L516.284 78.8969L516.273 78.9012L516.638 79.832ZM524.99 74.648L525.711 73.9549L525.055 73.2722L524.337 73.8906L524.99 74.648ZM539.39 89.624L540.135 90.292L540.755 89.6006L540.111 88.9309L539.39 89.624ZM482.078 97.112L482.526 96.2176L482.078 97.112ZM465.95 82.712L465.096 83.2324L465.102 83.242L465.95 82.712ZM465.806 41.24L464.952 40.7196L464.95 40.7235L465.806 41.24ZM481.214 26.84L480.746 25.9562L481.214 26.84ZM524.414 26.552L523.956 27.441L523.967 27.4464L524.414 26.552ZM539.39 40.52L538.531 41.0305L538.535 41.0385L538.54 41.0464L539.39 40.52ZM492.734 44.696L492.094 43.9278L492.088 43.9331L492.081 43.9386L492.734 44.696ZM487.406 54.488L486.423 54.3051L486.203 55.488H487.406V54.488ZM519.374 54.488V55.488H520.578L520.357 54.3051L519.374 54.488ZM513.902 44.696L513.249 45.4534L513.256 45.4589L513.262 45.4642L513.902 44.696ZM544.006 62.12C544.006 62.1132 544.006 62.1414 544.001 62.238C543.997 62.3226 543.99 62.4403 543.981 62.5923C543.963 62.8958 543.936 63.3288 543.9 63.8923C543.828 65.0189 543.721 66.6617 543.577 68.8215L545.572 68.9545C545.858 64.6715 546.006 62.3562 546.006 62.12H544.006ZM544.574 67.888H487.838V69.888H544.574V67.888ZM486.877 69.1627C488.089 73.405 490.43 76.7278 493.902 79.0763L495.023 77.4197C491.966 75.3522 489.892 72.435 488.8 68.6133L486.877 69.1627ZM493.93 79.0946C497.486 81.3297 501.858 82.416 506.99 82.416V80.416C502.138 80.416 498.159 79.3903 494.995 77.4014L493.93 79.0946ZM506.99 82.416C510.824 82.416 514.171 81.8759 517.004 80.7627L516.273 78.9012C513.73 79.9001 510.645 80.416 506.99 80.416V82.416ZM516.993 80.767C519.908 79.6612 522.791 77.8643 525.643 75.4054L524.337 73.8906C521.622 76.2317 518.937 77.8908 516.284 78.897L516.993 80.767ZM524.27 75.3411L538.67 90.3171L540.111 88.9309L525.711 73.9549L524.27 75.3411ZM538.646 88.956C531.303 97.136 520.521 101.296 506.126 101.296V103.296C520.916 103.296 532.31 99.0079 540.135 90.292L538.646 88.956ZM506.126 101.296C497.134 101.296 489.276 99.5927 482.526 96.2176L481.631 98.0064C488.705 101.543 496.879 103.296 506.126 103.296V101.296ZM482.526 96.2176C475.767 92.8382 470.534 88.1595 466.798 82.182L465.102 83.242C469.046 89.5525 474.566 94.4738 481.631 98.0064L482.526 96.2176ZM466.804 82.1916C463.164 76.217 461.334 69.4398 461.334 61.832H459.334C459.334 69.7762 461.249 76.919 465.096 83.2324L466.804 82.1916ZM461.334 61.832C461.334 54.3176 463.117 47.6351 466.663 41.7565L464.95 40.7235C461.2 46.9409 459.334 53.9864 459.334 61.832H461.334ZM466.66 41.7604C470.308 35.7743 475.309 31.0979 481.682 27.7238L480.746 25.9562C474.064 29.494 468.793 34.4177 464.952 40.7196L466.66 41.7604ZM481.682 27.7238C488.051 24.3518 495.232 22.656 503.246 22.656V20.656C494.941 20.656 487.433 22.4161 480.746 25.9562L481.682 27.7238ZM503.246 22.656C510.878 22.656 517.775 24.2564 523.956 27.441L524.872 25.663C518.382 22.3196 511.167 20.656 503.246 20.656V22.656ZM523.967 27.4464C530.13 30.5279 534.979 35.0499 538.531 41.0305L540.25 40.0095C536.505 33.7021 531.371 28.9121 524.862 25.6576L523.967 27.4464ZM538.54 41.0464C542.17 46.9105 544.006 53.9211 544.006 62.12H546.006C546.006 53.6149 544.099 46.2255 540.241 39.9936L538.54 41.0464ZM503.39 40.096C498.964 40.096 495.177 41.359 492.094 43.9278L493.375 45.4642C496.052 43.233 499.369 42.096 503.39 42.096V40.096ZM492.081 43.9386C489.101 46.5078 487.227 49.9871 486.423 54.3051L488.389 54.6709C489.122 50.7329 490.8 47.6842 493.387 45.4534L492.081 43.9386ZM487.406 55.488H519.374V53.488H487.406V55.488ZM520.357 54.3051C519.552 49.9772 517.623 46.4949 514.543 43.9278L513.262 45.4642C515.942 47.697 517.66 50.7428 518.391 54.6709L520.357 54.3051ZM514.555 43.9386C511.563 41.359 507.816 40.096 503.39 40.096V42.096C507.413 42.096 510.674 43.233 513.249 45.4534L514.555 43.9386ZM630.797 22.952H631.797V21.952H630.797V22.952ZM630.797 101V102H631.797V101H630.797ZM606.461 101H605.461V102H606.461V101ZM606.461 79.832H607.461V78.832H606.461V79.832ZM594.077 79.832V78.832H593.535L593.239 79.2852L594.077 79.832ZM580.253 101V102H580.794L581.09 101.547L580.253 101ZM551.309 101L550.487 100.43L549.398 102H551.309V101ZM568.589 76.088L569.41 76.658L570.099 75.665L568.995 75.1742L568.589 76.088ZM556.637 66.728L555.805 67.2827L555.812 67.2942L555.82 67.3055L556.637 66.728ZM562.973 30.728L563.565 31.5334L563.573 31.528L562.973 30.728ZM583.277 60.104L582.657 60.8889L582.667 60.8966L582.677 60.904L583.277 60.104ZM606.461 62.264V63.264H607.461V62.264H606.461ZM606.461 44.552H607.461V43.552H606.461V44.552ZM629.797 22.952V101H631.797V22.952H629.797ZM630.797 100H606.461V102H630.797V100ZM607.461 101V79.832H605.461V101H607.461ZM606.461 78.832H594.077V80.832H606.461V78.832ZM593.239 79.2852L579.415 100.453L581.09 101.547L594.914 80.3788L593.239 79.2852ZM580.253 100H551.309V102H580.253V100ZM552.13 101.57L569.41 76.658L567.767 75.5181L550.487 100.43L552.13 101.57ZM568.995 75.1742C563.946 72.9303 560.116 69.9153 557.453 66.1505L555.82 67.3055C558.725 71.4127 562.863 74.6377 568.182 77.0018L568.995 75.1742ZM557.469 66.1733C554.906 62.3291 553.605 57.7288 553.605 52.328H551.605C551.605 58.0632 552.991 63.0629 555.805 67.2827L557.469 66.1733ZM553.605 52.328C553.605 43.3025 556.934 36.415 563.565 31.5333L562.38 29.9227C555.188 35.217 551.605 42.7295 551.605 52.328H553.605ZM563.573 31.528C570.254 26.5167 579.521 23.952 591.485 23.952V21.952C579.257 21.952 569.515 24.5713 562.373 29.928L563.573 31.528ZM591.485 23.952H630.797V21.952H591.485V23.952ZM592.061 43.552C588.122 43.552 584.985 44.2979 582.814 45.9528C580.593 47.6468 579.541 50.1701 579.541 53.336H581.541C581.541 50.6458 582.409 48.7772 584.027 47.5432C585.697 46.2701 588.319 45.552 592.061 45.552V43.552ZM579.541 53.336C579.541 56.6078 580.52 59.202 582.657 60.8889L583.896 59.3191C582.385 58.126 581.541 56.2081 581.541 53.336H579.541ZM582.677 60.904C584.846 62.531 587.98 63.264 591.917 63.264V61.264C588.173 61.264 585.547 60.557 583.877 59.304L582.677 60.904ZM591.917 63.264H606.461V61.264H591.917V63.264ZM607.461 62.264V44.552H605.461V62.264H607.461ZM606.461 43.552H592.061V45.552H606.461V43.552Z" fill="#E3F0FB"/>
</svg>
