<svg width="922" height="105" viewBox="0 0 922 105" fill="none" xmlns="http://www.w3.org/2000/svg">
<path d="M41.7083 64.408L42.5683 63.8978L42.2777 63.408H41.7083V64.408ZM28.7483 64.408V63.408H27.7483V64.408H28.7483ZM28.7483 103V104H29.7483V103H28.7483ZM0.38025 103H-0.61975V104H0.38025V103ZM0.38025 2.19999V1.19999H-0.61975V2.19999H0.38025ZM28.7483 2.19999H29.7483V1.19999H28.7483V2.19999ZM28.7483 41.368H27.7483V42.368H28.7483V41.368ZM42.4282 41.368V42.368H42.9877L43.2804 41.8912L42.4282 41.368ZM66.4763 2.19999V1.19999H65.9168L65.6241 1.67677L66.4763 2.19999ZM96.4283 2.19999L97.2675 2.74376L98.2677 1.19999H96.4283V2.19999ZM64.8923 50.872L64.053 50.3282L63.711 50.8562L64.0387 51.3931L64.8923 50.872ZM96.7162 103V104H98.4984L97.5698 102.479L96.7162 103ZM64.6043 103L63.7442 103.51L64.0348 104H64.6043V103ZM41.7083 63.408H28.7483V65.408H41.7083V63.408ZM27.7483 64.408V103H29.7483V64.408H27.7483ZM28.7483 102H0.38025V104H28.7483V102ZM1.38025 103V2.19999H-0.61975V103H1.38025ZM0.38025 3.19999H28.7483V1.19999H0.38025V3.19999ZM27.7483 2.19999V41.368H29.7483V2.19999H27.7483ZM28.7483 42.368H42.4282V40.368H28.7483V42.368ZM43.2804 41.8912L67.3285 2.72322L65.6241 1.67677L41.5761 40.8448L43.2804 41.8912ZM66.4763 3.19999H96.4283V1.19999H66.4763V3.19999ZM95.589 1.65623L64.053 50.3282L65.7315 51.4158L97.2675 2.74376L95.589 1.65623ZM64.0387 51.3931L95.8627 103.521L97.5698 102.479L65.7458 50.3509L64.0387 51.3931ZM96.7162 102H64.6043V104H96.7162V102ZM65.4643 102.49L42.5683 63.8978L40.8482 64.9182L63.7442 103.51L65.4643 102.49ZM166.188 32.584L165.531 33.3373L165.537 33.3425L166.188 32.584ZM176.412 103V104H177.412V103H176.412ZM150.924 103H149.924V104H150.924V103ZM150.924 92.92H151.924L150.037 92.4594L150.924 92.92ZM112.188 101.128L112.62 100.226H112.62L112.188 101.128ZM102.108 92.632L101.253 93.1498L101.261 93.1631L101.269 93.1762L102.108 92.632ZM107.292 63.112L107.872 63.9267L107.881 63.9201L107.292 63.112ZM149.052 56.92V57.92H150.112L150.051 56.862L149.052 56.92ZM121.116 46.408L121.404 47.3658L121.415 47.3626L121.425 47.359L121.116 46.408ZM111.324 51.304L110.429 51.7484L110.975 52.8501L111.942 52.0903L111.324 51.304ZM102.108 32.728L101.554 31.8959L100.821 32.3841L101.213 33.1724L102.108 32.728ZM117.804 26.104L118.047 27.0742L118.057 27.0715L117.804 26.104ZM143.868 84.712L144.407 85.5543L143.868 84.712ZM149.052 77.944L149.995 78.2784L150.052 78.1162V77.944H149.052ZM149.052 71.176H150.052V70.176H149.052V71.176ZM128.028 84.856L127.409 85.6409L128.028 84.856ZM136.524 24.656C149.346 24.656 158.962 27.6011 165.531 33.3372L166.846 31.8308C159.783 25.6629 149.623 22.656 136.524 22.656V24.656ZM165.537 33.3425C172.06 38.9472 175.412 47.6461 175.412 59.656H177.412C177.412 47.2819 173.949 37.9328 166.84 31.8255L165.537 33.3425ZM175.412 59.656V103H177.412V59.656H175.412ZM176.412 102H150.924V104H176.412V102ZM151.924 103V92.92H149.924V103H151.924ZM150.037 92.4594C146.331 99.5998 139.081 103.296 127.884 103.296V105.296C139.536 105.296 147.646 101.408 151.812 93.3806L150.037 92.4594ZM127.884 103.296C121.951 103.296 116.873 102.26 112.62 100.226L111.757 102.03C116.336 104.22 121.721 105.296 127.884 105.296V103.296ZM112.62 100.226C108.344 98.1807 105.136 95.4624 102.947 92.0878L101.269 93.1762C103.689 96.9056 107.201 99.8513 111.757 102.03L112.62 100.226ZM102.964 92.1142C100.858 88.6349 99.7964 84.6887 99.7964 80.248H97.7964C97.7964 85.0233 98.9427 89.3331 101.253 93.1498L102.964 92.1142ZM99.7964 80.248C99.7964 73.1555 102.491 67.7575 107.872 63.9267L106.712 62.2973C100.766 66.5305 97.7964 72.5565 97.7964 80.248H99.7964ZM107.881 63.9201C113.292 59.9765 121.773 57.92 133.5 57.92V55.92C121.612 55.92 112.62 57.9915 106.703 62.3039L107.881 63.9201ZM133.5 57.92H149.052V55.92H133.5V57.92ZM150.051 56.862C149.797 52.5043 148.195 49.1072 145.151 46.8312C142.148 44.5854 137.88 43.536 132.492 43.536V45.536C137.665 45.536 141.437 46.5506 143.953 48.4328C146.43 50.2848 147.827 53.0797 148.054 56.978L150.051 56.862ZM132.492 43.536C128.635 43.536 124.739 44.1791 120.807 45.457L121.425 47.359C125.173 46.1409 128.861 45.536 132.492 45.536V43.536ZM120.829 45.4502C116.889 46.632 113.508 48.3162 110.707 50.5177L111.942 52.0903C114.516 50.0678 117.663 48.488 121.404 47.3658L120.829 45.4502ZM112.22 50.8596L103.004 32.2836L101.213 33.1724L110.429 51.7484L112.22 50.8596ZM102.663 33.56C106.869 30.7559 111.99 28.5882 118.047 27.0741L117.562 25.1339C111.33 26.6917 105.987 28.9401 101.554 31.8959L102.663 33.56ZM118.057 27.0715C124.218 25.4603 130.373 24.656 136.524 24.656V22.656C130.196 22.656 123.871 23.4837 117.551 25.1365L118.057 27.0715ZM135.516 88.016C138.853 88.016 141.829 87.2046 144.407 85.5543L143.329 83.8697C141.108 85.2914 138.515 86.016 135.516 86.016V88.016ZM144.407 85.5543C147.015 83.8855 148.873 81.4398 149.995 78.2784L148.11 77.6096C147.12 80.4002 145.522 82.4665 143.329 83.8697L144.407 85.5543ZM150.052 77.944V71.176H148.052V77.944H150.052ZM149.052 70.176H137.244V72.176H149.052V70.176ZM137.244 70.176C133.182 70.176 129.96 70.8433 127.728 72.3224C125.424 73.8494 124.292 76.1621 124.292 79.096H126.292C126.292 76.7499 127.153 75.1026 128.833 73.9896C130.585 72.8287 133.339 72.176 137.244 72.176V70.176ZM124.292 79.096C124.292 81.7904 125.336 84.0041 127.409 85.6409L128.648 84.0711C127.073 82.8279 126.292 81.2016 126.292 79.096H124.292ZM127.409 85.6409C129.464 87.2632 132.204 88.016 135.516 88.016V86.016C132.492 86.016 130.241 85.3288 128.648 84.0711L127.409 85.6409ZM229.448 75.208L230.286 74.6613L229.99 74.208H229.448V75.208ZM220.232 75.208V74.208H219.232V75.208H220.232ZM220.232 103V104H221.232V103H220.232ZM192.872 103H191.872V104H192.872V103ZM192.872 24.952V23.952H191.872V24.952H192.872ZM220.232 24.952H221.232V23.952H220.232V24.952ZM220.232 53.752H219.232V54.752H220.232V53.752ZM230.024 53.752V54.752H230.56L230.857 54.3057L230.024 53.752ZM249.176 24.952V23.952H248.64L248.344 24.3983L249.176 24.952ZM278.12 24.952L278.939 25.5255L280.041 23.952H278.12V24.952ZM251.912 62.392L251.093 61.8185L250.695 62.387L251.088 62.9588L251.912 62.392ZM279.848 103V104H281.75L280.672 102.433L279.848 103ZM247.592 103L246.755 103.547L247.051 104H247.592V103ZM229.448 74.208H220.232V76.208H229.448V74.208ZM219.232 75.208V103H221.232V75.208H219.232ZM220.232 102H192.872V104H220.232V102ZM193.872 103V24.952H191.872V103H193.872ZM192.872 25.952H220.232V23.952H192.872V25.952ZM219.232 24.952V53.752H221.232V24.952H219.232ZM220.232 54.752H230.024V52.752H220.232V54.752ZM230.857 54.3057L250.009 25.5057L248.344 24.3983L229.192 53.1983L230.857 54.3057ZM249.176 25.952H278.12V23.952H249.176V25.952ZM277.301 24.3785L251.093 61.8185L252.731 62.9655L278.939 25.5255L277.301 24.3785ZM251.088 62.9588L279.024 103.567L280.672 102.433L252.736 61.8252L251.088 62.9588ZM279.848 102H247.592V104H279.848V102ZM248.43 102.453L230.286 74.6613L228.611 75.7547L246.755 103.547L248.43 102.453ZM410.313 24.952H411.313V23.952H410.313V24.952ZM410.313 103V104H411.313V103H410.313ZM382.953 103H381.953V104H382.953V103ZM382.953 46.696H383.953V45.696H382.953V46.696ZM363.225 46.696V45.696H362.272L362.227 46.6479L363.225 46.696ZM362.649 58.648L361.65 58.5999L361.65 58.6103L362.649 58.648ZM359.625 83.848L358.654 83.6088L359.625 83.848ZM351.561 99.4L352.259 100.116L352.268 100.107L351.561 99.4ZM322.905 103L321.907 102.948L321.863 103.788L322.683 103.975L322.905 103ZM324.057 80.68L324.168 79.6861L323.113 79.569L323.059 80.6285L324.057 80.68ZM334.281 78.088L335.062 78.7127L334.281 78.088ZM337.449 70.456L338.433 70.6349L338.434 70.6298L337.449 70.456ZM338.601 57.496L339.601 57.5317V57.5314L338.601 57.496ZM339.753 24.952V23.952H338.788L338.754 24.9166L339.753 24.952ZM409.313 24.952V103H411.313V24.952H409.313ZM410.313 102H382.953V104H410.313V102ZM383.953 103V46.696H381.953V103H383.953ZM382.953 45.696H363.225V47.696H382.953V45.696ZM362.227 46.6479L361.651 58.5999L363.648 58.6961L364.224 46.7441L362.227 46.6479ZM361.65 58.6103C361.268 68.7481 360.264 77.0745 358.654 83.6088L360.596 84.0872C362.25 77.3735 363.263 68.8999 363.649 58.6857L361.65 58.6103ZM358.654 83.6088C357.054 90.1059 354.437 95.1101 350.854 98.6929L352.268 100.107C356.174 96.2019 358.933 90.8382 360.596 84.0872L358.654 83.6088ZM350.864 98.6838C347.35 102.107 342.489 103.872 336.153 103.872V105.872C342.874 105.872 348.285 103.989 352.259 100.116L350.864 98.6838ZM336.153 103.872C332.901 103.872 328.568 103.266 323.128 102.025L322.683 103.975C328.186 105.23 332.685 105.872 336.153 105.872V103.872ZM323.904 103.052L325.056 80.7315L323.059 80.6285L321.907 102.948L323.904 103.052ZM323.947 81.6739C325.665 81.8648 326.873 81.968 327.513 81.968V79.968C327.002 79.968 325.905 79.8792 324.168 79.6861L323.947 81.6739ZM327.513 81.968C330.722 81.968 333.296 80.9202 335.062 78.7127L333.501 77.4633C332.194 79.0958 330.256 79.968 327.513 79.968V81.968ZM335.062 78.7127C336.729 76.6293 337.836 73.9172 338.433 70.6349L336.466 70.2771C335.91 73.3308 334.906 75.7067 333.501 77.4633L335.062 78.7127ZM338.434 70.6298C339.022 67.301 339.408 62.9293 339.601 57.5317L337.602 57.4603C337.411 62.8147 337.029 67.083 336.465 70.2822L338.434 70.6298ZM339.601 57.5314L340.753 24.9874L338.754 24.9166L337.602 57.4606L339.601 57.5314ZM339.753 25.952H410.313V23.952H339.753V25.952ZM507.324 70.888V71.888H508.26L508.322 70.9545L507.324 70.888ZM450.588 70.888V69.888H449.263L449.627 71.1627L450.588 70.888ZM457.212 80.248L456.652 81.0763L456.666 81.0857L456.68 81.0946L457.212 80.248ZM479.388 81.832L479.034 80.8969L479.023 80.9012L479.388 81.832ZM487.74 76.648L488.461 75.9549L487.805 75.2722L487.087 75.8906L487.74 76.648ZM502.14 91.624L502.885 92.292L503.505 91.6006L502.861 90.9309L502.14 91.624ZM444.828 99.112L445.276 98.2176L444.828 99.112ZM428.7 84.712L427.846 85.2324L427.852 85.242L428.7 84.712ZM428.556 43.24L427.702 42.7196L427.7 42.7235L428.556 43.24ZM443.964 28.84L443.496 27.9562L443.964 28.84ZM487.164 28.552L486.706 29.441L486.717 29.4464L487.164 28.552ZM502.14 42.52L501.281 43.0305L501.285 43.0385L501.29 43.0464L502.14 42.52ZM455.484 46.696L454.844 45.9278L454.838 45.9331L454.831 45.9386L455.484 46.696ZM450.156 56.488L449.173 56.3051L448.953 57.488H450.156V56.488ZM482.124 56.488V57.488H483.328L483.108 56.3051L482.124 56.488ZM476.652 46.696L475.999 47.4534L476.006 47.4589L476.012 47.4642L476.652 46.696ZM506.756 64.12C506.756 64.1132 506.756 64.1414 506.751 64.238C506.747 64.3226 506.74 64.4403 506.731 64.5923C506.713 64.8958 506.686 65.3288 506.65 65.8923C506.578 67.0189 506.471 68.6617 506.327 70.8215L508.322 70.9545C508.608 66.6715 508.756 64.3562 508.756 64.12H506.756ZM507.324 69.888H450.588V71.888H507.324V69.888ZM449.627 71.1627C450.839 75.405 453.18 78.7278 456.652 81.0763L457.773 79.4197C454.716 77.3522 452.642 74.435 451.55 70.6133L449.627 71.1627ZM456.68 81.0946C460.236 83.3297 464.608 84.416 469.74 84.416V82.416C464.888 82.416 460.909 81.3903 457.745 79.4014L456.68 81.0946ZM469.74 84.416C473.574 84.416 476.921 83.8759 479.754 82.7627L479.023 80.9012C476.48 81.9001 473.395 82.416 469.74 82.416V84.416ZM479.743 82.767C482.658 81.6612 485.541 79.8643 488.393 77.4054L487.087 75.8906C484.372 78.2317 481.687 79.8908 479.034 80.897L479.743 82.767ZM487.02 77.3411L501.42 92.3171L502.861 90.9309L488.461 75.9549L487.02 77.3411ZM501.396 90.956C494.053 99.136 483.271 103.296 468.876 103.296V105.296C483.666 105.296 495.06 101.008 502.885 92.292L501.396 90.956ZM468.876 103.296C459.884 103.296 452.026 101.593 445.276 98.2176L444.381 100.006C451.455 103.543 459.629 105.296 468.876 105.296V103.296ZM445.276 98.2176C438.517 94.8382 433.284 90.1595 429.548 84.182L427.852 85.242C431.796 91.5525 437.316 96.4738 444.381 100.006L445.276 98.2176ZM429.554 84.1916C425.914 78.217 424.084 71.4398 424.084 63.832H422.084C422.084 71.7762 423.999 78.919 427.846 85.2324L429.554 84.1916ZM424.084 63.832C424.084 56.3176 425.867 49.6351 429.413 43.7565L427.7 42.7235C423.95 48.9409 422.084 55.9864 422.084 63.832H424.084ZM429.41 43.7604C433.058 37.7743 438.059 33.0979 444.432 29.7238L443.496 27.9562C436.814 31.494 431.543 36.4177 427.702 42.7196L429.41 43.7604ZM444.432 29.7238C450.801 26.3518 457.982 24.656 465.996 24.656V22.656C457.691 22.656 450.183 24.4161 443.496 27.9562L444.432 29.7238ZM465.996 24.656C473.628 24.656 480.525 26.2564 486.706 29.441L487.622 27.663C481.132 24.3196 473.917 22.656 465.996 22.656V24.656ZM486.717 29.4464C492.88 32.5279 497.73 37.0499 501.281 43.0305L503 42.0095C499.255 35.7021 494.121 30.9121 487.612 27.6576L486.717 29.4464ZM501.29 43.0464C504.92 48.9105 506.756 55.9211 506.756 64.12H508.756C508.756 55.6149 506.849 48.2255 502.991 41.9936L501.29 43.0464ZM466.14 42.096C461.714 42.096 457.927 43.359 454.844 45.9278L456.125 47.4642C458.802 45.233 462.119 44.096 466.14 44.096V42.096ZM454.831 45.9386C451.851 48.5078 449.977 51.9871 449.173 56.3051L451.139 56.6709C451.872 52.7329 453.55 49.6842 456.137 47.4534L454.831 45.9386ZM450.156 57.488H482.124V55.488H450.156V57.488ZM483.108 56.3051C482.302 51.9772 480.373 48.4949 477.293 45.9278L476.012 47.4642C478.692 49.697 480.41 52.7428 481.141 56.6709L483.108 56.3051ZM477.305 45.9386C474.313 43.359 470.566 42.096 466.14 42.096V44.096C470.163 44.096 473.424 45.233 475.999 47.4534L477.305 45.9386ZM589.521 46.696V47.696H590.521V46.696H589.521ZM564.465 46.696V45.696H563.465V46.696H564.465ZM564.465 103V104H565.465V103H564.465ZM537.249 103H536.249V104H537.249V103ZM537.249 46.696H538.249V45.696H537.249V46.696ZM512.049 46.696H511.049V47.696H512.049V46.696ZM512.049 24.952V23.952H511.049V24.952H512.049ZM589.521 24.952H590.521V23.952H589.521V24.952ZM589.521 45.696H564.465V47.696H589.521V45.696ZM563.465 46.696V103H565.465V46.696H563.465ZM564.465 102H537.249V104H564.465V102ZM538.249 103V46.696H536.249V103H538.249ZM537.249 45.696H512.049V47.696H537.249V45.696ZM513.049 46.696V24.952H511.049V46.696H513.049ZM512.049 25.952H589.521V23.952H512.049V25.952ZM588.521 24.952V46.696H590.521V24.952H588.521ZM661.61 32.584L660.952 33.3373L660.959 33.3425L661.61 32.584ZM671.834 103V104H672.834V103H671.834ZM646.346 103H645.346V104H646.346V103ZM646.346 92.92H647.346L645.459 92.4594L646.346 92.92ZM607.61 101.128L608.042 100.226L607.61 101.128ZM597.53 92.632L596.675 93.1498L596.683 93.1631L596.691 93.1762L597.53 92.632ZM602.714 63.112L603.294 63.9267L603.303 63.9201L602.714 63.112ZM644.474 56.92V57.92H645.534L645.473 56.862L644.474 56.92ZM616.538 46.408L616.826 47.3658L616.836 47.3626L616.847 47.359L616.538 46.408ZM606.746 51.304L605.85 51.7484L606.397 52.8501L607.364 52.0903L606.746 51.304ZM597.53 32.728L596.976 31.8959L596.243 32.3841L596.634 33.1724L597.53 32.728ZM613.226 26.104L613.469 27.0742L613.479 27.0715L613.226 26.104ZM639.29 84.712L639.829 85.5543L639.29 84.712ZM644.474 77.944L645.417 78.2784L645.474 78.1162V77.944H644.474ZM644.474 71.176H645.474V70.176H644.474V71.176ZM623.45 84.856L622.831 85.6409L623.45 84.856ZM631.946 24.656C644.768 24.656 654.384 27.6011 660.953 33.3372L662.268 31.8308C655.205 25.6629 645.045 22.656 631.946 22.656V24.656ZM660.959 33.3425C667.482 38.9472 670.834 47.6461 670.834 59.656H672.834C672.834 47.2819 669.37 37.9328 662.262 31.8255L660.959 33.3425ZM670.834 59.656V103H672.834V59.656H670.834ZM671.834 102H646.346V104H671.834V102ZM647.346 103V92.92H645.346V103H647.346ZM645.459 92.4594C641.753 99.5998 634.503 103.296 623.306 103.296V105.296C634.958 105.296 643.068 101.408 647.234 93.3806L645.459 92.4594ZM623.306 103.296C617.373 103.296 612.295 102.26 608.042 100.226L607.179 102.03C611.757 104.22 617.143 105.296 623.306 105.296V103.296ZM608.042 100.226C603.766 98.1807 600.558 95.4624 598.369 92.0878L596.691 93.1762C599.11 96.9056 602.623 99.8513 607.179 102.03L608.042 100.226ZM598.386 92.1142C596.28 88.6349 595.218 84.6887 595.218 80.248H593.218C593.218 85.0233 594.365 89.3331 596.675 93.1498L598.386 92.1142ZM595.218 80.248C595.218 73.1555 597.913 67.7575 603.294 63.9267L602.134 62.2973C596.188 66.5305 593.218 72.5565 593.218 80.248H595.218ZM603.303 63.9201C608.714 59.9765 617.195 57.92 628.922 57.92V55.92C617.033 55.92 608.042 57.9915 602.125 62.3039L603.303 63.9201ZM628.922 57.92H644.474V55.92H628.922V57.92ZM645.473 56.862C645.219 52.5043 643.617 49.1072 640.573 46.8312C637.57 44.5854 633.302 43.536 627.914 43.536V45.536C633.087 45.536 636.858 46.5506 639.375 48.4328C641.852 50.2848 643.249 53.0797 643.476 56.978L645.473 56.862ZM627.914 43.536C624.057 43.536 620.161 44.1791 616.229 45.457L616.847 47.359C620.595 46.1409 624.283 45.536 627.914 45.536V43.536ZM616.251 45.4502C612.311 46.632 608.93 48.3162 606.128 50.5177L607.364 52.0903C609.938 50.0678 613.085 48.488 616.826 47.3658L616.251 45.4502ZM607.642 50.8596L598.426 32.2836L596.634 33.1724L605.85 51.7484L607.642 50.8596ZM598.085 33.56C602.291 30.7559 607.412 28.5882 613.469 27.0741L612.984 25.1339C606.752 26.6917 601.409 28.9401 596.976 31.8959L598.085 33.56ZM613.479 27.0715C619.639 25.4603 625.794 24.656 631.946 24.656V22.656C625.618 22.656 619.293 23.4837 612.973 25.1365L613.479 27.0715ZM630.938 88.016C634.275 88.016 637.251 87.2046 639.829 85.5543L638.751 83.8697C636.53 85.2914 633.937 86.016 630.938 86.016V88.016ZM639.829 85.5543C642.437 83.8855 644.295 81.4398 645.417 78.2784L643.532 77.6096C642.542 80.4002 640.944 82.4665 638.751 83.8697L639.829 85.5543ZM645.474 77.944V71.176H643.474V77.944H645.474ZM644.474 70.176H632.666V72.176H644.474V70.176ZM632.666 70.176C628.604 70.176 625.382 70.8433 623.15 72.3224C620.845 73.8494 619.714 76.1621 619.714 79.096H621.714C621.714 76.7499 622.575 75.1026 624.255 73.9896C626.007 72.8287 628.761 72.176 632.666 72.176V70.176ZM619.714 79.096C619.714 81.7904 620.757 84.0041 622.831 85.6409L624.07 84.0711C622.495 82.8279 621.714 81.2016 621.714 79.096H619.714ZM622.831 85.6409C624.886 87.2632 627.626 88.016 630.938 88.016V86.016C627.914 86.016 625.663 85.3288 624.07 84.0711L622.831 85.6409ZM757.99 46.696V47.696H758.99V46.696H757.99ZM732.934 46.696V45.696H731.934V46.696H732.934ZM732.934 103V104H733.934V103H732.934ZM705.718 103H704.718V104H705.718V103ZM705.718 46.696H706.718V45.696H705.718V46.696ZM680.518 46.696H679.518V47.696H680.518V46.696ZM680.518 24.952V23.952H679.518V24.952H680.518ZM757.99 24.952H758.99V23.952H757.99V24.952ZM757.99 45.696H732.934V47.696H757.99V45.696ZM731.934 46.696V103H733.934V46.696H731.934ZM732.934 102H705.718V104H732.934V102ZM706.718 103V46.696H704.718V103H706.718ZM705.718 45.696H680.518V47.696H705.718V45.696ZM681.518 46.696V24.952H679.518V46.696H681.518ZM680.518 25.952H757.99V23.952H680.518V25.952ZM756.99 24.952V46.696H758.99V24.952H756.99ZM814.383 49.144L814.392 48.144H814.383V49.144ZM838.143 56.056L838.779 55.2845L838.143 56.056ZM836.847 95.8L837.464 96.5867L837.466 96.5855L836.847 95.8ZM810.927 103L810.936 102H810.927V103ZM768.591 103H767.591V104H768.591V103ZM768.591 24.952V23.952H767.591V24.952H768.591ZM795.807 24.952H796.807V23.952H795.807V24.952ZM795.807 49.144H794.807V50.144H795.807V49.144ZM808.191 84.28L808.179 85.28H808.191V84.28ZM815.967 68.152L815.327 68.9202L815.967 68.152ZM808.191 65.848L808.219 64.8484L808.205 64.848H808.191V65.848ZM795.807 65.848V64.848H794.807V65.848H795.807ZM795.807 84.136H794.807V85.1244L795.795 85.1359L795.807 84.136ZM814.374 50.144C824.615 50.2388 832.277 52.5152 837.507 56.8275L838.779 55.2845C833.065 50.5728 824.887 48.2412 814.392 48.144L814.374 50.144ZM837.507 56.8275C842.707 61.115 845.351 67.2396 845.351 75.352H847.351C847.351 66.7604 844.523 60.021 838.779 55.2845L837.507 56.8275ZM845.351 75.352C845.351 83.7107 842.304 90.2271 836.228 95.0145L837.466 96.5855C844.062 91.3889 847.351 84.2733 847.351 75.352H845.351ZM836.23 95.0133C830.227 99.7234 821.836 102.095 810.936 102L810.918 104C822.098 104.097 830.987 101.669 837.464 96.5867L836.23 95.0133ZM810.927 102H768.591V104H810.927V102ZM769.591 103V24.952H767.591V103H769.591ZM768.591 25.952H795.807V23.952H768.591V25.952ZM794.807 24.952V49.144H796.807V24.952H794.807ZM795.807 50.144H814.383V48.144H795.807V50.144ZM808.191 85.28C811.777 85.28 814.654 84.4728 816.637 82.6823C818.64 80.8742 819.559 78.222 819.559 74.92H817.559C817.559 77.858 816.75 79.8858 815.297 81.1977C813.824 82.5272 811.517 83.28 808.191 83.28V85.28ZM819.559 74.92C819.559 71.6658 818.639 69.0766 816.607 67.3838L815.327 68.9202C816.751 70.1074 817.559 72.0302 817.559 74.92H819.559ZM816.607 67.3838C814.636 65.741 811.785 64.9474 808.219 64.8484L808.163 66.8476C811.509 66.9406 813.842 67.683 815.327 68.9202L816.607 67.3838ZM808.191 64.848H795.807V66.848H808.191V64.848ZM794.807 65.848V84.136H796.807V65.848H794.807ZM795.795 85.1359L808.179 85.2799L808.203 83.2801L795.819 83.1361L795.795 85.1359ZM872.45 66.28H871.45V67.28H872.45V66.28ZM875.618 54.472L876.442 55.0385L876.446 55.0326L876.45 55.0267L875.618 54.472ZM884.834 44.104L885.514 44.8368L885.515 44.8359L884.834 44.104ZM891.026 37.624L891.815 38.2379L891.823 38.2277L891.831 38.2172L891.026 37.624ZM889.442 25.24L888.842 26.04L888.86 26.0539L888.88 26.0669L889.442 25.24ZM869.858 25.384L869.359 24.5173L869.347 24.5241L869.858 25.384ZM862.37 33.016L861.897 33.897L862.744 34.352L863.232 33.523L862.37 33.016ZM840.914 21.496L840.051 20.9906L839.526 21.8861L840.441 22.377L840.914 21.496ZM857.618 5.8L858.079 6.68721L857.618 5.8ZM911.186 7.384L910.615 8.20536L910.622 8.20988L910.629 8.21429L911.186 7.384ZM919.682 37.768L920.593 38.1796L920.598 38.1688L919.682 37.768ZM914.786 45.4L914.046 44.7273L914.044 44.7291L914.786 45.4ZM907.586 52.312L908.235 53.0729L908.243 53.0661L907.586 52.312ZM900.386 59.512L901.167 60.1367L901.174 60.1275L901.181 60.118L900.386 59.512ZM898.082 66.28V67.28H899.082V66.28H898.082ZM873.602 99.976L872.906 100.694L872.912 100.7L872.918 100.706L873.602 99.976ZM873.458 78.52L872.786 77.779L872.781 77.7843L872.775 77.7897L873.458 78.52ZM897.074 78.52L896.402 79.261L897.074 78.52ZM897.074 99.976L897.758 100.706L897.764 100.7L897.77 100.694L897.074 99.976ZM873.45 66.28C873.45 61.6244 874.473 57.9018 876.442 55.0385L874.794 53.9055C872.538 57.1862 871.45 61.3356 871.45 66.28H873.45ZM876.45 55.0267C878.504 51.9455 881.517 48.5489 885.514 44.8368L884.153 43.3712C880.087 47.1471 876.956 50.6624 874.786 53.9173L876.45 55.0267ZM885.515 44.8359C888.314 42.2299 890.423 40.0278 891.815 38.2379L890.237 37.0101C888.941 38.6762 886.921 40.7941 884.152 43.3721L885.515 44.8359ZM891.831 38.2172C893.285 36.2436 894.042 34.1196 894.042 31.864H892.042C892.042 33.6404 891.455 35.3564 890.221 37.0308L891.831 38.2172ZM894.042 31.864C894.042 28.7325 892.664 26.2218 890.004 24.4131L888.88 26.0669C891.02 27.5222 892.042 29.4275 892.042 31.864H894.042ZM890.042 24.44C887.519 22.5479 884.265 21.648 880.37 21.648V23.648C883.963 23.648 886.757 24.4761 888.842 26.04L890.042 24.44ZM880.37 21.648C876.364 21.648 872.686 22.6015 869.359 24.5174L870.357 26.2506C873.365 24.5185 876.696 23.648 880.37 23.648V21.648ZM869.347 24.5241C866.122 26.4394 863.508 29.1086 861.508 32.509L863.232 33.523C865.072 30.3954 867.45 27.9766 870.368 26.2439L869.347 24.5241ZM862.843 32.135L841.387 20.615L840.441 22.377L861.897 33.897L862.843 32.135ZM841.777 22.0014C845.613 15.451 851.039 10.3481 858.079 6.68721L857.156 4.91278C849.797 8.73985 844.086 14.101 840.051 20.9906L841.777 22.0014ZM858.079 6.68721C865.105 3.03376 873.627 1.18399 883.682 1.18399V-0.816006C873.385 -0.816006 864.531 1.07823 857.156 4.91278L858.079 6.68721ZM883.682 1.18399C894.973 1.18399 903.921 3.55661 910.615 8.20536L911.756 6.56263C904.626 1.61138 895.238 -0.816006 883.682 -0.816006V1.18399ZM910.629 8.21429C917.356 12.7298 920.698 19.0403 920.698 27.256H922.698C922.698 18.3837 919.032 11.4462 911.743 6.5537L910.629 8.21429ZM920.698 27.256C920.698 31.0777 920.046 34.4416 918.766 37.3672L920.598 38.1688C922.006 34.9504 922.698 31.3063 922.698 27.256H920.698ZM918.771 37.3564C917.464 40.2504 915.886 42.7031 914.046 44.7273L915.526 46.0727C917.526 43.8729 919.212 41.2375 920.593 38.1796L918.771 37.3564ZM914.044 44.7291C912.256 46.7059 909.887 48.9814 906.929 51.5579L908.243 53.0661C911.237 50.4586 913.668 48.1261 915.527 46.0709L914.044 44.7291ZM906.937 51.5512C903.65 54.3543 901.189 56.8077 899.59 58.906L901.181 60.118C902.655 58.1843 904.993 55.8377 908.235 53.0728L906.937 51.5512ZM899.605 58.8873C897.919 60.9947 897.082 63.4742 897.082 66.28H899.082C899.082 63.9018 899.781 61.8693 901.167 60.1367L899.605 58.8873ZM898.082 65.28H872.45V67.28H898.082V65.28ZM885.266 103.296C880.784 103.296 877.15 101.932 874.286 99.2465L872.918 100.706C876.198 103.78 880.34 105.296 885.266 105.296V103.296ZM874.298 99.2578C871.417 96.4675 869.994 93.1255 869.994 89.176H867.994C867.994 93.6745 869.642 97.5325 872.906 100.694L874.298 99.2578ZM869.994 89.176C869.994 85.1141 871.38 81.8328 874.141 79.2503L872.775 77.7897C869.583 80.7752 867.994 84.5979 867.994 89.176H869.994ZM874.129 79.261C876.989 76.6697 880.672 75.344 885.266 75.344V73.344C880.259 73.344 876.071 74.8023 872.786 77.779L874.129 79.261ZM885.266 75.344C889.859 75.344 893.543 76.6697 896.402 79.261L897.745 77.779C894.461 74.8023 890.272 73.344 885.266 73.344V75.344ZM896.402 79.261C899.255 81.8466 900.682 85.1248 900.682 89.176H902.682C902.682 84.5872 901.036 80.7614 897.745 77.779L896.402 79.261ZM900.682 89.176C900.682 93.1255 899.258 96.4675 896.378 99.2578L897.77 100.694C901.033 97.5325 902.682 93.6745 902.682 89.176H900.682ZM896.39 99.2465C893.529 101.928 889.85 103.296 885.266 103.296V105.296C890.282 105.296 894.474 103.784 897.758 100.706L896.39 99.2465Z" fill="#E3F0FB"/>
</svg>
