<svg width="1274" height="106" viewBox="0 0 1274 106" fill="none" xmlns="http://www.w3.org/2000/svg">
<path d="M27.8608 98.392L27.3854 99.2719L27.3975 99.2782L27.8608 98.392ZM8.13275 79.672L7.27617 80.188L8.13275 79.672ZM8.13275 25.528L7.27617 25.012L8.13275 25.528ZM27.8608 6.95199L28.3282 7.83603L28.3319 7.83407L27.8608 6.95199ZM81.2848 5.08L80.8808 5.99479L81.2848 5.08ZM99.7168 19.192L100.388 19.9335L101.084 19.3034L100.499 18.5688L99.7168 19.192ZM81.5728 35.608L80.803 36.2463L81.4695 37.05L82.2437 36.3495L81.5728 35.608ZM43.1247 27.4L42.6391 26.5258L42.6307 26.5305L43.1247 27.4ZM33.1888 37.624L32.3101 37.1465L32.3064 37.1534L33.1888 37.624ZM33.1888 67.72L32.3022 68.1826L32.3082 68.1942L32.3146 68.2056L33.1888 67.72ZM43.1247 77.8L42.6307 78.6695L42.6391 78.6742L43.1247 77.8ZM81.5728 69.592L82.2437 68.8505L81.4695 68.15L80.803 68.9537L81.5728 69.592ZM99.7168 86.008L100.499 86.6312L101.084 85.8966L100.388 85.2665L99.7168 86.008ZM81.2848 100.12L81.6887 101.035L81.2848 100.12ZM56.3727 104.016C45.9564 104.016 36.6141 101.839 28.324 97.5058L27.3975 99.2782C36.0034 103.777 45.6691 106.016 56.3727 106.016V104.016ZM28.3361 97.5122C20.138 93.0833 13.6951 86.9675 8.98933 79.156L7.27617 80.188C12.1704 88.3125 18.8795 94.6767 27.3854 99.2718L28.3361 97.5122ZM8.98933 79.156C4.29097 71.3567 1.93275 62.5139 1.93275 52.6H-0.0672498C-0.0672498 62.8461 2.37453 72.0513 7.27617 80.188L8.98933 79.156ZM1.93275 52.6C1.93275 42.6861 4.29097 33.8433 8.98933 26.044L7.27617 25.012C2.37453 33.1487 -0.0672498 42.3539 -0.0672498 52.6H1.93275ZM8.98933 26.044C13.694 18.2343 20.1343 12.1684 28.3282 7.83603L27.3933 6.06796C18.8832 10.5676 12.1715 16.8857 7.27617 25.012L8.98933 26.044ZM28.3319 7.83407C36.6205 3.4072 45.9599 1.18399 56.3727 1.18399V-0.816006C45.6656 -0.816006 35.9971 1.47278 27.3896 6.06992L28.3319 7.83407ZM56.3727 1.18399C65.4691 1.18399 73.6328 2.79435 80.8808 5.99479L81.6887 4.16521C74.1527 0.837646 65.7084 -0.816006 56.3727 -0.816006V1.18399ZM80.8808 5.99479C88.1295 9.19548 94.1423 13.8012 98.9347 19.8152L100.499 18.5688C95.4992 12.2948 89.224 7.49251 81.6887 4.16521L80.8808 5.99479ZM99.0458 18.4505L80.9018 34.8665L82.2437 36.3495L100.388 19.9335L99.0458 18.4505ZM82.3425 34.9697C75.6457 26.8941 67.454 22.8 57.8128 22.8V24.8C66.7955 24.8 74.4438 28.5779 80.803 36.2463L82.3425 34.9697ZM57.8128 22.8C52.1894 22.8 47.1231 24.0347 42.6391 26.5258L43.6104 28.2742C47.7664 25.9653 52.4921 24.8 57.8128 24.8V22.8ZM42.6307 26.5305C38.2387 29.026 34.796 32.5725 32.3101 37.1465L34.0674 38.1015C36.3815 33.8435 39.5628 30.574 43.6188 28.2694L42.6307 26.5305ZM32.3064 37.1534C29.9138 41.6395 28.7327 46.7978 28.7327 52.6H30.7327C30.7327 47.0742 31.8557 42.2485 34.0711 38.0946L32.3064 37.1534ZM28.7327 52.6C28.7327 58.4028 29.914 63.6052 32.3022 68.1826L34.0753 67.2574C31.8555 63.0028 30.7327 58.1252 30.7327 52.6H28.7327ZM32.3146 68.2056C34.8021 72.6831 38.2443 76.1772 42.6307 78.6695L43.6188 76.9305C39.5572 74.6228 36.3754 71.3969 34.0629 67.2344L32.3146 68.2056ZM42.6391 78.6742C47.1231 81.1653 52.1894 82.4 57.8128 82.4V80.4C52.4921 80.4 47.7664 79.2347 43.6104 76.9258L42.6391 78.6742ZM57.8128 82.4C67.454 82.4 75.6457 78.3059 82.3425 70.2303L80.803 68.9537C74.4438 76.6221 66.7955 80.4 57.8128 80.4V82.4ZM80.9018 70.3335L99.0458 86.7495L100.388 85.2665L82.2437 68.8505L80.9018 70.3335ZM98.9347 85.3848C94.1423 91.3988 88.1295 96.0045 80.8808 99.2052L81.6887 101.035C89.224 97.7075 95.4992 92.9052 100.499 86.6312L98.9347 85.3848ZM80.8808 99.2052C73.6328 102.406 65.4691 104.016 56.3727 104.016V106.016C65.7084 106.016 74.1527 104.362 81.6887 101.035L80.8808 99.2052ZM147.589 75.208L148.426 74.6613L148.13 74.208H147.589V75.208ZM138.373 75.208V74.208H137.373V75.208H138.373ZM138.373 103V104H139.373V103H138.373ZM111.013 103H110.013V104H111.013V103ZM111.013 24.952V23.952H110.013V24.952H111.013ZM138.373 24.952H139.373V23.952H138.373V24.952ZM138.373 53.752H137.373V54.752H138.373V53.752ZM148.165 53.752V54.752H148.701L148.998 54.3057L148.165 53.752ZM167.317 24.952V23.952H166.781L166.484 24.3983L167.317 24.952ZM196.261 24.952L197.08 25.5255L198.182 23.952H196.261V24.952ZM170.053 62.392L169.234 61.8185L168.836 62.387L169.229 62.9588L170.053 62.392ZM197.989 103V104H199.891L198.813 102.433L197.989 103ZM165.733 103L164.896 103.547L165.191 104H165.733V103ZM147.589 74.208H138.373V76.208H147.589V74.208ZM137.373 75.208V103H139.373V75.208H137.373ZM138.373 102H111.013V104H138.373V102ZM112.013 103V24.952H110.013V103H112.013ZM111.013 25.952H138.373V23.952H111.013V25.952ZM137.373 24.952V53.752H139.373V24.952H137.373ZM138.373 54.752H148.165V52.752H138.373V54.752ZM148.998 54.3057L168.15 25.5057L166.484 24.3983L147.332 53.1983L148.998 54.3057ZM167.317 25.952H196.261V23.952H167.317V25.952ZM195.442 24.3785L169.234 61.8185L170.872 62.9655L197.08 25.5255L195.442 24.3785ZM169.229 62.9588L197.165 103.567L198.813 102.433L170.877 61.8252L169.229 62.9588ZM197.989 102H165.733V104H197.989V102ZM166.57 102.453L148.426 74.6613L146.752 75.7547L164.896 103.547L166.57 102.453ZM220.65 99.112L221.107 98.2227L220.65 99.112ZM204.81 84.712L203.956 85.2324L203.962 85.242L204.81 84.712ZM204.81 43.096L203.962 42.566L203.956 42.5756L204.81 43.096ZM220.506 28.84L220.958 29.7318L220.963 29.7293L220.506 28.84ZM266.01 28.84L265.552 29.7293L265.563 29.7344L266.01 28.84ZM281.706 43.096L280.852 43.6164L280.855 43.6224L281.706 43.096ZM281.706 84.712L282.56 85.2324L281.706 84.712ZM266.01 99.112L265.552 98.2227L266.01 99.112ZM255.066 77.656L255.794 78.3414L255.799 78.3361L255.804 78.3308L255.066 77.656ZM255.066 50.296L255.794 49.6106L255.066 50.296ZM231.45 50.296L230.722 49.6106L231.45 50.296ZM231.45 77.656L230.712 78.3308L230.717 78.3361L230.722 78.3414L231.45 77.656ZM243.258 103.296C235.048 103.296 227.671 101.599 221.107 98.2227L220.192 100.001C227.068 103.537 234.764 105.296 243.258 105.296V103.296ZM221.107 98.2227C214.54 94.8454 209.398 90.1665 205.658 84.182L203.962 85.242C207.901 91.5455 213.319 96.4666 220.192 100.001L221.107 98.2227ZM205.664 84.1916C202.023 78.217 200.194 71.4398 200.194 63.832H198.194C198.194 71.7762 200.109 78.919 203.956 85.2324L205.664 84.1916ZM200.194 63.832C200.194 56.3227 202.022 49.593 205.664 43.6164L203.956 42.5756C200.11 48.887 198.194 55.9813 198.194 63.832H200.194ZM205.658 43.626C209.399 37.6404 214.492 33.0117 220.958 29.7318L220.053 27.9482C213.271 31.3883 207.901 36.2636 203.962 42.566L205.658 43.626ZM220.963 29.7293C227.526 26.3543 234.95 24.656 243.258 24.656V22.656C234.67 22.656 226.926 24.4137 220.048 27.9507L220.963 29.7293ZM243.258 24.656C251.566 24.656 258.99 26.3543 265.552 29.7293L266.467 27.9507C259.59 24.4137 251.846 22.656 243.258 22.656V24.656ZM265.563 29.7344C272.122 33.0143 277.21 37.6401 280.852 43.6164L282.56 42.5756C278.714 36.2639 273.337 31.3857 266.457 27.9456L265.563 29.7344ZM280.855 43.6224C284.493 49.4976 286.322 56.224 286.322 63.832H288.322C288.322 55.888 286.407 48.7904 282.556 42.5696L280.855 43.6224ZM286.322 63.832C286.322 71.4398 284.493 78.217 280.852 84.1916L282.56 85.2324C286.407 78.919 288.322 71.7762 288.322 63.832H286.322ZM280.852 84.1916C277.208 90.1705 272.117 94.8464 265.552 98.2227L266.467 100.001C273.342 96.4656 278.715 91.5415 282.56 85.2324L280.852 84.1916ZM265.552 98.2227C258.99 101.598 251.566 103.296 243.258 103.296V105.296C251.846 105.296 259.59 103.538 266.467 100.001L265.552 98.2227ZM243.258 83.552C248.312 83.552 252.518 81.8215 255.794 78.3414L254.338 76.9706C251.469 80.0185 247.804 81.552 243.258 81.552V83.552ZM255.804 78.3308C259.088 74.7384 260.674 69.8639 260.674 63.832H258.674C258.674 69.512 257.187 73.8536 254.328 76.9812L255.804 78.3308ZM260.674 63.832C260.674 57.8926 259.086 53.1085 255.794 49.6106L254.338 50.9814C257.189 54.0115 258.674 58.2514 258.674 63.832H260.674ZM255.794 49.6106C252.518 46.1305 248.312 44.4 243.258 44.4V46.4C247.804 46.4 251.469 47.9335 254.338 50.9814L255.794 49.6106ZM243.258 44.4C238.204 44.4 233.997 46.1305 230.722 49.6106L232.178 50.9814C235.047 47.9335 238.712 46.4 243.258 46.4V44.4ZM230.722 49.6106C227.429 53.1085 225.842 57.8926 225.842 63.832H227.842C227.842 58.2514 229.326 54.0115 232.178 50.9814L230.722 49.6106ZM225.842 63.832C225.842 69.8639 227.427 74.7384 230.712 78.3308L232.188 76.9812C229.328 73.8536 227.842 69.512 227.842 63.832H225.842ZM230.722 78.3414C233.997 81.8215 238.204 83.552 243.258 83.552V81.552C238.712 81.552 235.047 80.0185 232.178 76.9706L230.722 78.3414ZM378.235 24.952H379.235V23.952H378.235V24.952ZM378.235 103V104H379.235V103H378.235ZM350.875 103H349.875V104H350.875V103ZM350.875 46.696H351.875V45.696H350.875V46.696ZM331.147 46.696V45.696H330.194L330.148 46.6479L331.147 46.696ZM330.571 58.648L329.572 58.5999L329.572 58.6103L330.571 58.648ZM327.547 83.848L326.576 83.6088L327.547 83.848ZM319.483 99.4L320.181 100.116L320.19 100.107L319.483 99.4ZM290.827 103L289.829 102.948L289.785 103.788L290.605 103.975L290.827 103ZM291.979 80.68L292.09 79.6861L291.035 79.569L290.981 80.6285L291.979 80.68ZM302.203 78.088L302.984 78.7127L302.203 78.088ZM305.371 70.456L306.355 70.6349L306.356 70.6298L305.371 70.456ZM306.523 57.496L307.523 57.5317V57.5314L306.523 57.496ZM307.675 24.952V23.952H306.71L306.676 24.9166L307.675 24.952ZM377.235 24.952V103H379.235V24.952H377.235ZM378.235 102H350.875V104H378.235V102ZM351.875 103V46.696H349.875V103H351.875ZM350.875 45.696H331.147V47.696H350.875V45.696ZM330.148 46.6479L329.572 58.5999L331.57 58.6961L332.146 46.7441L330.148 46.6479ZM329.572 58.6103C329.189 68.7481 328.186 77.0745 326.576 83.6088L328.518 84.0872C330.172 77.3735 331.185 68.8999 331.571 58.6857L329.572 58.6103ZM326.576 83.6088C324.976 90.1059 322.359 95.1101 318.776 98.6929L320.19 100.107C324.096 96.2019 326.855 90.8382 328.518 84.0872L326.576 83.6088ZM318.785 98.6838C315.272 102.107 310.411 103.872 304.075 103.872V105.872C310.796 105.872 316.207 103.989 320.181 100.116L318.785 98.6838ZM304.075 103.872C300.823 103.872 296.49 103.266 291.05 102.025L290.605 103.975C296.108 105.23 300.607 105.872 304.075 105.872V103.872ZM291.826 103.052L292.978 80.7315L290.981 80.6285L289.829 102.948L291.826 103.052ZM291.869 81.6739C293.587 81.8648 294.795 81.968 295.435 81.968V79.968C294.924 79.968 293.827 79.8792 292.09 79.6861L291.869 81.6739ZM295.435 81.968C298.644 81.968 301.218 80.9202 302.984 78.7127L301.422 77.4633C300.116 79.0958 298.178 79.968 295.435 79.968V81.968ZM302.984 78.7127C304.651 76.6293 305.758 73.9172 306.355 70.6349L304.387 70.2771C303.832 73.3308 302.828 75.7067 301.422 77.4633L302.984 78.7127ZM306.356 70.6298C306.943 67.301 307.33 62.9293 307.523 57.5317L305.524 57.4603C305.333 62.8147 304.951 67.083 304.386 70.2822L306.356 70.6298ZM307.523 57.5314L308.675 24.9874L306.676 24.9166L305.524 57.4606L307.523 57.5314ZM307.675 25.952H378.235V23.952H307.675V25.952ZM442.414 49.144L442.424 48.144H442.414V49.144ZM466.174 56.056L466.81 55.2845L466.174 56.056ZM464.878 95.8L465.496 96.5867L465.497 96.5855L464.878 95.8ZM438.958 103L438.967 102H438.958V103ZM396.622 103H395.622V104H396.622V103ZM396.622 24.952V23.952H395.622V24.952H396.622ZM423.838 24.952H424.838V23.952H423.838V24.952ZM423.838 49.144H422.838V50.144H423.838V49.144ZM436.222 84.28L436.211 85.28H436.222V84.28ZM443.998 68.152L443.358 68.9202L443.998 68.152ZM436.222 65.848L436.25 64.8484L436.236 64.848H436.222V65.848ZM423.838 65.848V64.848H422.838V65.848H423.838ZM423.838 84.136H422.838V85.1244L423.827 85.1359L423.838 84.136ZM442.405 50.144C452.647 50.2388 460.308 52.5152 465.538 56.8275L466.81 55.2845C461.096 50.5728 452.918 48.2412 442.424 48.144L442.405 50.144ZM465.538 56.8275C470.738 61.115 473.382 67.2396 473.382 75.352H475.382C475.382 66.7604 472.555 60.021 466.81 55.2845L465.538 56.8275ZM473.382 75.352C473.382 83.7107 470.336 90.2271 464.259 95.0145L465.497 96.5855C472.093 91.3889 475.382 84.2733 475.382 75.352H473.382ZM464.261 95.0133C458.258 99.7234 449.868 102.095 438.967 102L438.95 104C450.129 104.097 459.019 101.669 465.496 96.5867L464.261 95.0133ZM438.958 102H396.622V104H438.958V102ZM397.622 103V24.952H395.622V103H397.622ZM396.622 25.952H423.838V23.952H396.622V25.952ZM422.838 24.952V49.144H424.838V24.952H422.838ZM423.838 50.144H442.414V48.144H423.838V50.144ZM436.222 85.28C439.809 85.28 442.685 84.4728 444.668 82.6823C446.671 80.8742 447.59 78.222 447.59 74.92H445.59C445.59 77.858 444.781 79.8858 443.328 81.1977C441.855 82.5272 439.548 83.28 436.222 83.28V85.28ZM447.59 74.92C447.59 71.6658 446.67 69.0766 444.638 67.3838L443.358 68.9202C444.783 70.1074 445.59 72.0302 445.59 74.92H447.59ZM444.638 67.3838C442.667 65.741 439.816 64.9474 436.25 64.8484L436.194 66.8476C439.54 66.9406 441.873 67.683 443.358 68.9202L444.638 67.3838ZM436.222 64.848H423.838V66.848H436.222V64.848ZM422.838 65.848V84.136H424.838V65.848H422.838ZM423.827 85.1359L436.211 85.2799L436.234 83.2801L423.85 83.1361L423.827 85.1359ZM522.636 75.208L523.473 74.6613L523.177 74.208H522.636V75.208ZM513.42 75.208V74.208H512.42V75.208H513.42ZM513.42 103V104H514.42V103H513.42ZM486.06 103H485.06V104H486.06V103ZM486.06 24.952V23.952H485.06V24.952H486.06ZM513.42 24.952H514.42V23.952H513.42V24.952ZM513.42 53.752H512.42V54.752H513.42V53.752ZM523.212 53.752V54.752H523.748L524.044 54.3057L523.212 53.752ZM542.364 24.952V23.952H541.828L541.531 24.3983L542.364 24.952ZM571.308 24.952L572.127 25.5255L573.228 23.952H571.308V24.952ZM545.1 62.392L544.281 61.8185L543.883 62.387L544.276 62.9588L545.1 62.392ZM573.036 103V104H574.938L573.86 102.433L573.036 103ZM540.78 103L539.942 103.547L540.238 104H540.78V103ZM522.636 74.208H513.42V76.208H522.636V74.208ZM512.42 75.208V103H514.42V75.208H512.42ZM513.42 102H486.06V104H513.42V102ZM487.06 103V24.952H485.06V103H487.06ZM486.06 25.952H513.42V23.952H486.06V25.952ZM512.42 24.952V53.752H514.42V24.952H512.42ZM513.42 54.752H523.212V52.752H513.42V54.752ZM524.044 54.3057L543.196 25.5057L541.531 24.3983L522.379 53.1983L524.044 54.3057ZM542.364 25.952H571.308V23.952H542.364V25.952ZM570.489 24.3785L544.281 61.8185L545.919 62.9655L572.127 25.5255L570.489 24.3785ZM544.276 62.9588L572.212 103.567L573.86 102.433L545.924 61.8252L544.276 62.9588ZM573.036 102H540.78V104H573.036V102ZM541.617 102.453L523.473 74.6613L521.798 75.7547L539.942 103.547L541.617 102.453ZM595.697 99.112L596.154 98.2227L595.697 99.112ZM579.857 84.712L579.003 85.2324L579.009 85.242L579.857 84.712ZM579.857 43.096L579.009 42.566L579.003 42.5756L579.857 43.096ZM595.553 28.84L596.005 29.7318L596.01 29.7293L595.553 28.84ZM641.057 28.84L640.599 29.7293L640.609 29.7344L641.057 28.84ZM656.753 43.096L655.899 43.6164L655.902 43.6224L656.753 43.096ZM656.753 84.712L657.607 85.2324L656.753 84.712ZM641.057 99.112L640.599 98.2227L641.057 99.112ZM630.113 77.656L630.841 78.3414L630.846 78.3361L630.851 78.3308L630.113 77.656ZM630.113 50.296L630.841 49.6106L630.113 50.296ZM606.497 50.296L605.768 49.6106L606.497 50.296ZM606.497 77.656L605.759 78.3308L605.763 78.3361L605.768 78.3414L606.497 77.656ZM618.305 103.296C610.095 103.296 602.718 101.599 596.154 98.2227L595.239 100.001C602.115 103.537 609.811 105.296 618.305 105.296V103.296ZM596.154 98.2227C589.587 94.8454 584.445 90.1665 580.705 84.182L579.009 85.242C582.948 91.5455 588.366 96.4666 595.239 100.001L596.154 98.2227ZM580.711 84.1916C577.07 78.217 575.241 71.4398 575.241 63.832H573.241C573.241 71.7762 575.155 78.919 579.003 85.2324L580.711 84.1916ZM575.241 63.832C575.241 56.3227 577.069 49.593 580.711 43.6164L579.003 42.5756C575.157 48.887 573.241 55.9813 573.241 63.832H575.241ZM580.705 43.626C584.446 37.6404 589.539 33.0117 596.005 29.7318L595.1 27.9482C588.318 31.3883 582.948 36.2636 579.009 42.566L580.705 43.626ZM596.01 29.7293C602.573 26.3543 609.997 24.656 618.305 24.656V22.656C609.717 22.656 601.973 24.4137 595.095 27.9507L596.01 29.7293ZM618.305 24.656C626.613 24.656 634.037 26.3543 640.599 29.7293L641.514 27.9507C634.637 24.4137 626.893 22.656 618.305 22.656V24.656ZM640.609 29.7344C647.169 33.0143 652.257 37.6401 655.899 43.6164L657.607 42.5756C653.76 36.2639 648.384 31.3857 641.504 27.9456L640.609 29.7344ZM655.902 43.6224C659.539 49.4976 661.369 56.224 661.369 63.832H663.369C663.369 55.888 661.454 48.7904 657.603 42.5696L655.902 43.6224ZM661.369 63.832C661.369 71.4398 659.539 78.217 655.899 84.1916L657.607 85.2324C661.454 78.919 663.369 71.7762 663.369 63.832H661.369ZM655.899 84.1916C652.255 90.1705 647.164 94.8464 640.599 98.2227L641.514 100.001C648.389 96.4656 653.762 91.5415 657.607 85.2324L655.899 84.1916ZM640.599 98.2227C634.037 101.598 626.613 103.296 618.305 103.296V105.296C626.893 105.296 634.637 103.538 641.514 100.001L640.599 98.2227ZM618.305 83.552C623.359 83.552 627.565 81.8215 630.841 78.3414L629.384 76.9706C626.516 80.0185 622.851 81.552 618.305 81.552V83.552ZM630.851 78.3308C634.135 74.7384 635.721 69.8639 635.721 63.832H633.721C633.721 69.512 632.234 73.8536 629.375 76.9812L630.851 78.3308ZM635.721 63.832C635.721 57.8926 634.133 53.1085 630.841 49.6106L629.384 50.9814C632.236 54.0115 633.721 58.2514 633.721 63.832H635.721ZM630.841 49.6106C627.565 46.1305 623.359 44.4 618.305 44.4V46.4C622.851 46.4 626.516 47.9335 629.384 50.9814L630.841 49.6106ZM618.305 44.4C613.251 44.4 609.044 46.1305 605.768 49.6106L607.225 50.9814C610.093 47.9335 613.758 46.4 618.305 46.4V44.4ZM605.768 49.6106C602.476 53.1085 600.889 57.8926 600.889 63.832H602.889C602.889 58.2514 604.373 54.0115 607.225 50.9814L605.768 49.6106ZM600.889 63.832C600.889 69.8639 602.474 74.7384 605.759 78.3308L607.235 76.9812C604.375 73.8536 602.889 69.512 602.889 63.832H600.889ZM605.768 78.3414C609.044 81.8215 613.251 83.552 618.305 83.552V81.552C613.758 81.552 610.093 80.0185 607.225 76.9706L605.768 78.3414ZM774.997 99.112L775.449 98.2201L774.997 99.112ZM759.013 84.712L758.159 85.2324L758.165 85.242L759.013 84.712ZM759.013 43.096L758.165 42.566L758.163 42.5696L759.013 43.096ZM774.997 28.84L775.439 29.737L775.449 29.7319L774.997 28.84ZM821.077 29.416L820.564 30.2747L820.574 30.2802L821.077 29.416ZM834.757 45.112L835.211 46.0028L836.024 45.588L835.685 44.7406L834.757 45.112ZM813.589 55.912L812.697 56.3641L813.15 57.2584L814.043 56.8028L813.589 55.912ZM785.797 50.296L785.09 49.5889L785.084 49.5942L785.079 49.5995L785.797 50.296ZM785.797 77.656L785.069 78.342L785.079 78.3527L785.09 78.3631L785.797 77.656ZM813.589 72.04L814.043 71.1492L813.15 70.6936L812.697 71.5879L813.589 72.04ZM834.757 82.84L835.685 83.2114L836.024 82.364L835.211 81.9492L834.757 82.84ZM821.077 98.68L821.58 99.5443L821.589 99.5386L821.077 98.68ZM798.181 103.296C789.677 103.296 782.108 101.596 775.449 98.2201L774.545 100.004C781.518 103.54 789.404 105.296 798.181 105.296V103.296ZM775.449 98.2201C768.786 94.8418 763.599 90.163 759.861 84.182L758.165 85.242C762.107 91.549 767.576 96.4703 774.545 100.004L775.449 98.2201ZM759.867 84.1916C756.226 78.217 754.397 71.4398 754.397 63.832H752.397C752.397 71.7762 754.312 78.919 758.159 85.2324L759.867 84.1916ZM754.397 63.832C754.397 56.224 756.226 49.4976 759.863 43.6224L758.163 42.5696C754.312 48.7904 752.397 55.888 752.397 63.832H754.397ZM759.861 43.626C763.597 37.6475 768.781 33.0189 775.439 29.7369L774.555 27.9431C767.581 31.3811 762.108 36.2565 758.165 42.566L759.861 43.626ZM775.449 29.7319C782.108 26.3558 789.677 24.656 798.181 24.656V22.656C789.404 22.656 781.518 24.4122 774.545 27.9481L775.449 29.7319ZM798.181 24.656C806.865 24.656 814.313 26.5425 820.564 30.2746L821.589 28.5574C814.977 24.6095 807.161 22.656 798.181 22.656V24.656ZM820.574 30.2802C826.819 33.9154 831.226 38.9768 833.828 45.4834L835.685 44.7406C832.912 37.8072 828.199 32.4046 821.58 28.5518L820.574 30.2802ZM834.302 44.2212L813.134 55.0212L814.043 56.8028L835.211 46.0028L834.302 44.2212ZM814.481 55.4599C812.647 51.8424 810.361 49.0681 807.597 47.1995C804.825 45.3257 801.626 44.4 798.037 44.4V46.4C801.264 46.4 804.065 47.2263 806.477 48.8565C808.896 50.4919 810.978 52.9736 812.697 56.3641L814.481 55.4599ZM798.037 44.4C792.893 44.4 788.554 46.1251 785.09 49.5889L786.504 51.0031C789.568 47.9389 793.388 46.4 798.037 46.4V44.4ZM785.079 49.5995C781.685 53.0964 780.045 57.8845 780.045 63.832H782.045C782.045 58.2595 783.572 54.0236 786.514 50.9925L785.079 49.5995ZM780.045 63.832C780.045 69.8718 781.683 74.7504 785.069 78.342L786.524 76.97C783.575 73.8416 782.045 69.5042 782.045 63.832H780.045ZM785.09 78.3631C788.554 81.8269 792.893 83.552 798.037 83.552V81.552C793.388 81.552 789.568 80.0131 786.504 76.9489L785.09 78.3631ZM798.037 83.552C801.626 83.552 804.825 82.6263 807.597 80.7525C810.361 78.8839 812.647 76.1096 814.481 72.4921L812.697 71.5879C810.978 74.9784 808.896 77.4601 806.477 79.0955C804.065 80.7257 801.264 81.552 798.037 81.552V83.552ZM813.134 72.9308L834.302 83.7308L835.211 81.9492L814.043 71.1492L813.134 72.9308ZM833.828 82.4686C831.225 88.9775 826.815 94.0896 820.564 97.8214L821.589 99.5386C828.203 95.5904 832.913 90.1425 835.685 83.2114L833.828 82.4686ZM820.574 97.8158C814.321 101.456 806.869 103.296 798.181 103.296V105.296C807.156 105.296 814.969 103.392 821.58 99.5443L820.574 97.8158ZM916.178 46.696V47.696H917.178V46.696H916.178ZM891.122 46.696V45.696H890.122V46.696H891.122ZM891.122 103V104H892.122V103H891.122ZM863.906 103H862.906V104H863.906V103ZM863.906 46.696H864.906V45.696H863.906V46.696ZM838.706 46.696H837.706V47.696H838.706V46.696ZM838.706 24.952V23.952H837.706V24.952H838.706ZM916.178 24.952H917.178V23.952H916.178V24.952ZM916.178 45.696H891.122V47.696H916.178V45.696ZM890.122 46.696V103H892.122V46.696H890.122ZM891.122 102H863.906V104H891.122V102ZM864.906 103V46.696H862.906V103H864.906ZM863.906 45.696H838.706V47.696H863.906V45.696ZM839.706 46.696V24.952H837.706V46.696H839.706ZM838.706 25.952H916.178V23.952H838.706V25.952ZM915.178 24.952V46.696H917.178V24.952H915.178ZM939.525 99.112L939.982 98.2227L939.525 99.112ZM923.685 84.712L922.831 85.2324L922.837 85.242L923.685 84.712ZM923.685 43.096L922.837 42.566L922.831 42.5756L923.685 43.096ZM939.381 28.84L939.833 29.7318L939.838 29.7293L939.381 28.84ZM984.885 28.84L984.427 29.7293L984.438 29.7344L984.885 28.84ZM1000.58 43.096L999.727 43.6164L999.73 43.6224L1000.58 43.096ZM1000.58 84.712L1001.43 85.2324L1000.58 84.712ZM984.885 99.112L984.427 98.2227L984.885 99.112ZM973.941 77.656L974.669 78.3414L974.674 78.3361L974.679 78.3308L973.941 77.656ZM973.941 50.296L974.669 49.6106L973.941 50.296ZM950.325 50.296L949.597 49.6106L950.325 50.296ZM950.325 77.656L949.587 78.3308L949.592 78.3361L949.597 78.3414L950.325 77.656ZM962.133 103.296C953.923 103.296 946.546 101.599 939.982 98.2227L939.067 100.001C945.943 103.537 953.639 105.296 962.133 105.296V103.296ZM939.982 98.2227C933.415 94.8454 928.273 90.1665 924.533 84.182L922.837 85.242C926.776 91.5455 932.194 96.4666 939.067 100.001L939.982 98.2227ZM924.539 84.1916C920.898 78.217 919.069 71.4398 919.069 63.832H917.069C917.069 71.7762 918.984 78.919 922.831 85.2324L924.539 84.1916ZM919.069 63.832C919.069 56.3227 920.897 49.593 924.539 43.6164L922.831 42.5756C918.985 48.887 917.069 55.9813 917.069 63.832H919.069ZM924.533 43.626C928.274 37.6404 933.367 33.0117 939.833 29.7318L938.928 27.9482C932.146 31.3883 926.776 36.2636 922.837 42.566L924.533 43.626ZM939.838 29.7293C946.401 26.3543 953.825 24.656 962.133 24.656V22.656C953.545 22.656 945.801 24.4137 938.923 27.9507L939.838 29.7293ZM962.133 24.656C970.441 24.656 977.865 26.3543 984.427 29.7293L985.342 27.9507C978.465 24.4137 970.721 22.656 962.133 22.656V24.656ZM984.438 29.7344C990.997 33.0143 996.085 37.6401 999.727 43.6164L1001.43 42.5756C997.589 36.2639 992.212 31.3857 985.332 27.9456L984.438 29.7344ZM999.73 43.6224C1003.37 49.4976 1005.2 56.224 1005.2 63.832H1007.2C1007.2 55.888 1005.28 48.7904 1001.43 42.5696L999.73 43.6224ZM1005.2 63.832C1005.2 71.4398 1003.37 78.217 999.727 84.1916L1001.43 85.2324C1005.28 78.919 1007.2 71.7762 1007.2 63.832H1005.2ZM999.727 84.1916C996.083 90.1705 990.992 94.8464 984.427 98.2227L985.342 100.001C992.217 96.4656 997.59 91.5415 1001.43 85.2324L999.727 84.1916ZM984.427 98.2227C977.865 101.598 970.441 103.296 962.133 103.296V105.296C970.721 105.296 978.465 103.538 985.342 100.001L984.427 98.2227ZM962.133 83.552C967.187 83.552 971.393 81.8215 974.669 78.3414L973.213 76.9706C970.344 80.0185 966.679 81.552 962.133 81.552V83.552ZM974.679 78.3308C977.963 74.7384 979.549 69.8639 979.549 63.832H977.549C977.549 69.512 976.062 73.8536 973.203 76.9812L974.679 78.3308ZM979.549 63.832C979.549 57.8926 977.961 53.1085 974.669 49.6106L973.213 50.9814C976.064 54.0115 977.549 58.2514 977.549 63.832H979.549ZM974.669 49.6106C971.393 46.1305 967.187 44.4 962.133 44.4V46.4C966.679 46.4 970.344 47.9335 973.213 50.9814L974.669 49.6106ZM962.133 44.4C957.079 44.4 952.872 46.1305 949.597 49.6106L951.053 50.9814C953.922 47.9335 957.587 46.4 962.133 46.4V44.4ZM949.597 49.6106C946.304 53.1085 944.717 57.8926 944.717 63.832H946.717C946.717 58.2514 948.201 54.0115 951.053 50.9814L949.597 49.6106ZM944.717 63.832C944.717 69.8639 946.302 74.7384 949.587 78.3308L951.063 76.9812C948.203 73.8536 946.717 69.512 946.717 63.832H944.717ZM949.597 78.3414C952.872 81.8215 957.079 83.552 962.133 83.552V81.552C957.587 81.552 953.922 80.0185 951.053 76.9706L949.597 78.3414ZM1019.03 24.952V23.952H1018.03V24.952H1019.03ZM1046.24 24.952H1047.24V23.952H1046.24V24.952ZM1046.24 65.848H1045.24V68.7007L1047.03 66.4724L1046.24 65.848ZM1078.93 24.952V23.952H1078.45L1078.15 24.3276L1078.93 24.952ZM1104.13 24.952H1105.13V23.952H1104.13V24.952ZM1104.13 103V104H1105.13V103H1104.13ZM1076.77 103H1075.77V104H1076.77V103ZM1076.77 61.96H1077.77V59.0795L1075.99 61.3404L1076.77 61.96ZM1044.37 103V104H1044.86L1045.16 103.62L1044.37 103ZM1019.03 103H1018.03V104H1019.03V103ZM1019.03 25.952H1046.24V23.952H1019.03V25.952ZM1045.24 24.952V65.848H1047.24V24.952H1045.24ZM1047.03 66.4724L1079.71 25.5764L1078.15 24.3276L1045.46 65.2236L1047.03 66.4724ZM1078.93 25.952H1104.13V23.952H1078.93V25.952ZM1103.13 24.952V103H1105.13V24.952H1103.13ZM1104.13 102H1076.77V104H1104.13V102ZM1077.77 103V61.96H1075.77V103H1077.77ZM1075.99 61.3404L1043.59 102.38L1045.16 103.62L1077.56 62.5796L1075.99 61.3404ZM1044.37 102H1019.03V104H1044.37V102ZM1020.03 103V24.952H1018.03V103H1020.03ZM1192.22 46.696V47.696H1193.22V46.696H1192.22ZM1167.17 46.696V45.696H1166.17V46.696H1167.17ZM1167.17 103V104H1168.17V103H1167.17ZM1139.95 103H1138.95V104H1139.95V103ZM1139.95 46.696H1140.95V45.696H1139.95V46.696ZM1114.75 46.696H1113.75V47.696H1114.75V46.696ZM1114.75 24.952V23.952H1113.75V24.952H1114.75ZM1192.22 24.952H1193.22V23.952H1192.22V24.952ZM1192.22 45.696H1167.17V47.696H1192.22V45.696ZM1166.17 46.696V103H1168.17V46.696H1166.17ZM1167.17 102H1139.95V104H1167.17V102ZM1140.95 103V46.696H1138.95V103H1140.95ZM1139.95 45.696H1114.75V47.696H1139.95V45.696ZM1115.75 46.696V24.952H1113.75V46.696H1115.75ZM1114.75 25.952H1192.22V23.952H1114.75V25.952ZM1191.22 24.952V46.696H1193.22V24.952H1191.22ZM1224.14 66.28H1223.14V67.28H1224.14V66.28ZM1227.31 54.472L1228.13 55.0385L1228.13 55.0326L1228.14 55.0267L1227.31 54.472ZM1236.52 44.104L1237.2 44.8368L1237.2 44.8359L1236.52 44.104ZM1242.71 37.624L1243.5 38.2379L1243.51 38.2277L1243.52 38.2172L1242.71 37.624ZM1241.13 25.24L1240.53 26.04L1240.55 26.0539L1240.57 26.0669L1241.13 25.24ZM1221.55 25.384L1221.05 24.5173L1221.03 24.5241L1221.55 25.384ZM1214.06 33.016L1213.58 33.897L1214.43 34.352L1214.92 33.523L1214.06 33.016ZM1192.6 21.496L1191.74 20.9906L1191.21 21.8861L1192.13 22.377L1192.6 21.496ZM1209.31 5.8L1209.77 6.68721L1209.31 5.8ZM1262.87 7.384L1262.3 8.20536L1262.31 8.20988L1262.32 8.21429L1262.87 7.384ZM1271.37 37.768L1272.28 38.1796L1272.29 38.1688L1271.37 37.768ZM1266.47 45.4L1265.73 44.7273L1265.73 44.7291L1266.47 45.4ZM1259.27 52.312L1259.92 53.0729L1259.93 53.0661L1259.27 52.312ZM1252.07 59.512L1252.85 60.1367L1252.86 60.1275L1252.87 60.118L1252.07 59.512ZM1249.77 66.28V67.28H1250.77V66.28H1249.77ZM1225.29 99.976L1224.59 100.694L1224.6 100.7L1224.61 100.706L1225.29 99.976ZM1225.15 78.52L1224.47 77.779L1224.47 77.7843L1224.46 77.7897L1225.15 78.52ZM1248.76 78.52L1248.09 79.261L1248.76 78.52ZM1248.76 99.976L1249.45 100.706L1249.45 100.7L1249.46 100.694L1248.76 99.976ZM1225.14 66.28C1225.14 61.6244 1226.16 57.9018 1228.13 55.0385L1226.48 53.9055C1224.23 57.1862 1223.14 61.3356 1223.14 66.28H1225.14ZM1228.14 55.0267C1230.19 51.9455 1233.2 48.5489 1237.2 44.8368L1235.84 43.3712C1231.77 47.1471 1228.64 50.6624 1226.47 53.9173L1228.14 55.0267ZM1237.2 44.8359C1240 42.2299 1242.11 40.0278 1243.5 38.2379L1241.92 37.0101C1240.63 38.6762 1238.61 40.7941 1235.84 43.3721L1237.2 44.8359ZM1243.52 38.2172C1244.97 36.2436 1245.73 34.1196 1245.73 31.864H1243.73C1243.73 33.6404 1243.14 35.3564 1241.91 37.0308L1243.52 38.2172ZM1245.73 31.864C1245.73 28.7325 1244.35 26.2218 1241.69 24.4131L1240.57 26.0669C1242.71 27.5222 1243.73 29.4275 1243.73 31.864H1245.73ZM1241.73 24.44C1239.21 22.5479 1235.95 21.648 1232.06 21.648V23.648C1235.65 23.648 1238.44 24.4761 1240.53 26.04L1241.73 24.44ZM1232.06 21.648C1228.05 21.648 1224.37 22.6015 1221.05 24.5174L1222.04 26.2506C1225.05 24.5185 1228.38 23.648 1232.06 23.648V21.648ZM1221.03 24.5241C1217.81 26.4394 1215.2 29.1086 1213.2 32.509L1214.92 33.523C1216.76 30.3954 1219.14 27.9766 1222.06 26.2439L1221.03 24.5241ZM1214.53 32.135L1193.07 20.615L1192.13 22.377L1213.58 33.897L1214.53 32.135ZM1193.46 22.0014C1197.3 15.451 1202.73 10.3481 1209.77 6.68721L1208.84 4.91278C1201.48 8.73985 1195.77 14.101 1191.74 20.9906L1193.46 22.0014ZM1209.77 6.68721C1216.79 3.03376 1225.31 1.18399 1235.37 1.18399V-0.816006C1225.07 -0.816006 1216.22 1.07823 1208.84 4.91278L1209.77 6.68721ZM1235.37 1.18399C1246.66 1.18399 1255.61 3.55661 1262.3 8.20536L1263.44 6.56263C1256.31 1.61138 1246.93 -0.816006 1235.37 -0.816006V1.18399ZM1262.32 8.21429C1269.04 12.7298 1272.39 19.0403 1272.39 27.256H1274.39C1274.39 18.3837 1270.72 11.4462 1263.43 6.5537L1262.32 8.21429ZM1272.39 27.256C1272.39 31.0777 1271.73 34.4416 1270.45 37.3672L1272.29 38.1688C1273.69 34.9504 1274.39 31.3063 1274.39 27.256H1272.39ZM1270.46 37.3564C1269.15 40.2504 1267.57 42.7031 1265.73 44.7273L1267.21 46.0727C1269.21 43.8729 1270.9 41.2375 1272.28 38.1796L1270.46 37.3564ZM1265.73 44.7291C1263.94 46.7059 1261.57 48.9814 1258.62 51.5579L1259.93 53.0661C1262.92 50.4586 1265.36 48.1261 1267.21 46.0709L1265.73 44.7291ZM1258.62 51.5512C1255.34 54.3543 1252.88 56.8077 1251.28 58.906L1252.87 60.118C1254.34 58.1843 1256.68 55.8377 1259.92 53.0728L1258.62 51.5512ZM1251.29 58.8873C1249.61 60.9947 1248.77 63.4742 1248.77 66.28H1250.77C1250.77 63.9018 1251.47 61.8693 1252.85 60.1367L1251.29 58.8873ZM1249.77 65.28H1224.14V67.28H1249.77V65.28ZM1236.95 103.296C1232.47 103.296 1228.84 101.932 1225.97 99.2465L1224.61 100.706C1227.89 103.78 1232.03 105.296 1236.95 105.296V103.296ZM1225.99 99.2578C1223.1 96.4675 1221.68 93.1255 1221.68 89.176H1219.68C1219.68 93.6745 1221.33 97.5325 1224.59 100.694L1225.99 99.2578ZM1221.68 89.176C1221.68 85.1141 1223.07 81.8328 1225.83 79.2503L1224.46 77.7897C1221.27 80.7752 1219.68 84.5979 1219.68 89.176H1221.68ZM1225.82 79.261C1228.68 76.6697 1232.36 75.344 1236.95 75.344V73.344C1231.95 73.344 1227.76 74.8023 1224.47 77.779L1225.82 79.261ZM1236.95 75.344C1241.55 75.344 1245.23 76.6697 1248.09 79.261L1249.43 77.779C1246.15 74.8023 1241.96 73.344 1236.95 73.344V75.344ZM1248.09 79.261C1250.94 81.8466 1252.37 85.1248 1252.37 89.176H1254.37C1254.37 84.5872 1252.72 80.7614 1249.43 77.779L1248.09 79.261ZM1252.37 89.176C1252.37 93.1255 1250.95 96.4675 1248.07 99.2578L1249.46 100.694C1252.72 97.5325 1254.37 93.6745 1254.37 89.176H1252.37ZM1248.08 99.2465C1245.22 101.928 1241.54 103.296 1236.95 103.296V105.296C1241.97 105.296 1246.16 103.784 1249.45 100.706L1248.08 99.2465Z" fill="#E3F0FB"/>
</svg>
