<svg width="1062" height="129" viewBox="0 0 1062 129" fill="none" xmlns="http://www.w3.org/2000/svg">
<path d="M74.3259 48.296L73.8787 47.4016L71.6894 48.4962L74.0189 49.2477L74.3259 48.296ZM87.8619 57.224L87.0665 57.83L87.071 57.836L87.0756 57.8418L87.8619 57.224ZM82.1019 93.368L82.6948 94.1733L82.6966 94.172L82.1019 93.368ZM0.885938 101H-0.114062V102H0.885938V101ZM0.885938 0.199993V-0.800007H-0.114062V0.199993H0.885938ZM77.9259 7.112L77.3549 7.9329L77.3616 7.93762L77.3685 7.94222L77.9259 7.112ZM84.4059 39.368L83.5641 38.8283L83.5591 38.8361L83.5543 38.8439L84.4059 39.368ZM28.9659 40.52H27.9659V41.52H28.9659V40.52ZM28.9659 20.648V19.648H27.9659V20.648H28.9659ZM28.9659 59.816V58.816H27.9659V59.816H28.9659ZM28.9659 80.552H27.9659V81.552H28.9659V80.552ZM74.0189 49.2477C79.8226 51.1198 84.1445 53.995 87.0665 57.83L88.6574 56.618C85.4353 52.389 80.7333 49.3121 74.6329 47.3443L74.0189 49.2477ZM87.0756 57.8418C90.0836 61.6702 91.6139 66.4344 91.6139 72.2H93.6139C93.6139 66.0616 91.9763 60.8418 88.6483 56.6062L87.0756 57.8418ZM91.6139 72.2C91.6139 80.82 88.2531 87.5739 81.5072 92.5641L82.6966 94.172C89.9668 88.7941 93.6139 81.436 93.6139 72.2H91.6139ZM81.5091 92.5627C74.8344 97.476 65.2356 100 52.5819 100V102C65.4643 102 75.5455 99.436 82.6948 94.1733L81.5091 92.5627ZM52.5819 100H0.885938V102H52.5819V100ZM1.88594 101V0.199993H-0.114062V101H1.88594ZM0.885938 1.19999H49.8459V-0.800007H0.885938V1.19999ZM49.8459 1.19999C61.8338 1.19999 70.963 3.4864 77.3549 7.9329L78.497 6.29109C71.6408 1.52159 62.0501 -0.800007 49.8459 -0.800007V1.19999ZM77.3685 7.94222C83.8015 12.2615 87.0059 18.3765 87.0059 26.408H89.0059C89.0059 17.7355 85.4904 10.9865 78.4834 6.28178L77.3685 7.94222ZM87.0059 26.408C87.0059 31.1327 85.8505 35.2615 83.5641 38.8283L85.2478 39.9077C87.7614 35.9865 89.0059 31.4753 89.0059 26.408H87.0059ZM83.5543 38.8439C81.3596 42.4102 78.1491 45.2664 73.8787 47.4016L74.7732 49.1904C79.3348 46.9096 82.8443 43.8138 85.2576 39.8921L83.5543 38.8439ZM28.9659 41.52H47.1099V39.52H28.9659V41.52ZM47.1099 41.52C51.2535 41.52 54.547 40.6731 56.8167 38.8087C59.124 36.9134 60.2059 34.1077 60.2059 30.584H58.2059C58.2059 33.6843 57.2719 35.8466 55.5472 37.2633C53.7849 38.7109 51.0304 39.52 47.1099 39.52V41.52ZM60.2059 30.584C60.2059 27.0603 59.124 24.2546 56.8167 22.3593C54.547 20.4949 51.2535 19.648 47.1099 19.648V21.648C51.0304 21.648 53.7849 22.4571 55.5472 23.9047C57.2719 25.3214 58.2059 27.4837 58.2059 30.584H60.2059ZM47.1099 19.648H28.9659V21.648H47.1099V19.648ZM27.9659 20.648V40.52H29.9659V20.648H27.9659ZM51.4299 81.552C55.6757 81.552 59.0465 80.6545 61.3651 78.6864C63.715 76.6916 64.8139 73.745 64.8139 70.04H62.8139C62.8139 73.343 61.8488 75.6524 60.0708 77.1616C58.2614 78.6975 55.4402 79.552 51.4299 79.552V81.552ZM64.8139 70.04C64.8139 66.422 63.7091 63.5447 61.3546 61.6008C59.0368 59.6873 55.6704 58.816 51.4299 58.816V60.816C55.4454 60.816 58.2711 61.6487 60.0813 63.1432C61.8548 64.6073 62.8139 66.842 62.8139 70.04H64.8139ZM51.4299 58.816H28.9659V60.816H51.4299V58.816ZM27.9659 59.816V80.552H29.9659V59.816H27.9659ZM28.9659 81.552H51.4299V79.552H28.9659V81.552ZM122.298 97.112L122.756 96.2227L122.298 97.112ZM106.458 82.712L105.604 83.2324L105.61 83.242L106.458 82.712ZM106.458 41.096L105.61 40.566L105.604 40.5756L106.458 41.096ZM122.154 26.84L122.607 27.7318L122.612 27.7293L122.154 26.84ZM167.658 26.84L167.201 27.7293L167.211 27.7344L167.658 26.84ZM183.354 41.096L182.5 41.6164L182.504 41.6224L183.354 41.096ZM183.354 82.712L184.208 83.2324L183.354 82.712ZM167.658 97.112L167.201 96.2227L167.658 97.112ZM156.714 75.656L157.442 76.3414L157.447 76.3361L157.452 76.3308L156.714 75.656ZM156.714 48.296L157.442 47.6106L156.714 48.296ZM133.098 48.296L132.37 47.6106L133.098 48.296ZM133.098 75.656L132.36 76.3308L132.365 76.3361L132.37 76.3414L133.098 75.656ZM144.906 101.296C136.696 101.296 129.32 99.5986 122.756 96.2227L121.841 98.0013C128.717 101.537 136.412 103.296 144.906 103.296V101.296ZM122.756 96.2227C116.189 92.8454 111.047 88.1665 107.306 82.182L105.61 83.242C109.55 89.5455 114.968 94.4666 121.841 98.0013L122.756 96.2227ZM107.312 82.1916C103.671 76.217 101.842 69.4398 101.842 61.832H99.8422C99.8422 69.7762 101.757 76.919 105.604 83.2324L107.312 82.1916ZM101.842 61.832C101.842 54.3227 103.67 47.593 107.312 41.6164L105.604 40.5756C101.758 46.887 99.8422 53.9813 99.8422 61.832H101.842ZM107.306 41.626C111.047 35.6404 116.141 31.0117 122.607 27.7318L121.702 25.9482C114.92 29.3883 109.549 34.2636 105.61 40.566L107.306 41.626ZM122.612 27.7293C129.174 24.3543 136.598 22.656 144.906 22.656V20.656C136.318 20.656 128.574 22.4137 121.697 25.9507L122.612 27.7293ZM144.906 22.656C153.214 22.656 160.638 24.3543 167.201 27.7293L168.116 25.9507C161.238 22.4137 153.494 20.656 144.906 20.656V22.656ZM167.211 27.7344C173.771 31.0143 178.858 35.6401 182.5 41.6164L184.208 40.5756C180.362 34.2639 174.986 29.3857 168.105 25.9456L167.211 27.7344ZM182.504 41.6224C186.141 47.4976 187.97 54.224 187.97 61.832H189.97C189.97 53.888 188.055 46.7904 184.204 40.5696L182.504 41.6224ZM187.97 61.832C187.97 69.4398 186.141 76.217 182.5 82.1916L184.208 83.2324C188.055 76.919 189.97 69.7762 189.97 61.832H187.97ZM182.5 82.1916C178.857 88.1705 173.766 92.8464 167.201 96.2227L168.116 98.0013C174.991 94.4656 180.363 89.5415 184.208 83.2324L182.5 82.1916ZM167.201 96.2227C160.638 99.5977 153.214 101.296 144.906 101.296V103.296C153.494 103.296 161.238 101.538 168.116 98.0013L167.201 96.2227ZM144.906 81.552C149.96 81.552 154.167 79.8215 157.442 76.3414L155.986 74.9706C153.117 78.0185 149.452 79.552 144.906 79.552V81.552ZM157.452 76.3308C160.737 72.7384 162.322 67.8639 162.322 61.832H160.322C160.322 67.512 158.836 71.8536 155.976 74.9812L157.452 76.3308ZM162.322 61.832C162.322 55.8926 160.735 51.1085 157.442 47.6106L155.986 48.9814C158.838 52.0115 160.322 56.2514 160.322 61.832H162.322ZM157.442 47.6106C154.167 44.1305 149.96 42.4 144.906 42.4V44.4C149.452 44.4 153.117 45.9335 155.986 48.9814L157.442 47.6106ZM144.906 42.4C139.852 42.4 135.645 44.1305 132.37 47.6106L133.826 48.9814C136.695 45.9335 140.36 44.4 144.906 44.4V42.4ZM132.37 47.6106C129.078 51.1085 127.49 55.8926 127.49 61.832H129.49C129.49 56.2514 130.975 52.0115 133.826 48.9814L132.37 47.6106ZM127.49 61.832C127.49 67.8639 129.076 72.7384 132.36 76.3308L133.836 74.9812C130.977 71.8536 129.49 67.512 129.49 61.832H127.49ZM132.37 76.3414C135.645 79.8215 139.852 81.552 144.906 81.552V79.552C140.36 79.552 136.695 78.0185 133.826 74.9706L132.37 76.3414ZM282.442 22.952H283.442V21.952H282.442V22.952ZM282.442 101V102H283.442V101H282.442ZM255.226 101H254.226V102H255.226V101ZM255.226 44.696H256.226V43.696H255.226V44.696ZM229.018 44.696V43.696H228.018V44.696H229.018ZM229.018 101V102H230.018V101H229.018ZM201.802 101H200.802V102H201.802V101ZM201.802 22.952V21.952H200.802V22.952H201.802ZM281.442 22.952V101H283.442V22.952H281.442ZM282.442 100H255.226V102H282.442V100ZM256.226 101V44.696H254.226V101H256.226ZM255.226 43.696H229.018V45.696H255.226V43.696ZM228.018 44.696V101H230.018V44.696H228.018ZM229.018 100H201.802V102H229.018V100ZM202.802 101V22.952H200.802V101H202.802ZM201.802 23.952H282.442V21.952H201.802V23.952ZM369.483 26.696L368.979 27.5598L368.988 27.5647L368.996 27.5695L369.483 26.696ZM383.307 40.808L382.43 41.2878L382.434 41.296L382.439 41.3041L383.307 40.808ZM383.307 83.288L382.436 82.7977L382.433 82.8024L383.307 83.288ZM369.483 97.4L369.976 98.27L369.981 98.2674L369.483 97.4ZM328.443 94.088L329.157 93.3872L327.443 91.6432V94.088H328.443ZM328.443 128.936V129.936H329.443V128.936H328.443ZM301.083 128.936H300.083V129.936H301.083V128.936ZM301.083 22.952V21.952H300.083V22.952H301.083ZM327.147 22.952H328.147V21.952H327.147V22.952ZM327.147 30.728H326.147V33.47L327.912 31.3718L327.147 30.728ZM356.235 75.656L356.963 76.3414L356.968 76.3361L356.973 76.3308L356.235 75.656ZM356.235 48.44L355.497 49.1148L355.502 49.1201L355.507 49.1254L356.235 48.44ZM332.619 48.44L333.347 49.1254L333.352 49.1201L333.357 49.1148L332.619 48.44ZM332.619 75.656L331.881 76.3308L331.886 76.3361L331.891 76.3414L332.619 75.656ZM350.187 22.656C357.126 22.656 363.382 24.2948 368.979 27.5598L369.987 25.8322C364.064 22.3772 357.456 20.656 350.187 20.656V22.656ZM368.996 27.5695C374.68 30.7375 379.156 35.3015 382.43 41.2878L384.185 40.3282C380.738 34.0265 375.998 29.1825 369.97 25.8225L368.996 27.5695ZM382.439 41.3041C385.796 47.1786 387.491 54.0583 387.491 61.976H389.491C389.491 53.7657 387.731 46.5333 384.175 40.3119L382.439 41.3041ZM387.491 61.976C387.491 69.8933 385.796 76.8238 382.436 82.7977L384.179 83.7783C387.73 77.4642 389.491 70.1867 389.491 61.976H387.491ZM382.433 82.8024C379.159 88.6954 374.68 93.2656 368.986 96.5326L369.981 98.2674C375.999 94.8144 380.735 89.9766 384.181 83.7736L382.433 82.8024ZM368.99 96.53C363.391 99.7026 357.131 101.296 350.187 101.296V103.296C357.451 103.296 364.055 101.625 369.976 98.27L368.99 96.53ZM350.187 101.296C341.281 101.296 334.309 98.6321 329.157 93.3872L327.73 94.7888C333.329 100.488 340.853 103.296 350.187 103.296V101.296ZM327.443 94.088V128.936H329.443V94.088H327.443ZM328.443 127.936H301.083V129.936H328.443V127.936ZM302.083 128.936V22.952H300.083V128.936H302.083ZM301.083 23.952H327.147V21.952H301.083V23.952ZM326.147 22.952V30.728H328.147V22.952H326.147ZM327.912 31.3718C332.757 25.6133 340.115 22.656 350.187 22.656V20.656C339.715 20.656 331.714 23.7467 326.382 30.0842L327.912 31.3718ZM344.427 81.552C349.481 81.552 353.688 79.8215 356.963 76.3414L355.507 74.9706C352.638 78.0185 348.973 79.552 344.427 79.552V81.552ZM356.973 76.3308C360.255 72.7413 361.843 67.917 361.843 61.976H359.843C359.843 67.555 358.359 71.8507 355.497 74.9812L356.973 76.3308ZM361.843 61.976C361.843 56.0366 360.256 51.2525 356.963 47.7546L355.507 49.1254C358.359 52.1555 359.843 56.3954 359.843 61.976H361.843ZM356.973 47.7652C353.7 44.1857 349.491 42.4 344.427 42.4V44.4C348.964 44.4 352.626 45.9743 355.497 49.1148L356.973 47.7652ZM344.427 42.4C339.364 42.4 335.154 44.1857 331.881 47.7652L333.357 49.1148C336.228 45.9743 339.891 44.4 344.427 44.4V42.4ZM331.891 47.7546C328.599 51.2525 327.011 56.0366 327.011 61.976H329.011C329.011 56.3954 330.496 52.1555 333.347 49.1254L331.891 47.7546ZM327.011 61.976C327.011 67.917 328.599 72.7413 331.881 76.3308L333.357 74.9812C330.495 71.8507 329.011 67.555 329.011 61.976H327.011ZM331.891 76.3414C335.166 79.8215 339.373 81.552 344.427 81.552V79.552C339.881 79.552 336.216 78.0185 333.347 74.9706L331.891 76.3414ZM417.47 97.112L417.927 96.2227L417.47 97.112ZM401.63 82.712L400.776 83.2324L400.782 83.242L401.63 82.712ZM401.63 41.096L400.782 40.566L400.776 40.5756L401.63 41.096ZM417.326 26.84L417.778 27.7318L417.783 27.7293L417.326 26.84ZM462.83 26.84L462.373 27.7293L462.383 27.7344L462.83 26.84ZM478.526 41.096L477.672 41.6164L477.676 41.6224L478.526 41.096ZM478.526 82.712L479.38 83.2324L478.526 82.712ZM462.83 97.112L462.373 96.2227L462.83 97.112ZM451.886 75.656L452.614 76.3414L452.619 76.3361L452.624 76.3308L451.886 75.656ZM451.886 48.296L452.614 47.6106L451.886 48.296ZM428.27 48.296L427.542 47.6106L428.27 48.296ZM428.27 75.656L427.532 76.3308L427.537 76.3361L427.542 76.3414L428.27 75.656ZM440.078 101.296C431.868 101.296 424.492 99.5986 417.927 96.2227L417.013 98.0013C423.889 101.537 431.584 103.296 440.078 103.296V101.296ZM417.927 96.2227C411.36 92.8454 406.218 88.1665 402.478 82.182L400.782 83.242C404.722 89.5455 410.14 94.4666 417.013 98.0013L417.927 96.2227ZM402.484 82.1916C398.843 76.217 397.014 69.4398 397.014 61.832H395.014C395.014 69.7762 396.929 76.919 400.776 83.2324L402.484 82.1916ZM397.014 61.832C397.014 54.3227 398.842 47.593 402.484 41.6164L400.776 40.5756C396.93 46.887 395.014 53.9813 395.014 61.832H397.014ZM402.478 41.626C406.219 35.6404 411.312 31.0117 417.778 27.7318L416.874 25.9482C410.092 29.3883 404.721 34.2636 400.782 40.566L402.478 41.626ZM417.783 27.7293C424.346 24.3543 431.77 22.656 440.078 22.656V20.656C431.49 20.656 423.746 22.4137 416.869 25.9507L417.783 27.7293ZM440.078 22.656C448.386 22.656 455.81 24.3543 462.373 27.7293L463.287 25.9507C456.41 22.4137 448.666 20.656 440.078 20.656V22.656ZM462.383 27.7344C468.943 31.0143 474.03 35.6401 477.672 41.6164L479.38 40.5756C475.534 34.2639 470.158 29.3857 463.277 25.9456L462.383 27.7344ZM477.676 41.6224C481.313 47.4976 483.142 54.224 483.142 61.832H485.142C485.142 53.888 483.227 46.7904 479.376 40.5696L477.676 41.6224ZM483.142 61.832C483.142 69.4398 481.313 76.217 477.672 82.1916L479.38 83.2324C483.227 76.919 485.142 69.7762 485.142 61.832H483.142ZM477.672 82.1916C474.029 88.1705 468.938 92.8464 462.373 96.2227L463.287 98.0013C470.162 94.4656 475.535 89.5415 479.38 83.2324L477.672 82.1916ZM462.373 96.2227C455.81 99.5977 448.386 101.296 440.078 101.296V103.296C448.666 103.296 456.41 101.538 463.287 98.0013L462.373 96.2227ZM440.078 81.552C445.132 81.552 449.339 79.8215 452.614 76.3414L451.158 74.9706C448.289 78.0185 444.624 79.552 440.078 79.552V81.552ZM452.624 76.3308C455.909 72.7384 457.494 67.8639 457.494 61.832H455.494C455.494 67.512 454.008 71.8536 451.148 74.9812L452.624 76.3308ZM457.494 61.832C457.494 55.8926 455.906 51.1085 452.614 47.6106L451.158 48.9814C454.01 52.0115 455.494 56.2514 455.494 61.832H457.494ZM452.614 47.6106C449.339 44.1305 445.132 42.4 440.078 42.4V44.4C444.624 44.4 448.289 45.9335 451.158 48.9814L452.614 47.6106ZM440.078 42.4C435.024 42.4 430.817 44.1305 427.542 47.6106L428.998 48.9814C431.867 45.9335 435.532 44.4 440.078 44.4V42.4ZM427.542 47.6106C424.25 51.1085 422.662 55.8926 422.662 61.832H424.662C424.662 56.2514 426.146 52.0115 428.998 48.9814L427.542 47.6106ZM422.662 61.832C422.662 67.8639 424.248 72.7384 427.532 76.3308L429.008 74.9812C426.149 71.8536 424.662 67.512 424.662 61.832H422.662ZM427.542 76.3414C430.817 79.8215 435.024 81.552 440.078 81.552V79.552C435.532 79.552 431.867 78.0185 428.998 74.9706L427.542 76.3414ZM512.958 97.112L513.41 96.2201L512.958 97.112ZM496.974 82.712L496.12 83.2324L496.126 83.242L496.974 82.712ZM496.974 41.096L496.126 40.566L496.124 40.5696L496.974 41.096ZM512.958 26.84L513.4 27.737L513.41 27.7319L512.958 26.84ZM559.038 27.416L558.525 28.2747L558.535 28.2802L559.038 27.416ZM572.718 43.112L573.172 44.0028L573.985 43.588L573.646 42.7406L572.718 43.112ZM551.55 53.912L550.658 54.3641L551.111 55.2584L552.004 54.8028L551.55 53.912ZM523.758 48.296L523.051 47.5889L523.045 47.5942L523.04 47.5995L523.758 48.296ZM523.758 75.656L523.03 76.342L523.04 76.3527L523.051 76.3631L523.758 75.656ZM551.55 70.04L552.004 69.1492L551.111 68.6936L550.658 69.5879L551.55 70.04ZM572.718 80.84L573.646 81.2114L573.985 80.364L573.172 79.9492L572.718 80.84ZM559.038 96.68L559.541 97.5443L559.55 97.5386L559.038 96.68ZM536.142 101.296C527.638 101.296 520.069 99.5962 513.41 96.2201L512.506 98.0039C519.479 101.54 527.365 103.296 536.142 103.296V101.296ZM513.41 96.2201C506.747 92.8418 501.56 88.163 497.822 82.182L496.126 83.242C500.068 89.549 505.536 94.4703 512.506 98.0039L513.41 96.2201ZM497.828 82.1916C494.187 76.217 492.358 69.4398 492.358 61.832H490.358C490.358 69.7762 492.273 76.919 496.12 83.2324L497.828 82.1916ZM492.358 61.832C492.358 54.224 494.187 47.4976 497.824 41.6224L496.124 40.5696C492.273 46.7904 490.358 53.888 490.358 61.832H492.358ZM497.822 41.626C501.558 35.6475 506.742 31.0189 513.4 27.7369L512.516 25.9431C505.541 29.3811 500.069 34.2565 496.126 40.566L497.822 41.626ZM513.41 27.7319C520.069 24.3558 527.638 22.656 536.142 22.656V20.656C527.365 20.656 519.479 22.4122 512.506 25.9481L513.41 27.7319ZM536.142 22.656C544.826 22.656 552.274 24.5425 558.525 28.2746L559.55 26.5574C552.938 22.6095 545.122 20.656 536.142 20.656V22.656ZM558.535 28.2802C564.78 31.9154 569.187 36.9768 571.789 43.4834L573.646 42.7406C570.873 35.8072 566.16 30.4046 559.541 26.5518L558.535 28.2802ZM572.263 42.2212L551.095 53.0212L552.004 54.8028L573.172 44.0028L572.263 42.2212ZM552.442 53.4599C550.608 49.8424 548.322 47.0681 545.558 45.1995C542.786 43.3257 539.587 42.4 535.998 42.4V44.4C539.225 44.4 542.026 45.2263 544.438 46.8565C546.857 48.4919 548.939 50.9736 550.658 54.3641L552.442 53.4599ZM535.998 42.4C530.854 42.4 526.515 44.1251 523.051 47.5889L524.465 49.0031C527.529 45.9389 531.349 44.4 535.998 44.4V42.4ZM523.04 47.5995C519.646 51.0964 518.006 55.8845 518.006 61.832H520.006C520.006 56.2595 521.533 52.0236 524.475 48.9925L523.04 47.5995ZM518.006 61.832C518.006 67.8718 519.644 72.7504 523.03 76.342L524.485 74.97C521.536 71.8416 520.006 67.5042 520.006 61.832H518.006ZM523.051 76.3631C526.515 79.8269 530.854 81.552 535.998 81.552V79.552C531.349 79.552 527.529 78.0131 524.465 74.9489L523.051 76.3631ZM535.998 81.552C539.587 81.552 542.786 80.6263 545.558 78.7525C548.322 76.8839 550.608 74.1096 552.442 70.4921L550.658 69.5879C548.939 72.9784 546.857 75.4601 544.438 77.0955C542.026 78.7257 539.225 79.552 535.998 79.552V81.552ZM551.095 70.9308L572.263 81.7308L573.172 79.9492L552.004 69.1492L551.095 70.9308ZM571.789 80.4686C569.186 86.9775 564.776 92.0896 558.525 95.8214L559.55 97.5386C566.164 93.5904 570.874 88.1425 573.646 81.2114L571.789 80.4686ZM558.535 95.8158C552.282 99.4555 544.83 101.296 536.142 101.296V103.296C545.117 103.296 552.93 101.392 559.541 97.5443L558.535 95.8158ZM578.201 49.448V48.448H577.201V49.448H578.201ZM620.249 49.448H621.249V48.448H620.249V49.448ZM620.249 70.472V71.472H621.249V70.472H620.249ZM578.201 70.472H577.201V71.472H578.201V70.472ZM578.201 50.448H620.249V48.448H578.201V50.448ZM619.249 49.448V70.472H621.249V49.448H619.249ZM620.249 69.472H578.201V71.472H620.249V69.472ZM579.201 70.472V49.448H577.201V70.472H579.201ZM653.579 97.112L654.037 96.2227L653.579 97.112ZM637.739 82.712L636.885 83.2324L636.891 83.242L637.739 82.712ZM637.739 41.096L636.891 40.566L636.885 40.5756L637.739 41.096ZM653.435 26.84L653.888 27.7318L653.893 27.7293L653.435 26.84ZM698.939 26.84L698.482 27.7293L698.492 27.7344L698.939 26.84ZM714.635 41.096L713.781 41.6164L713.785 41.6224L714.635 41.096ZM714.635 82.712L715.489 83.2324L714.635 82.712ZM698.939 97.112L698.482 96.2227L698.939 97.112ZM687.995 75.656L688.724 76.3414L688.729 76.3361L688.733 76.3308L687.995 75.656ZM687.995 48.296L688.724 47.6106L687.995 48.296ZM664.379 48.296L663.651 47.6106L664.379 48.296ZM664.379 75.656L663.641 76.3308L663.646 76.3361L663.651 76.3414L664.379 75.656ZM676.187 101.296C667.978 101.296 660.601 99.5986 654.037 96.2227L653.122 98.0013C659.998 101.537 667.693 103.296 676.187 103.296V101.296ZM654.037 96.2227C647.47 92.8454 642.328 88.1665 638.587 82.182L636.891 83.242C640.831 89.5455 646.249 94.4666 653.122 98.0013L654.037 96.2227ZM638.593 82.1916C634.953 76.217 633.123 69.4398 633.123 61.832H631.123C631.123 69.7762 633.038 76.919 636.885 83.2324L638.593 82.1916ZM633.123 61.832C633.123 54.3227 634.951 47.593 638.593 41.6164L636.885 40.5756C633.039 46.887 631.123 53.9813 631.123 61.832H633.123ZM638.587 41.626C642.328 35.6404 647.422 31.0117 653.888 27.7318L652.983 25.9482C646.201 29.3883 640.83 34.2636 636.891 40.566L638.587 41.626ZM653.893 27.7293C660.455 24.3543 667.88 22.656 676.187 22.656V20.656C667.599 20.656 659.856 22.4137 652.978 25.9507L653.893 27.7293ZM676.187 22.656C684.495 22.656 691.92 24.3543 698.482 27.7293L699.397 25.9507C692.519 22.4137 684.776 20.656 676.187 20.656V22.656ZM698.492 27.7344C705.052 31.0143 710.14 35.6401 713.781 41.6164L715.489 40.5756C711.643 34.2639 706.267 29.3857 699.387 25.9456L698.492 27.7344ZM713.785 41.6224C717.422 47.4976 719.251 54.224 719.251 61.832H721.251C721.251 53.888 719.337 46.7904 715.486 40.5696L713.785 41.6224ZM719.251 61.832C719.251 69.4398 717.422 76.217 713.781 82.1916L715.489 83.2324C719.337 76.919 721.251 69.7762 721.251 61.832H719.251ZM713.781 82.1916C710.138 88.1705 705.047 92.8464 698.482 96.2227L699.397 98.0013C706.272 94.4656 711.645 89.5415 715.489 83.2324L713.781 82.1916ZM698.482 96.2227C691.92 99.5977 684.495 101.296 676.187 101.296V103.296C684.776 103.296 692.519 101.538 699.397 98.0013L698.482 96.2227ZM676.187 81.552C681.241 81.552 685.448 79.8215 688.724 76.3414L687.267 74.9706C684.399 78.0185 680.734 79.552 676.187 79.552V81.552ZM688.733 76.3308C692.018 72.7384 693.603 67.8639 693.603 61.832H691.603C691.603 67.512 690.117 71.8536 687.257 74.9812L688.733 76.3308ZM693.603 61.832C693.603 55.8926 692.016 51.1085 688.724 47.6106L687.267 48.9814C690.119 52.0115 691.603 56.2514 691.603 61.832H693.603ZM688.724 47.6106C685.448 44.1305 681.241 42.4 676.187 42.4V44.4C680.734 44.4 684.399 45.9335 687.267 48.9814L688.724 47.6106ZM676.187 42.4C671.134 42.4 666.927 44.1305 663.651 47.6106L665.108 48.9814C667.976 45.9335 671.641 44.4 676.187 44.4V42.4ZM663.651 47.6106C660.359 51.1085 658.771 55.8926 658.771 61.832H660.771C660.771 56.2514 662.256 52.0115 665.108 48.9814L663.651 47.6106ZM658.771 61.832C658.771 67.8639 660.357 72.7384 663.641 76.3308L665.117 74.9812C662.258 71.8536 660.771 67.512 660.771 61.832H658.771ZM663.651 76.3414C666.927 79.8215 671.134 81.552 676.187 81.552V79.552C671.641 79.552 667.976 78.0185 665.108 74.9706L663.651 76.3414ZM799.967 44.696V45.696H800.967V44.696H799.967ZM774.911 44.696V43.696H773.911V44.696H774.911ZM774.911 101V102H775.911V101H774.911ZM747.695 101H746.695V102H747.695V101ZM747.695 44.696H748.695V43.696H747.695V44.696ZM722.495 44.696H721.495V45.696H722.495V44.696ZM722.495 22.952V21.952H721.495V22.952H722.495ZM799.967 22.952H800.967V21.952H799.967V22.952ZM799.967 43.696H774.911V45.696H799.967V43.696ZM773.911 44.696V101H775.911V44.696H773.911ZM774.911 100H747.695V102H774.911V100ZM748.695 101V44.696H746.695V101H748.695ZM747.695 43.696H722.495V45.696H747.695V43.696ZM723.495 44.696V22.952H721.495V44.696H723.495ZM722.495 23.952H799.967V21.952H722.495V23.952ZM798.967 22.952V44.696H800.967V22.952H798.967ZM873.496 60.104L873.058 59.2048L870.853 60.2774L873.179 61.0527L873.496 60.104ZM878.68 95.096L879.264 95.9079L879.273 95.9011L878.68 95.096ZM810.568 101H809.568V102H810.568V101ZM810.568 22.952V21.952H809.568V22.952H810.568ZM876.088 28.28L875.55 29.1231L875.556 29.1272L876.088 28.28ZM835.048 54.344H834.048V55.344H835.048V54.344ZM835.048 40.52V39.52H834.048V40.52H835.048ZM835.048 68.888V67.888H834.048V68.888H835.048ZM835.048 83.288H834.048V84.288H835.048V83.288ZM873.179 61.0527C877.493 62.4907 880.648 64.6653 882.731 67.5318C884.813 70.3974 885.888 74.0426 885.888 78.536H887.888C887.888 73.7174 886.731 69.6346 884.349 66.3562C881.967 63.0787 878.426 60.6933 873.812 59.1553L873.179 61.0527ZM885.888 78.536C885.888 85.2379 883.293 90.4542 878.086 94.2909L879.273 95.9011C885.01 91.6738 887.888 85.8501 887.888 78.536H885.888ZM878.096 94.2842C872.867 98.0453 865.047 100 854.488 100V102C865.24 102 873.548 100.019 879.263 95.9078L878.096 94.2842ZM854.488 100H810.568V102H854.488V100ZM811.568 101V22.952H809.568V101H811.568ZM810.568 23.952H852.472V21.952H810.568V23.952ZM852.472 23.952C862.552 23.952 870.207 25.7149 875.55 29.1231L876.625 27.4369C870.832 23.7411 862.743 21.952 852.472 21.952V23.952ZM875.556 29.1272C880.943 32.505 883.584 37.1844 883.584 43.256H885.584C885.584 36.4636 882.561 31.159 876.619 27.4328L875.556 29.1272ZM883.584 43.256C883.584 46.8194 882.673 49.9351 880.872 52.6373L882.536 53.7467C884.574 50.6889 885.584 47.1805 885.584 43.256H883.584ZM880.872 52.6373C879.063 55.3495 876.473 57.5433 873.058 59.2048L873.933 61.0032C877.622 59.2087 880.504 56.7945 882.536 53.7467L880.872 52.6373ZM835.048 55.344H850.024V53.344H835.048V55.344ZM850.024 55.344C853.286 55.344 855.915 54.7436 857.748 53.3829C859.636 51.9808 860.528 49.8878 860.528 47.288H858.528C858.528 49.3922 857.835 50.8272 856.555 51.7771C855.22 52.7684 853.097 53.344 850.024 53.344V55.344ZM860.528 47.288C860.528 44.768 859.624 42.7451 857.732 41.3974C855.902 40.0943 853.28 39.52 850.024 39.52V41.52C853.103 41.52 855.233 42.0737 856.571 43.0266C857.847 43.9349 858.528 45.296 858.528 47.288H860.528ZM850.024 39.52H835.048V41.52H850.024V39.52ZM834.048 40.52V54.344H836.048V40.52H834.048ZM852.04 84.288C855.443 84.288 858.175 83.6769 860.078 82.2978C862.041 80.8753 862.976 78.7452 862.976 76.088H860.976C860.976 78.2308 860.254 79.7007 858.905 80.6783C857.496 81.6991 855.261 82.288 852.04 82.288V84.288ZM862.976 76.088C862.976 73.4421 862.074 71.3135 860.162 69.8866C858.305 68.5007 855.639 67.888 852.328 67.888V69.888C855.448 69.888 857.607 70.4753 858.965 71.4894C860.269 72.4625 860.976 73.9339 860.976 76.088H862.976ZM852.328 67.888H835.048V69.888H852.328V67.888ZM834.048 68.888V83.288H836.048V68.888H834.048ZM835.048 84.288H852.04V82.288H835.048V84.288ZM979.332 68.888V69.888H980.268L980.33 68.9545L979.332 68.888ZM922.596 68.888V67.888H921.27L921.635 69.1627L922.596 68.888ZM929.22 78.248L928.66 79.0763L928.674 79.0857L928.688 79.0946L929.22 78.248ZM951.396 79.832L951.042 78.8969L951.031 78.9012L951.396 79.832ZM959.748 74.648L960.469 73.9549L959.813 73.2722L959.095 73.8906L959.748 74.648ZM974.148 89.624L974.892 90.292L975.513 89.6006L974.869 88.9309L974.148 89.624ZM916.836 97.112L917.283 96.2176L916.836 97.112ZM900.708 82.712L899.854 83.2324L899.86 83.242L900.708 82.712ZM900.564 41.24L899.71 40.7196L899.708 40.7235L900.564 41.24ZM915.972 26.84L915.504 25.9562L915.972 26.84ZM959.172 26.552L958.714 27.441L958.725 27.4464L959.172 26.552ZM974.148 40.52L973.288 41.0305L973.293 41.0385L973.298 41.0464L974.148 40.52ZM927.492 44.696L926.852 43.9278L926.846 43.9331L926.839 43.9386L927.492 44.696ZM922.164 54.488L921.181 54.3051L920.961 55.488H922.164V54.488ZM954.132 54.488V55.488H955.335L955.115 54.3051L954.132 54.488ZM948.66 44.696L948.007 45.4534L948.014 45.4589L948.02 45.4642L948.66 44.696ZM978.764 62.12C978.764 62.1132 978.764 62.1414 978.759 62.238C978.754 62.3226 978.748 62.4403 978.739 62.5923C978.721 62.8958 978.694 63.3288 978.658 63.8923C978.586 65.0189 978.478 66.6617 978.334 68.8215L980.33 68.9545C980.616 64.6715 980.764 62.3562 980.764 62.12H978.764ZM979.332 67.888H922.596V69.888H979.332V67.888ZM921.635 69.1627C922.847 73.405 925.188 76.7278 928.66 79.0763L929.781 77.4197C926.724 75.3522 924.65 72.435 923.558 68.6133L921.635 69.1627ZM928.688 79.0946C932.244 81.3297 936.616 82.416 941.748 82.416V80.416C936.896 80.416 932.917 79.3903 929.752 77.4014L928.688 79.0946ZM941.748 82.416C945.582 82.416 948.928 81.8759 951.762 80.7627L951.031 78.9012C948.488 79.9001 945.402 80.416 941.748 80.416V82.416ZM951.751 80.767C954.666 79.6612 957.549 77.8643 960.401 75.4054L959.095 73.8906C956.38 76.2317 953.694 77.8908 951.042 78.897L951.751 80.767ZM959.027 75.3411L973.427 90.3171L974.869 88.9309L960.469 73.9549L959.027 75.3411ZM973.404 88.956C966.061 97.136 955.279 101.296 940.884 101.296V103.296C955.674 103.296 967.068 99.0079 974.892 90.292L973.404 88.956ZM940.884 101.296C931.892 101.296 924.034 99.5927 917.283 96.2176L916.389 98.0064C923.463 101.543 931.637 103.296 940.884 103.296V101.296ZM917.283 96.2176C910.525 92.8382 905.292 88.1595 901.556 82.182L899.86 83.242C903.804 89.5525 909.324 94.4738 916.389 98.0064L917.283 96.2176ZM901.562 82.1916C897.921 76.217 896.092 69.4398 896.092 61.832H894.092C894.092 69.7762 896.007 76.919 899.854 83.2324L901.562 82.1916ZM896.092 61.832C896.092 54.3176 897.875 47.6351 901.42 41.7565L899.708 40.7235C895.958 46.9409 894.092 53.9864 894.092 61.832H896.092ZM901.418 41.7604C905.066 35.7743 910.067 31.0979 916.44 27.7238L915.504 25.9562C908.822 29.494 903.55 34.4177 899.71 40.7196L901.418 41.7604ZM916.44 27.7238C922.809 24.3518 929.99 22.656 938.004 22.656V20.656C929.698 20.656 922.191 22.4161 915.504 25.9562L916.44 27.7238ZM938.004 22.656C945.636 22.656 952.532 24.2564 958.714 27.441L959.63 25.663C953.14 22.3196 945.925 20.656 938.004 20.656V22.656ZM958.725 27.4464C964.888 30.5279 969.737 35.0499 973.288 41.0305L975.008 40.0095C971.263 33.7021 966.128 28.9121 959.619 25.6576L958.725 27.4464ZM973.298 41.0464C976.928 46.9105 978.764 53.9211 978.764 62.12H980.764C980.764 53.6149 978.856 46.2255 974.998 39.9936L973.298 41.0464ZM938.148 40.096C933.722 40.096 929.935 41.359 926.852 43.9278L928.132 45.4642C930.81 43.233 934.127 42.096 938.148 42.096V40.096ZM926.839 43.9386C923.859 46.5078 921.984 49.9871 921.181 54.3051L923.147 54.6709C923.88 50.7329 925.557 47.6842 928.145 45.4534L926.839 43.9386ZM922.164 55.488H954.132V53.488H922.164V55.488ZM955.115 54.3051C954.31 49.9772 952.381 46.4949 949.3 43.9278L948.02 45.4642C950.699 47.697 952.418 50.7428 953.149 54.6709L955.115 54.3051ZM949.313 43.9386C946.321 41.359 942.574 40.096 938.148 40.096V42.096C942.17 42.096 945.432 43.233 948.007 45.4534L949.313 43.9386ZM1061.53 44.696V45.696H1062.53V44.696H1061.53ZM1036.47 44.696V43.696H1035.47V44.696H1036.47ZM1036.47 101V102H1037.47V101H1036.47ZM1009.26 101H1008.26V102H1009.26V101ZM1009.26 44.696H1010.26V43.696H1009.26V44.696ZM984.057 44.696H983.057V45.696H984.057V44.696ZM984.057 22.952V21.952H983.057V22.952H984.057ZM1061.53 22.952H1062.53V21.952H1061.53V22.952ZM1061.53 43.696H1036.47V45.696H1061.53V43.696ZM1035.47 44.696V101H1037.47V44.696H1035.47ZM1036.47 100H1009.26V102H1036.47V100ZM1010.26 101V44.696H1008.26V101H1010.26ZM1009.26 43.696H984.057V45.696H1009.26V43.696ZM985.057 44.696V22.952H983.057V44.696H985.057ZM984.057 23.952H1061.53V21.952H984.057V23.952ZM1060.53 22.952V44.696H1062.53V22.952H1060.53Z" fill="#E3F0FB"/>
</svg>
