<svg width="1743" height="138" viewBox="0 0 1743 138" fill="none" xmlns="http://www.w3.org/2000/svg">
<path d="M74.4041 57.296L73.9569 56.4016L71.7675 57.4962L74.0971 58.2477L74.4041 57.296ZM87.9401 66.224L87.1446 66.83L87.1491 66.836L87.1537 66.8418L87.9401 66.224ZM82.1801 102.368L82.7729 103.173L82.7748 103.172L82.1801 102.368ZM0.964063 110H-0.0359373V111H0.964063V110ZM0.964063 9.19999V8.19999H-0.0359373V9.19999H0.964063ZM78.0041 16.112L77.433 16.9329L77.4398 16.9376L77.4466 16.9422L78.0041 16.112ZM84.4841 48.368L83.6422 47.8283L83.6372 47.8361L83.6324 47.8439L84.4841 48.368ZM29.0441 49.52H28.0441V50.52H29.0441V49.52ZM29.0441 29.648V28.648H28.0441V29.648H29.0441ZM29.0441 68.816V67.816H28.0441V68.816H29.0441ZM29.0441 89.552H28.0441V90.552H29.0441V89.552ZM74.0971 58.2477C79.9007 60.1198 84.2227 62.995 87.1446 66.83L88.7355 65.618C85.5135 61.389 80.8114 58.3121 74.7111 56.3443L74.0971 58.2477ZM87.1537 66.8418C90.1617 70.6702 91.6921 75.4344 91.6921 81.2H93.6921C93.6921 75.0616 92.0544 69.8418 88.7264 65.6062L87.1537 66.8418ZM91.6921 81.2C91.6921 89.82 88.3313 96.5739 81.5854 101.564L82.7748 103.172C90.0449 97.7941 93.6921 90.436 93.6921 81.2H91.6921ZM81.5872 101.563C74.9125 106.476 65.3137 109 52.6601 109V111C65.5424 111 75.6236 108.436 82.7729 103.173L81.5872 101.563ZM52.6601 109H0.964063V111H52.6601V109ZM1.96406 110V9.19999H-0.0359373V110H1.96406ZM0.964063 10.2H49.9241V8.19999H0.964063V10.2ZM49.9241 10.2C61.9119 10.2 71.0412 12.4864 77.433 16.9329L78.5751 15.2911C71.719 10.5216 62.1282 8.19999 49.9241 8.19999V10.2ZM77.4466 16.9422C83.8796 21.2615 87.0841 27.3765 87.0841 35.408H89.0841C89.0841 26.7355 85.5685 19.9865 78.5615 15.2818L77.4466 16.9422ZM87.0841 35.408C87.0841 40.1327 85.9286 44.2615 83.6422 47.8283L85.3259 48.9077C87.8395 44.9865 89.0841 40.4753 89.0841 35.408H87.0841ZM83.6324 47.8439C81.4377 51.4102 78.2273 54.2664 73.9569 56.4016L74.8513 58.1904C79.4129 55.9096 82.9224 52.8138 85.3357 48.8921L83.6324 47.8439ZM29.0441 50.52H47.1881V48.52H29.0441V50.52ZM47.1881 50.52C51.3316 50.52 54.6252 49.6731 56.8948 47.8087C59.2021 45.9134 60.2841 43.1077 60.2841 39.584H58.2841C58.2841 42.6843 57.35 44.8466 55.6253 46.2633C53.863 47.7109 51.1085 48.52 47.1881 48.52V50.52ZM60.2841 39.584C60.2841 36.0603 59.2021 33.2546 56.8948 31.3593C54.6252 29.4949 51.3316 28.648 47.1881 28.648V30.648C51.1085 30.648 53.863 31.4571 55.6253 32.9047C57.35 34.3214 58.2841 36.4837 58.2841 39.584H60.2841ZM47.1881 28.648H29.0441V30.648H47.1881V28.648ZM28.0441 29.648V49.52H30.0441V29.648H28.0441ZM51.5081 90.552C55.7538 90.552 59.1246 89.6545 61.4432 87.6864C63.7932 85.6916 64.8921 82.745 64.8921 79.04H62.8921C62.8921 82.343 61.927 84.6524 60.1489 86.1616C58.3395 87.6975 55.5183 88.552 51.5081 88.552V90.552ZM64.8921 79.04C64.8921 75.422 63.7872 72.5447 61.4327 70.6008C59.1149 68.6873 55.7486 67.816 51.5081 67.816V69.816C55.5236 69.816 58.3492 70.6487 60.1594 72.1432C61.9329 73.6073 62.8921 75.842 62.8921 79.04H64.8921ZM51.5081 67.816H29.0441V69.816H51.5081V67.816ZM28.0441 68.816V89.552H30.0441V68.816H28.0441ZM29.0441 90.552H51.5081V88.552H29.0441V90.552ZM185.16 77.888V78.888H186.096L186.158 77.9545L185.16 77.888ZM128.424 77.888V76.888H127.099L127.463 78.1627L128.424 77.888ZM135.048 87.248L134.488 88.0763L134.502 88.0857L134.516 88.0946L135.048 87.248ZM157.224 88.832L156.87 87.8969L156.859 87.9012L157.224 88.832ZM165.576 83.648L166.297 82.9549L165.641 82.2722L164.923 82.8906L165.576 83.648ZM179.976 98.624L180.72 99.292L181.341 98.6006L180.697 97.9309L179.976 98.624ZM122.664 106.112L123.112 105.218L122.664 106.112ZM106.536 91.712L105.682 92.2324L105.688 92.242L106.536 91.712ZM106.392 50.24L105.538 49.7196L105.536 49.7235L106.392 50.24ZM121.8 35.84L121.332 34.9562L121.8 35.84ZM165 35.552L164.542 36.441L164.553 36.4464L165 35.552ZM179.976 49.52L179.116 50.0305L179.121 50.0385L179.126 50.0464L179.976 49.52ZM133.32 53.696L132.68 52.9278L132.674 52.9331L132.667 52.9386L133.32 53.696ZM127.992 63.488L127.009 63.3051L126.789 64.488H127.992V63.488ZM159.96 63.488V64.488H161.164L160.943 63.3051L159.96 63.488ZM154.488 53.696L153.835 54.4534L153.842 54.4589L153.848 54.4642L154.488 53.696ZM184.592 71.12C184.592 71.1132 184.592 71.1414 184.587 71.238C184.583 71.3226 184.576 71.4403 184.567 71.5923C184.549 71.8958 184.522 72.3288 184.486 72.8923C184.414 74.0189 184.307 75.6617 184.163 77.8215L186.158 77.9545C186.444 73.6715 186.592 71.3562 186.592 71.12H184.592ZM185.16 76.888H128.424V78.888H185.16V76.888ZM127.463 78.1627C128.675 82.405 131.016 85.7278 134.488 88.0763L135.609 86.4197C132.552 84.3522 130.478 81.435 129.386 77.6133L127.463 78.1627ZM134.516 88.0946C138.072 90.3297 142.444 91.416 147.576 91.416V89.416C142.724 89.416 138.745 88.3903 135.58 86.4014L134.516 88.0946ZM147.576 91.416C151.41 91.416 154.757 90.8759 157.59 89.7627L156.859 87.9012C154.316 88.9001 151.23 89.416 147.576 89.416V91.416ZM157.579 89.767C160.494 88.6612 163.377 86.8643 166.229 84.4054L164.923 82.8906C162.208 85.2317 159.522 86.8908 156.87 87.897L157.579 89.767ZM164.855 84.3411L179.255 99.3171L180.697 97.9309L166.297 82.9549L164.855 84.3411ZM179.232 97.956C171.889 106.136 161.107 110.296 146.712 110.296V112.296C161.502 112.296 172.896 108.008 180.72 99.292L179.232 97.956ZM146.712 110.296C137.72 110.296 129.862 108.593 123.112 105.218L122.217 107.006C129.291 110.543 137.465 112.296 146.712 112.296V110.296ZM123.112 105.218C116.353 101.838 111.12 97.1595 107.384 91.182L105.688 92.242C109.632 98.5525 115.152 103.474 122.217 107.006L123.112 105.218ZM107.39 91.1916C103.749 85.217 101.92 78.4398 101.92 70.832H99.9203C99.9203 78.7762 101.835 85.919 105.682 92.2324L107.39 91.1916ZM101.92 70.832C101.92 63.3176 103.703 56.6351 107.249 50.7565L105.536 49.7235C101.786 55.9409 99.9203 62.9864 99.9203 70.832H101.92ZM107.246 50.7604C110.894 44.7743 115.895 40.0979 122.268 36.7238L121.332 34.9562C114.65 38.494 109.379 43.4177 105.538 49.7196L107.246 50.7604ZM122.268 36.7238C128.637 33.3518 135.818 31.656 143.832 31.656V29.656C135.527 29.656 128.019 31.4161 121.332 34.9562L122.268 36.7238ZM143.832 31.656C151.464 31.656 158.361 33.2564 164.542 36.441L165.458 34.663C158.968 31.3196 151.753 29.656 143.832 29.656V31.656ZM164.553 36.4464C170.716 39.5279 175.565 44.0499 179.116 50.0305L180.836 49.0095C177.091 42.7021 171.957 37.9121 165.448 34.6576L164.553 36.4464ZM179.126 50.0464C182.756 55.9105 184.592 62.9211 184.592 71.12H186.592C186.592 62.6149 184.684 55.2255 180.827 48.9936L179.126 50.0464ZM143.976 49.096C139.55 49.096 135.763 50.359 132.68 52.9278L133.96 54.4642C136.638 52.233 139.955 51.096 143.976 51.096V49.096ZM132.667 52.9386C129.687 55.5078 127.813 58.9871 127.009 63.3051L128.975 63.6709C129.708 59.7329 131.386 56.6842 133.973 54.4534L132.667 52.9386ZM127.992 64.488H159.96V62.488H127.992V64.488ZM160.943 63.3051C160.138 58.9772 158.209 55.4949 155.128 52.9278L153.848 54.4642C156.528 56.697 158.246 59.7428 158.977 63.6709L160.943 63.3051ZM155.141 52.9386C152.149 50.359 148.402 49.096 143.976 49.096V51.096C147.999 51.096 151.26 52.233 153.835 54.4534L155.141 52.9386ZM267.357 53.696V54.696H268.357V53.696H267.357ZM242.301 53.696V52.696H241.301V53.696H242.301ZM242.301 110V111H243.301V110H242.301ZM215.085 110H214.085V111H215.085V110ZM215.085 53.696H216.085V52.696H215.085V53.696ZM189.885 53.696H188.885V54.696H189.885V53.696ZM189.885 31.952V30.952H188.885V31.952H189.885ZM267.357 31.952H268.357V30.952H267.357V31.952ZM267.357 52.696H242.301V54.696H267.357V52.696ZM241.301 53.696V110H243.301V53.696H241.301ZM242.301 109H215.085V111H242.301V109ZM216.085 110V53.696H214.085V110H216.085ZM215.085 52.696H189.885V54.696H215.085V52.696ZM190.885 53.696V31.952H188.885V53.696H190.885ZM189.885 32.952H267.357V30.952H189.885V32.952ZM266.357 31.952V53.696H268.357V31.952H266.357ZM346.358 35.696L345.854 36.5598L345.863 36.5647L345.871 36.5695L346.358 35.696ZM360.182 49.808L359.305 50.2878L359.309 50.296L359.314 50.3041L360.182 49.808ZM360.182 92.288L359.311 91.7977L359.308 91.8024L360.182 92.288ZM346.358 106.4L346.851 107.27L346.856 107.267L346.358 106.4ZM305.318 103.088L306.032 102.387L304.318 100.643V103.088H305.318ZM305.318 137.936V138.936H306.318V137.936H305.318ZM277.958 137.936H276.958V138.936H277.958V137.936ZM277.958 31.952V30.952H276.958V31.952H277.958ZM304.022 31.952H305.022V30.952H304.022V31.952ZM304.022 39.728H303.022V42.47L304.787 40.3718L304.022 39.728ZM333.11 84.656L333.838 85.3414L333.843 85.3361L333.848 85.3308L333.11 84.656ZM333.11 57.44L332.372 58.1148L332.377 58.1201L332.382 58.1254L333.11 57.44ZM309.494 57.44L310.222 58.1254L310.227 58.1201L310.232 58.1148L309.494 57.44ZM309.494 84.656L308.756 85.3308L308.761 85.3361L308.766 85.3414L309.494 84.656ZM327.062 31.656C334.001 31.656 340.257 33.2948 345.854 36.5598L346.862 34.8322C340.939 31.3772 334.331 29.656 327.062 29.656V31.656ZM345.871 36.5695C351.555 39.7375 356.031 44.3015 359.305 50.2878L361.06 49.3282C357.613 43.0265 352.873 38.1825 346.845 34.8225L345.871 36.5695ZM359.314 50.3041C362.671 56.1786 364.366 63.0583 364.366 70.976H366.366C366.366 62.7657 364.606 55.5333 361.05 49.3119L359.314 50.3041ZM364.366 70.976C364.366 78.8933 362.671 85.8238 359.311 91.7977L361.054 92.7783C364.605 86.4642 366.366 79.1867 366.366 70.976H364.366ZM359.308 91.8024C356.034 97.6954 351.555 102.266 345.861 105.533L346.856 107.267C352.874 103.814 357.61 98.9766 361.056 92.7736L359.308 91.8024ZM345.865 105.53C340.266 108.703 334.006 110.296 327.062 110.296V112.296C334.326 112.296 340.93 110.625 346.851 107.27L345.865 105.53ZM327.062 110.296C318.156 110.296 311.184 107.632 306.032 102.387L304.605 103.789C310.204 109.488 317.728 112.296 327.062 112.296V110.296ZM304.318 103.088V137.936H306.318V103.088H304.318ZM305.318 136.936H277.958V138.936H305.318V136.936ZM278.958 137.936V31.952H276.958V137.936H278.958ZM277.958 32.952H304.022V30.952H277.958V32.952ZM303.022 31.952V39.728H305.022V31.952H303.022ZM304.787 40.3718C309.632 34.6133 316.99 31.656 327.062 31.656V29.656C316.59 29.656 308.589 32.7467 303.257 39.0842L304.787 40.3718ZM321.302 90.552C326.356 90.552 330.563 88.8215 333.838 85.3414L332.382 83.9706C329.513 87.0185 325.848 88.552 321.302 88.552V90.552ZM333.848 85.3308C337.13 81.7413 338.718 76.917 338.718 70.976H336.718C336.718 76.555 335.234 80.8507 332.372 83.9812L333.848 85.3308ZM338.718 70.976C338.718 65.0366 337.131 60.2525 333.838 56.7546L332.382 58.1254C335.234 61.1555 336.718 65.3954 336.718 70.976H338.718ZM333.848 56.7652C330.575 53.1857 326.366 51.4 321.302 51.4V53.4C325.839 53.4 329.501 54.9743 332.372 58.1148L333.848 56.7652ZM321.302 51.4C316.239 51.4 312.029 53.1857 308.756 56.7652L310.232 58.1148C313.103 54.9743 316.766 53.4 321.302 53.4V51.4ZM308.766 56.7546C305.474 60.2525 303.886 65.0366 303.886 70.976H305.886C305.886 65.3954 307.371 61.1555 310.222 58.1254L308.766 56.7546ZM303.886 70.976C303.886 76.917 305.474 81.7413 308.756 85.3308L310.232 83.9812C307.37 80.8507 305.886 76.555 305.886 70.976H303.886ZM308.766 85.3414C312.041 88.8215 316.248 90.552 321.302 90.552V88.552C316.756 88.552 313.091 87.0185 310.222 83.9706L308.766 85.3414ZM394.345 106.112L394.802 105.223L394.345 106.112ZM378.505 91.712L377.651 92.2324L377.657 92.242L378.505 91.712ZM378.505 50.096L377.657 49.566L377.651 49.5756L378.505 50.096ZM394.201 35.84L394.653 36.7318L394.658 36.7293L394.201 35.84ZM439.705 35.84L439.248 36.7293L439.258 36.7344L439.705 35.84ZM455.401 50.096L454.547 50.6164L454.551 50.6224L455.401 50.096ZM455.401 91.712L456.255 92.2324L455.401 91.712ZM439.705 106.112L439.248 105.223L439.705 106.112ZM428.761 84.656L429.489 85.3414L429.494 85.3361L429.499 85.3308L428.761 84.656ZM428.761 57.296L429.489 56.6106L428.761 57.296ZM405.145 57.296L404.417 56.6106L405.145 57.296ZM405.145 84.656L404.407 85.3308L404.412 85.3361L404.417 85.3414L405.145 84.656ZM416.953 110.296C408.743 110.296 401.367 108.599 394.802 105.223L393.888 107.001C400.764 110.537 408.459 112.296 416.953 112.296V110.296ZM394.802 105.223C388.235 101.845 383.093 97.1665 379.353 91.182L377.657 92.242C381.597 98.5455 387.015 103.467 393.888 107.001L394.802 105.223ZM379.359 91.1916C375.718 85.217 373.889 78.4398 373.889 70.832H371.889C371.889 78.7762 373.804 85.919 377.651 92.2324L379.359 91.1916ZM373.889 70.832C373.889 63.3227 375.717 56.593 379.359 50.6164L377.651 49.5756C373.805 55.887 371.889 62.9813 371.889 70.832H373.889ZM379.353 50.626C383.094 44.6404 388.188 40.0117 394.653 36.7318L393.749 34.9482C386.967 38.3883 381.596 43.2636 377.657 49.566L379.353 50.626ZM394.658 36.7293C401.221 33.3543 408.645 31.656 416.953 31.656V29.656C408.365 29.656 400.621 31.4137 393.744 34.9507L394.658 36.7293ZM416.953 31.656C425.261 31.656 432.685 33.3543 439.248 36.7293L440.162 34.9507C433.285 31.4137 425.541 29.656 416.953 29.656V31.656ZM439.258 36.7344C445.818 40.0143 450.905 44.6401 454.547 50.6164L456.255 49.5756C452.409 43.2639 447.033 38.3857 440.152 34.9456L439.258 36.7344ZM454.551 50.6224C458.188 56.4976 460.017 63.224 460.017 70.832H462.017C462.017 62.888 460.102 55.7904 456.251 49.5696L454.551 50.6224ZM460.017 70.832C460.017 78.4398 458.188 85.217 454.547 91.1916L456.255 92.2324C460.102 85.919 462.017 78.7762 462.017 70.832H460.017ZM454.547 91.1916C450.904 97.1705 445.813 101.846 439.248 105.223L440.162 107.001C447.037 103.466 452.41 98.5415 456.255 92.2324L454.547 91.1916ZM439.248 105.223C432.685 108.598 425.261 110.296 416.953 110.296V112.296C425.541 112.296 433.285 110.538 440.162 107.001L439.248 105.223ZM416.953 90.552C422.007 90.552 426.214 88.8215 429.489 85.3414L428.033 83.9706C425.164 87.0185 421.499 88.552 416.953 88.552V90.552ZM429.499 85.3308C432.784 81.7384 434.369 76.8639 434.369 70.832H432.369C432.369 76.512 430.883 80.8536 428.023 83.9812L429.499 85.3308ZM434.369 70.832C434.369 64.8926 432.781 60.1085 429.489 56.6106L428.033 57.9814C430.885 61.0115 432.369 65.2514 432.369 70.832H434.369ZM429.489 56.6106C426.214 53.1305 422.007 51.4 416.953 51.4V53.4C421.499 53.4 425.164 54.9335 428.033 57.9814L429.489 56.6106ZM416.953 51.4C411.899 51.4 407.692 53.1305 404.417 56.6106L405.873 57.9814C408.742 54.9335 412.407 53.4 416.953 53.4V51.4ZM404.417 56.6106C401.125 60.1085 399.537 64.8926 399.537 70.832H401.537C401.537 65.2514 403.021 61.0115 405.873 57.9814L404.417 56.6106ZM399.537 70.832C399.537 76.8639 401.123 81.7384 404.407 85.3308L405.883 83.9812C403.024 80.8536 401.537 76.512 401.537 70.832H399.537ZM404.417 85.3414C407.692 88.8215 411.899 90.552 416.953 90.552V88.552C412.407 88.552 408.742 87.0185 405.873 83.9706L404.417 85.3414ZM551.931 31.952H552.931V30.952H551.931V31.952ZM551.931 110V111H552.931V110H551.931ZM524.571 110H523.571V111H524.571V110ZM524.571 53.696H525.571V52.696H524.571V53.696ZM504.843 53.696V52.696H503.89L503.844 53.6479L504.843 53.696ZM504.267 65.648L503.268 65.5999L503.267 65.6103L504.267 65.648ZM501.243 90.848L500.272 90.6088L501.243 90.848ZM493.179 106.4L493.876 107.116L493.886 107.107L493.179 106.4ZM464.523 110L463.524 109.948L463.481 110.788L464.3 110.975L464.523 110ZM465.675 87.68L465.785 86.6861L464.731 86.569L464.676 87.6285L465.675 87.68ZM475.899 85.088L476.679 85.7127L475.899 85.088ZM479.067 77.456L480.05 77.6349L480.051 77.6298L479.067 77.456ZM480.219 64.496L481.218 64.5317V64.5314L480.219 64.496ZM481.371 31.952V30.952H480.405L480.371 31.9166L481.371 31.952ZM550.931 31.952V110H552.931V31.952H550.931ZM551.931 109H524.571V111H551.931V109ZM525.571 110V53.696H523.571V110H525.571ZM524.571 52.696H504.843V54.696H524.571V52.696ZM503.844 53.6479L503.268 65.5999L505.265 65.6961L505.841 53.7441L503.844 53.6479ZM503.267 65.6103C502.885 75.7481 501.881 84.0745 500.272 90.6088L502.214 91.0872C503.868 84.3735 504.88 75.8999 505.266 65.6857L503.267 65.6103ZM500.272 90.6088C498.671 97.1059 496.054 102.11 492.471 105.693L493.886 107.107C497.791 103.202 500.55 97.8382 502.214 91.0872L500.272 90.6088ZM492.481 105.684C488.967 109.107 484.106 110.872 477.771 110.872V112.872C484.491 112.872 489.902 110.989 493.876 107.116L492.481 105.684ZM477.771 110.872C474.519 110.872 470.186 110.266 464.745 109.025L464.3 110.975C469.804 112.23 474.303 112.872 477.771 112.872V110.872ZM465.521 110.052L466.673 87.7315L464.676 87.6285L463.524 109.948L465.521 110.052ZM465.564 88.6739C467.283 88.8648 468.49 88.968 469.131 88.968V86.968C468.619 86.968 467.522 86.8792 465.785 86.6861L465.564 88.6739ZM469.131 88.968C472.34 88.968 474.913 87.9202 476.679 85.7127L475.118 84.4633C473.812 86.0958 471.874 86.968 469.131 86.968V88.968ZM476.679 85.7127C478.346 83.6293 479.454 80.9172 480.05 77.6349L478.083 77.2771C477.527 80.3308 476.523 82.7067 475.118 84.4633L476.679 85.7127ZM480.051 77.6298C480.639 74.301 481.025 69.9293 481.218 64.5317L479.219 64.4603C479.028 69.8147 478.646 74.083 478.082 77.2822L480.051 77.6298ZM481.218 64.5314L482.37 31.9874L480.371 31.9166L479.219 64.4606L481.218 64.5314ZM481.371 32.952H551.931V30.952H481.371V32.952ZM648.942 77.888V78.888H649.877L649.939 77.9545L648.942 77.888ZM592.206 77.888V76.888H590.88L591.244 78.1627L592.206 77.888ZM598.83 87.248L598.269 88.0763L598.283 88.0857L598.297 88.0946L598.83 87.248ZM621.006 88.832L620.651 87.8969L620.64 87.9012L621.006 88.832ZM629.358 83.648L630.078 82.9549L629.422 82.2722L628.705 82.8906L629.358 83.648ZM643.758 98.624L644.502 99.292L645.122 98.6006L644.478 97.9309L643.758 98.624ZM586.446 106.112L586.893 105.218L586.446 106.112ZM570.318 91.712L569.464 92.2324L569.47 92.242L570.318 91.712ZM570.174 50.24L569.32 49.7196L569.317 49.7235L570.174 50.24ZM585.582 35.84L585.114 34.9562L585.582 35.84ZM628.782 35.552L628.324 36.441L628.334 36.4464L628.782 35.552ZM643.758 49.52L642.898 50.0305L642.902 50.0385L642.907 50.0464L643.758 49.52ZM597.102 53.696L596.461 52.9278L596.455 52.9331L596.449 52.9386L597.102 53.696ZM591.774 63.488L590.79 63.3051L590.57 64.488H591.774V63.488ZM623.742 63.488V64.488H624.945L624.725 63.3051L623.742 63.488ZM618.27 53.696L617.617 54.4534L617.623 54.4589L617.629 54.4642L618.27 53.696ZM583.566 19.712L582.858 20.4191L582.875 20.4352L582.891 20.4505L583.566 19.712ZM583.566 3.29599L582.874 2.57335L582.866 2.58103L582.858 2.58889L583.566 3.29599ZM599.838 3.29599L599.13 4.0031L599.138 4.01096L599.146 4.01863L599.838 3.29599ZM599.838 19.712L600.528 20.4354L600.529 20.4346L599.838 19.712ZM614.094 19.712L613.386 20.4191L613.403 20.4352L613.419 20.4505L614.094 19.712ZM614.094 3.29599L613.402 2.57335L613.394 2.58103L613.386 2.58889L614.094 3.29599ZM630.366 3.29599L629.658 4.0031L629.666 4.01096L629.674 4.01863L630.366 3.29599ZM630.366 19.712L631.056 20.4354L631.057 20.4346L630.366 19.712ZM648.374 71.12C648.374 71.1132 648.373 71.1414 648.368 71.238C648.364 71.3226 648.357 71.4403 648.348 71.5923C648.33 71.8958 648.304 72.3288 648.268 72.8923C648.196 74.0189 648.088 75.6617 647.944 77.8215L649.939 77.9545C650.225 73.6715 650.374 71.3562 650.374 71.12H648.374ZM648.942 76.888H592.206V78.888H648.942V76.888ZM591.244 78.1627C592.456 82.405 594.798 85.7278 598.269 88.0763L599.39 86.4197C596.334 84.3522 594.259 81.435 593.167 77.6133L591.244 78.1627ZM598.297 88.0946C601.853 90.3297 606.226 91.416 611.358 91.416V89.416C606.506 89.416 602.526 88.3903 599.362 86.4014L598.297 88.0946ZM611.358 91.416C615.191 91.416 618.538 90.8759 621.371 89.7627L620.64 87.9012C618.097 88.9001 615.012 89.416 611.358 89.416V91.416ZM621.36 89.767C624.275 88.6612 627.158 86.8643 630.01 84.4054L628.705 82.8906C625.989 85.2317 623.304 86.8908 620.651 87.897L621.36 89.767ZM628.637 84.3411L643.037 99.3171L644.478 97.9309L630.078 82.9549L628.637 84.3411ZM643.013 97.956C635.67 106.136 624.888 110.296 610.494 110.296V112.296C625.283 112.296 636.677 108.008 644.502 99.292L643.013 97.956ZM610.494 110.296C601.501 110.296 593.643 108.593 586.893 105.218L585.998 107.006C593.072 110.543 601.246 112.296 610.494 112.296V110.296ZM586.893 105.218C580.134 101.838 574.901 97.1595 571.166 91.182L569.47 92.242C573.414 98.5525 578.933 103.474 585.998 107.006L586.893 105.218ZM571.172 91.1916C567.531 85.217 565.702 78.4398 565.702 70.832H563.702C563.702 78.7762 565.616 85.919 569.464 92.2324L571.172 91.1916ZM565.702 70.832C565.702 63.3176 567.484 56.6351 571.03 50.7565L569.317 49.7235C565.567 55.9409 563.702 62.9864 563.702 70.832H565.702ZM571.028 50.7604C574.675 44.7743 579.676 40.0979 586.049 36.7238L585.114 34.9562C578.431 38.494 573.16 43.4177 569.32 49.7196L571.028 50.7604ZM586.049 36.7238C592.419 33.3518 599.599 31.656 607.614 31.656V29.656C599.308 29.656 591.8 31.4161 585.114 34.9562L586.049 36.7238ZM607.614 31.656C615.245 31.656 622.142 33.2564 628.324 36.441L629.24 34.663C622.749 31.3196 615.534 29.656 607.614 29.656V31.656ZM628.334 36.4464C634.497 39.5279 639.347 44.0499 642.898 50.0305L644.617 49.0095C640.872 42.7021 635.738 37.9121 629.229 34.6576L628.334 36.4464ZM642.907 50.0464C646.537 55.9105 648.374 62.9211 648.374 71.12H650.374C650.374 62.6149 648.466 55.2255 644.608 48.9936L642.907 50.0464ZM607.758 49.096C603.331 49.096 599.544 50.359 596.461 52.9278L597.742 54.4642C600.419 52.233 603.736 51.096 607.758 51.096V49.096ZM596.449 52.9386C593.468 55.5078 591.594 58.9871 590.79 63.3051L592.757 63.6709C593.489 59.7329 595.167 56.6842 597.755 54.4534L596.449 52.9386ZM591.774 64.488H623.742V62.488H591.774V64.488ZM624.725 63.3051C623.919 58.9772 621.99 55.4949 618.91 52.9278L617.629 54.4642C620.309 56.697 622.028 59.7428 622.758 63.6709L624.725 63.3051ZM618.922 52.9386C615.93 50.359 612.183 49.096 607.758 49.096V51.096C611.78 51.096 615.041 52.233 617.617 54.4534L618.922 52.9386ZM591.774 21.736C588.734 21.736 586.246 20.8052 584.24 18.9735L582.891 20.4505C585.301 22.6507 588.285 23.736 591.774 23.736V21.736ZM584.273 19.0049C582.372 17.1045 581.398 14.6349 581.398 11.504H579.398C579.398 15.093 580.535 18.0954 582.858 20.4191L584.273 19.0049ZM581.398 11.504C581.398 8.37304 582.372 5.90345 584.273 4.0031L582.858 2.58889C580.535 4.91254 579.398 7.91495 579.398 11.504H581.398ZM584.257 4.01863C586.265 2.09758 588.748 1.128 591.774 1.128V-0.872002C588.271 -0.872002 585.282 0.270416 582.874 2.57335L584.257 4.01863ZM591.774 1.128C594.799 1.128 597.224 2.09697 599.13 4.0031L600.545 2.58888C598.227 0.271027 595.276 -0.872002 591.774 -0.872002V1.128ZM599.146 4.01863C601.136 5.92214 602.15 8.38682 602.15 11.504H604.15C604.15 7.90117 602.955 4.89384 600.529 2.57335L599.146 4.01863ZM602.15 11.504C602.15 14.6212 601.136 17.0858 599.146 18.9894L600.529 20.4346C602.955 18.1141 604.15 15.1068 604.15 11.504H602.15ZM599.147 18.9886C597.244 20.8056 594.813 21.736 591.774 21.736V23.736C595.262 23.736 598.208 22.6504 600.528 20.4354L599.147 18.9886ZM622.302 21.736C619.262 21.736 616.774 20.8052 614.768 18.9735L613.419 20.4505C615.829 22.6507 618.813 23.736 622.302 23.736V21.736ZM614.801 19.0049C612.9 17.1045 611.926 14.6349 611.926 11.504H609.926C609.926 15.093 611.063 18.0954 613.386 20.4191L614.801 19.0049ZM611.926 11.504C611.926 8.37304 612.9 5.90345 614.801 4.0031L613.386 2.58889C611.063 4.91254 609.926 7.91495 609.926 11.504H611.926ZM614.785 4.01863C616.793 2.09758 619.276 1.128 622.302 1.128V-0.872002C618.799 -0.872002 615.81 0.270416 613.402 2.57335L614.785 4.01863ZM622.302 1.128C625.327 1.128 627.752 2.09697 629.658 4.0031L631.073 2.58888C628.755 0.271027 625.804 -0.872002 622.302 -0.872002V1.128ZM629.674 4.01863C631.664 5.92214 632.678 8.38682 632.678 11.504H634.678C634.678 7.90117 633.483 4.89384 631.057 2.57335L629.674 4.01863ZM632.678 11.504C632.678 14.6212 631.664 17.0858 629.674 18.9894L631.057 20.4346C633.483 18.1141 634.678 15.1068 634.678 11.504H632.678ZM629.675 18.9886C627.772 20.8056 625.341 21.736 622.302 21.736V23.736C625.79 23.736 628.735 22.6504 631.056 20.4354L629.675 18.9886ZM731.139 53.696V54.696H732.139V53.696H731.139ZM706.083 53.696V52.696H705.083V53.696H706.083ZM706.083 110V111H707.083V110H706.083ZM678.867 110H677.867V111H678.867V110ZM678.867 53.696H679.867V52.696H678.867V53.696ZM653.667 53.696H652.667V54.696H653.667V53.696ZM653.667 31.952V30.952H652.667V31.952H653.667ZM731.139 31.952H732.139V30.952H731.139V31.952ZM731.139 52.696H706.083V54.696H731.139V52.696ZM705.083 53.696V110H707.083V53.696H705.083ZM706.083 109H678.867V111H706.083V109ZM679.867 110V53.696H677.867V110H679.867ZM678.867 52.696H653.667V54.696H678.867V52.696ZM654.667 53.696V31.952H652.667V53.696H654.667ZM653.667 32.952H731.139V30.952H653.667V32.952ZM730.139 31.952V53.696H732.139V31.952H730.139ZM863.134 31.952H864.134V30.952H863.134V31.952ZM863.134 110V111H864.134V110H863.134ZM835.774 110H834.774V111H835.774V110ZM835.774 53.696H836.774V52.696H835.774V53.696ZM816.046 53.696V52.696H815.093L815.047 53.6479L816.046 53.696ZM815.47 65.648L814.471 65.5999L814.47 65.6103L815.47 65.648ZM812.446 90.848L811.475 90.6088L812.446 90.848ZM804.382 106.4L805.08 107.116L805.089 107.107L804.382 106.4ZM775.726 110L774.727 109.948L774.684 110.788L775.503 110.975L775.726 110ZM776.878 87.68L776.988 86.6861L775.934 86.569L775.879 87.6285L776.878 87.68ZM787.102 85.088L787.883 85.7127L787.102 85.088ZM790.27 77.456L791.254 77.6349L791.254 77.6298L790.27 77.456ZM791.422 64.496L792.421 64.5317V64.5314L791.422 64.496ZM792.574 31.952V30.952H791.608L791.574 31.9166L792.574 31.952ZM862.134 31.952V110H864.134V31.952H862.134ZM863.134 109H835.774V111H863.134V109ZM836.774 110V53.696H834.774V110H836.774ZM835.774 52.696H816.046V54.696H835.774V52.696ZM815.047 53.6479L814.471 65.5999L816.469 65.6961L817.045 53.7441L815.047 53.6479ZM814.47 65.6103C814.088 75.7481 813.085 84.0745 811.475 90.6088L813.417 91.0872C815.071 84.3735 816.084 75.8999 816.469 65.6857L814.47 65.6103ZM811.475 90.6088C809.874 97.1059 807.257 102.11 803.675 105.693L805.089 107.107C808.994 103.202 811.753 97.8382 813.417 91.0872L811.475 90.6088ZM803.684 105.684C800.17 109.107 795.309 110.872 788.974 110.872V112.872C795.694 112.872 801.105 110.989 805.08 107.116L803.684 105.684ZM788.974 110.872C785.722 110.872 781.389 110.266 775.948 109.025L775.503 110.975C781.007 112.23 785.506 112.872 788.974 112.872V110.872ZM776.724 110.052L777.876 87.7315L775.879 87.6285L774.727 109.948L776.724 110.052ZM776.767 88.6739C778.486 88.8648 779.693 88.968 780.334 88.968V86.968C779.822 86.968 778.726 86.8792 776.988 86.6861L776.767 88.6739ZM780.334 88.968C783.543 88.968 786.117 87.9202 787.883 85.7127L786.321 84.4633C785.015 86.0958 783.077 86.968 780.334 86.968V88.968ZM787.883 85.7127C789.549 83.6293 790.657 80.9172 791.254 77.6349L789.286 77.2771C788.731 80.3308 787.726 82.7067 786.321 84.4633L787.883 85.7127ZM791.254 77.6298C791.842 74.301 792.228 69.9293 792.421 64.5317L790.422 64.4603C790.231 69.8147 789.849 74.083 789.285 77.2822L791.254 77.6298ZM792.421 64.5314L793.573 31.9874L791.574 31.9166L790.422 64.4606L792.421 64.5314ZM792.574 32.952H863.134V30.952H792.574V32.952ZM960.145 77.888V78.888H961.08L961.142 77.9545L960.145 77.888ZM903.409 77.888V76.888H902.083L902.447 78.1627L903.409 77.888ZM910.033 87.248L909.472 88.0763L909.486 88.0857L909.501 88.0946L910.033 87.248ZM932.209 88.832L931.854 87.8969L931.843 87.9012L932.209 88.832ZM940.561 83.648L941.282 82.9549L940.625 82.2722L939.908 82.8906L940.561 83.648ZM954.961 98.624L955.705 99.292L956.326 98.6006L955.682 97.9309L954.961 98.624ZM897.649 106.112L898.096 105.218L897.649 106.112ZM881.521 91.712L880.667 92.2324L880.673 92.242L881.521 91.712ZM881.377 50.24L880.523 49.7196L880.52 49.7235L881.377 50.24ZM896.785 35.84L896.317 34.9562L896.785 35.84ZM939.985 35.552L939.527 36.441L939.537 36.4464L939.985 35.552ZM954.961 49.52L954.101 50.0305L954.106 50.0385L954.11 50.0464L954.961 49.52ZM908.305 53.696L907.664 52.9278L907.658 52.9331L907.652 52.9386L908.305 53.696ZM902.977 63.488L901.994 63.3051L901.773 64.488H902.977V63.488ZM934.945 63.488V64.488H936.148L935.928 63.3051L934.945 63.488ZM929.473 53.696L928.82 54.4534L928.826 54.4589L928.833 54.4642L929.473 53.696ZM959.577 71.12C959.577 71.1132 959.576 71.1414 959.571 71.238C959.567 71.3226 959.56 71.4403 959.551 71.5923C959.534 71.8958 959.507 72.3288 959.471 72.8923C959.399 74.0189 959.291 75.6617 959.147 77.8215L961.142 77.9545C961.428 73.6715 961.577 71.3562 961.577 71.12H959.577ZM960.145 76.888H903.409V78.888H960.145V76.888ZM902.447 78.1627C903.659 82.405 906.001 85.7278 909.472 88.0763L910.593 86.4197C907.537 84.3522 905.462 81.435 904.37 77.6133L902.447 78.1627ZM909.501 88.0946C913.056 90.3297 917.429 91.416 922.561 91.416V89.416C917.709 89.416 913.729 88.3903 910.565 86.4014L909.501 88.0946ZM922.561 91.416C926.395 91.416 929.741 90.8759 932.574 89.7627L931.843 87.9012C929.3 88.9001 926.215 89.416 922.561 89.416V91.416ZM932.563 89.767C935.479 88.6612 938.361 86.8643 941.214 84.4054L939.908 82.8906C937.192 85.2317 934.507 86.8908 931.854 87.897L932.563 89.767ZM939.84 84.3411L954.24 99.3171L955.682 97.9309L941.282 82.9549L939.84 84.3411ZM954.217 97.956C946.873 106.136 936.091 110.296 921.697 110.296V112.296C936.486 112.296 947.88 108.008 955.705 99.292L954.217 97.956ZM921.697 110.296C912.704 110.296 904.846 108.593 898.096 105.218L897.201 107.006C904.275 110.543 912.449 112.296 921.697 112.296V110.296ZM898.096 105.218C891.337 101.838 886.105 97.1595 882.369 91.182L880.673 92.242C884.617 98.5525 890.136 103.474 897.201 107.006L898.096 105.218ZM882.375 91.1916C878.734 85.217 876.905 78.4398 876.905 70.832H874.905C874.905 78.7762 876.82 85.919 880.667 92.2324L882.375 91.1916ZM876.905 70.832C876.905 63.3176 878.687 56.6351 882.233 50.7565L880.52 49.7235C876.77 55.9409 874.905 62.9864 874.905 70.832H876.905ZM882.231 50.7604C885.878 44.7743 890.879 40.0979 897.253 36.7238L896.317 34.9562C889.634 38.494 884.363 43.4177 880.523 49.7196L882.231 50.7604ZM897.253 36.7238C903.622 33.3518 910.802 31.656 918.817 31.656V29.656C910.511 29.656 903.004 31.4161 896.317 34.9562L897.253 36.7238ZM918.817 31.656C926.448 31.656 933.345 33.2564 939.527 36.441L940.443 34.663C933.952 31.3196 926.737 29.656 918.817 29.656V31.656ZM939.537 36.4464C945.7 39.5279 950.55 44.0499 954.101 50.0305L955.821 49.0095C952.076 42.7021 946.941 37.9121 940.432 34.6576L939.537 36.4464ZM954.11 50.0464C957.741 55.9105 959.577 62.9211 959.577 71.12H961.577C961.577 62.6149 959.669 55.2255 955.811 48.9936L954.11 50.0464ZM918.961 49.096C914.534 49.096 910.747 50.359 907.664 52.9278L908.945 54.4642C911.622 52.233 914.939 51.096 918.961 51.096V49.096ZM907.652 52.9386C904.671 55.5078 902.797 58.9871 901.994 63.3051L903.96 63.6709C904.692 59.7329 906.37 56.6842 908.958 54.4534L907.652 52.9386ZM902.977 64.488H934.945V62.488H902.977V64.488ZM935.928 63.3051C935.123 58.9772 933.193 55.4949 930.113 52.9278L928.833 54.4642C931.512 56.697 933.231 59.7428 933.962 63.6709L935.928 63.3051ZM930.126 52.9386C927.133 50.359 923.386 49.096 918.961 49.096V51.096C922.983 51.096 926.244 52.233 928.82 54.4534L930.126 52.9386ZM1042.34 53.696V54.696H1043.34V53.696H1042.34ZM1017.29 53.696V52.696H1016.29V53.696H1017.29ZM1017.29 110V111H1018.29V110H1017.29ZM990.07 110H989.07V111H990.07V110ZM990.07 53.696H991.07V52.696H990.07V53.696ZM964.87 53.696H963.87V54.696H964.87V53.696ZM964.87 31.952V30.952H963.87V31.952H964.87ZM1042.34 31.952H1043.34V30.952H1042.34V31.952ZM1042.34 52.696H1017.29V54.696H1042.34V52.696ZM1016.29 53.696V110H1018.29V53.696H1016.29ZM1017.29 109H990.07V111H1017.29V109ZM991.07 110V53.696H989.07V110H991.07ZM990.07 52.696H964.87V54.696H990.07V52.696ZM965.87 53.696V31.952H963.87V53.696H965.87ZM964.87 32.952H1042.34V30.952H964.87V32.952ZM1041.34 31.952V53.696H1043.34V31.952H1041.34ZM1052.94 31.952V30.952H1051.94V31.952H1052.94ZM1080.16 31.952H1081.16V30.952H1080.16V31.952ZM1080.16 72.848H1079.16V75.7007L1080.94 73.4724L1080.16 72.848ZM1112.85 31.952V30.952H1112.37L1112.07 31.3276L1112.85 31.952ZM1138.05 31.952H1139.05V30.952H1138.05V31.952ZM1138.05 110V111H1139.05V110H1138.05ZM1110.69 110H1109.69V111H1110.69V110ZM1110.69 68.96H1111.69V66.0795L1109.9 68.3404L1110.69 68.96ZM1078.29 110V111H1078.77L1079.07 110.62L1078.29 110ZM1052.94 110H1051.94V111H1052.94V110ZM1052.94 32.952H1080.16V30.952H1052.94V32.952ZM1079.16 31.952V72.848H1081.16V31.952H1079.16ZM1080.94 73.4724L1113.63 32.5764L1112.07 31.3276L1079.38 72.2236L1080.94 73.4724ZM1112.85 32.952H1138.05V30.952H1112.85V32.952ZM1137.05 31.952V110H1139.05V31.952H1137.05ZM1138.05 109H1110.69V111H1138.05V109ZM1111.69 110V68.96H1109.69V110H1111.69ZM1109.9 68.3404L1077.5 109.38L1079.07 110.62L1111.47 69.5796L1109.9 68.3404ZM1078.29 109H1052.94V111H1078.29V109ZM1053.94 110V31.952H1051.94V110H1053.94ZM1226.14 53.696V54.696H1227.14V53.696H1226.14ZM1201.08 53.696V52.696H1200.08V53.696H1201.08ZM1201.08 110V111H1202.08V110H1201.08ZM1173.87 110H1172.87V111H1173.87V110ZM1173.87 53.696H1174.87V52.696H1173.87V53.696ZM1148.67 53.696H1147.67V54.696H1148.67V53.696ZM1148.67 31.952V30.952H1147.67V31.952H1148.67ZM1226.14 31.952H1227.14V30.952H1226.14V31.952ZM1226.14 52.696H1201.08V54.696H1226.14V52.696ZM1200.08 53.696V110H1202.08V53.696H1200.08ZM1201.08 109H1173.87V111H1201.08V109ZM1174.87 110V53.696H1172.87V110H1174.87ZM1173.87 52.696H1148.67V54.696H1173.87V52.696ZM1149.67 53.696V31.952H1147.67V53.696H1149.67ZM1148.67 32.952H1226.14V30.952H1148.67V32.952ZM1225.14 31.952V53.696H1227.14V31.952H1225.14ZM1315.22 82.208L1316.06 81.6613L1315.76 81.208H1315.22V82.208ZM1306.01 82.208V81.208H1305.01V82.208H1306.01ZM1306.01 110V111H1307.01V110H1306.01ZM1278.65 110H1277.65V111H1278.65V110ZM1278.65 31.952V30.952H1277.65V31.952H1278.65ZM1306.01 31.952H1307.01V30.952H1306.01V31.952ZM1306.01 60.752H1305.01V61.752H1306.01V60.752ZM1315.8 60.752V61.752H1316.33L1316.63 61.3057L1315.8 60.752ZM1334.95 31.952V30.952H1334.41L1334.12 31.3983L1334.95 31.952ZM1363.89 31.952L1364.71 32.5255L1365.81 30.952H1363.89V31.952ZM1337.69 69.392L1336.87 68.8185L1336.47 69.387L1336.86 69.9588L1337.69 69.392ZM1365.62 110V111H1367.52L1366.45 109.433L1365.62 110ZM1333.37 110L1332.53 110.547L1332.82 111H1333.37V110ZM1315.22 81.208H1306.01V83.208H1315.22V81.208ZM1305.01 82.208V110H1307.01V82.208H1305.01ZM1306.01 109H1278.65V111H1306.01V109ZM1279.65 110V31.952H1277.65V110H1279.65ZM1278.65 32.952H1306.01V30.952H1278.65V32.952ZM1305.01 31.952V60.752H1307.01V31.952H1305.01ZM1306.01 61.752H1315.8V59.752H1306.01V61.752ZM1316.63 61.3057L1335.78 32.5057L1334.12 31.3983L1314.96 60.1983L1316.63 61.3057ZM1334.95 32.952H1363.89V30.952H1334.95V32.952ZM1363.07 31.3785L1336.87 68.8185L1338.5 69.9655L1364.71 32.5255L1363.07 31.3785ZM1336.86 69.9588L1364.8 110.567L1366.45 109.433L1338.51 68.8252L1336.86 69.9588ZM1365.62 109H1333.37V111H1365.62V109ZM1334.2 109.453L1316.06 81.6613L1314.38 82.7547L1332.53 110.547L1334.2 109.453ZM1479.53 69.104L1479.09 68.2048L1476.88 69.2774L1479.21 70.0527L1479.53 69.104ZM1484.71 104.096L1485.29 104.908L1485.3 104.901L1484.71 104.096ZM1416.6 110H1415.6V111H1416.6V110ZM1416.6 31.952V30.952H1415.6V31.952H1416.6ZM1482.12 37.28L1481.58 38.1231L1481.59 38.1272L1482.12 37.28ZM1441.08 63.344H1440.08V64.344H1441.08V63.344ZM1441.08 49.52V48.52H1440.08V49.52H1441.08ZM1441.08 77.888V76.888H1440.08V77.888H1441.08ZM1441.08 92.288H1440.08V93.288H1441.08V92.288ZM1479.21 70.0527C1483.52 71.4907 1486.68 73.6653 1488.76 76.5318C1490.84 79.3974 1491.92 83.0426 1491.92 87.536H1493.92C1493.92 82.7174 1492.76 78.6346 1490.38 75.3562C1488 72.0787 1484.46 69.6933 1479.84 68.1553L1479.21 70.0527ZM1491.92 87.536C1491.92 94.2379 1489.32 99.4542 1484.12 103.291L1485.3 104.901C1491.04 100.674 1493.92 94.8501 1493.92 87.536H1491.92ZM1484.13 103.284C1478.9 107.045 1471.08 109 1460.52 109V111C1471.27 111 1479.58 109.019 1485.29 104.908L1484.13 103.284ZM1460.52 109H1416.6V111H1460.52V109ZM1417.6 110V31.952H1415.6V110H1417.6ZM1416.6 32.952H1458.5V30.952H1416.6V32.952ZM1458.5 32.952C1468.58 32.952 1476.24 34.7149 1481.58 38.1231L1482.66 36.4369C1476.86 32.7411 1468.77 30.952 1458.5 30.952V32.952ZM1481.59 38.1272C1486.97 41.505 1489.61 46.1844 1489.61 52.256H1491.61C1491.61 45.4636 1488.59 40.159 1482.65 36.4328L1481.59 38.1272ZM1489.61 52.256C1489.61 55.8194 1488.7 58.9351 1486.9 61.6373L1488.57 62.7467C1490.61 59.6889 1491.61 56.1805 1491.61 52.256H1489.61ZM1486.9 61.6373C1485.09 64.3495 1482.5 66.5433 1479.09 68.2048L1479.96 70.0032C1483.65 68.2087 1486.54 65.7945 1488.57 62.7467L1486.9 61.6373ZM1441.08 64.344H1456.05V62.344H1441.08V64.344ZM1456.05 64.344C1459.32 64.344 1461.95 63.7436 1463.78 62.3829C1465.67 60.9808 1466.56 58.8878 1466.56 56.288H1464.56C1464.56 58.3922 1463.87 59.8272 1462.59 60.7771C1461.25 61.7684 1459.13 62.344 1456.05 62.344V64.344ZM1466.56 56.288C1466.56 53.768 1465.66 51.7451 1463.76 50.3974C1461.93 49.0943 1459.31 48.52 1456.05 48.52V50.52C1459.13 50.52 1461.26 51.0737 1462.6 52.0266C1463.88 52.9349 1464.56 54.296 1464.56 56.288H1466.56ZM1456.05 48.52H1441.08V50.52H1456.05V48.52ZM1440.08 49.52V63.344H1442.08V49.52H1440.08ZM1458.07 93.288C1461.47 93.288 1464.21 92.6769 1466.11 91.2978C1468.07 89.8753 1469.01 87.7452 1469.01 85.088H1467.01C1467.01 87.2308 1466.29 88.7007 1464.94 89.6783C1463.53 90.6991 1461.29 91.288 1458.07 91.288V93.288ZM1469.01 85.088C1469.01 82.4421 1468.1 80.3135 1466.19 78.8866C1464.34 77.5007 1461.67 76.888 1458.36 76.888V78.888C1461.48 78.888 1463.64 79.4753 1465 80.4894C1466.3 81.4625 1467.01 82.9339 1467.01 85.088H1469.01ZM1458.36 76.888H1441.08V78.888H1458.36V76.888ZM1440.08 77.888V92.288H1442.08V77.888H1440.08ZM1441.08 93.288H1458.07V91.288H1441.08V93.288ZM1568.23 39.584L1567.57 40.3373L1567.58 40.3425L1568.23 39.584ZM1578.45 110V111H1579.45V110H1578.45ZM1552.96 110H1551.96V111H1552.96V110ZM1552.96 99.92H1553.96L1552.08 99.4594L1552.96 99.92ZM1514.23 108.128L1514.66 107.226L1514.23 108.128ZM1504.15 99.632L1503.29 100.15L1503.3 100.163L1503.31 100.176L1504.15 99.632ZM1509.33 70.112L1509.91 70.9267L1509.92 70.9201L1509.33 70.112ZM1551.09 63.92V64.92H1552.15L1552.09 63.862L1551.09 63.92ZM1523.16 53.408L1523.44 54.3658L1523.45 54.3626L1523.46 54.359L1523.16 53.408ZM1513.36 58.304L1512.47 58.7484L1513.01 59.8501L1513.98 59.0903L1513.36 58.304ZM1504.15 39.728L1503.59 38.8959L1502.86 39.3841L1503.25 40.1724L1504.15 39.728ZM1519.84 33.104L1520.09 34.0742L1520.1 34.0715L1519.84 33.104ZM1545.91 91.712L1546.45 92.5543L1545.91 91.712ZM1551.09 84.944L1552.03 85.2784L1552.09 85.1162V84.944H1551.09ZM1551.09 78.176H1552.09V77.176H1551.09V78.176ZM1530.07 91.856L1529.45 92.6409L1530.07 91.856ZM1538.56 31.656C1551.38 31.656 1561 34.6011 1567.57 40.3372L1568.89 38.8308C1561.82 32.6629 1551.66 29.656 1538.56 29.656V31.656ZM1567.58 40.3425C1574.1 45.9472 1577.45 54.6461 1577.45 66.656H1579.45C1579.45 54.2819 1575.99 44.9328 1568.88 38.8255L1567.58 40.3425ZM1577.45 66.656V110H1579.45V66.656H1577.45ZM1578.45 109H1552.96V111H1578.45V109ZM1553.96 110V99.92H1551.96V110H1553.96ZM1552.08 99.4594C1548.37 106.6 1541.12 110.296 1529.92 110.296V112.296C1541.57 112.296 1549.68 108.408 1553.85 100.381L1552.08 99.4594ZM1529.92 110.296C1523.99 110.296 1518.91 109.26 1514.66 107.226L1513.8 109.03C1518.37 111.22 1523.76 112.296 1529.92 112.296V110.296ZM1514.66 107.226C1510.38 105.181 1507.18 102.462 1504.99 99.0878L1503.31 100.176C1505.73 103.906 1509.24 106.851 1513.8 109.03L1514.66 107.226ZM1505 99.1142C1502.9 95.6349 1501.84 91.6887 1501.84 87.248H1499.84C1499.84 92.0233 1500.98 96.3331 1503.29 100.15L1505 99.1142ZM1501.84 87.248C1501.84 80.1555 1504.53 74.7575 1509.91 70.9267L1508.75 69.2973C1502.8 73.5305 1499.84 79.5565 1499.84 87.248H1501.84ZM1509.92 70.9201C1515.33 66.9765 1523.81 64.92 1535.54 64.92V62.92C1523.65 62.92 1514.66 64.9915 1508.74 69.3039L1509.92 70.9201ZM1535.54 64.92H1551.09V62.92H1535.54V64.92ZM1552.09 63.862C1551.84 59.5043 1550.23 56.1072 1547.19 53.8312C1544.19 51.5854 1539.92 50.536 1534.53 50.536V52.536C1539.7 52.536 1543.48 53.5506 1545.99 55.4328C1548.47 57.2848 1549.87 60.0797 1550.09 63.978L1552.09 63.862ZM1534.53 50.536C1530.67 50.536 1526.78 51.1791 1522.85 52.457L1523.46 54.359C1527.21 53.1409 1530.9 52.536 1534.53 52.536V50.536ZM1522.87 52.4502C1518.93 53.632 1515.55 55.3162 1512.75 57.5177L1513.98 59.0903C1516.56 57.0678 1519.7 55.488 1523.44 54.3658L1522.87 52.4502ZM1514.26 57.8596L1505.04 39.2836L1503.25 40.1724L1512.47 58.7484L1514.26 57.8596ZM1504.7 40.56C1508.91 37.7559 1514.03 35.5882 1520.09 34.0741L1519.6 32.1339C1513.37 33.6917 1508.03 35.9401 1503.59 38.8959L1504.7 40.56ZM1520.1 34.0715C1526.26 32.4603 1532.41 31.656 1538.56 31.656V29.656C1532.24 29.656 1525.91 30.4837 1519.59 32.1365L1520.1 34.0715ZM1537.56 95.016C1540.89 95.016 1543.87 94.2046 1546.45 92.5543L1545.37 90.8697C1543.15 92.2914 1540.55 93.016 1537.56 93.016V95.016ZM1546.45 92.5543C1549.05 90.8855 1550.91 88.4398 1552.03 85.2784L1550.15 84.6096C1549.16 87.4002 1547.56 89.4665 1545.37 90.8697L1546.45 92.5543ZM1552.09 84.944V78.176H1550.09V84.944H1552.09ZM1551.09 77.176H1539.28V79.176H1551.09V77.176ZM1539.28 77.176C1535.22 77.176 1532 77.8433 1529.77 79.3224C1527.46 80.8494 1526.33 83.1621 1526.33 86.096H1528.33C1528.33 83.7499 1529.19 82.1026 1530.87 80.9896C1532.62 79.8287 1535.38 79.176 1539.28 79.176V77.176ZM1526.33 86.096C1526.33 88.7904 1527.37 91.0041 1529.45 92.6409L1530.69 91.0711C1529.11 89.8279 1528.33 88.2016 1528.33 86.096H1526.33ZM1529.45 92.6409C1531.5 94.2632 1534.24 95.016 1537.56 95.016V93.016C1534.53 93.016 1532.28 92.3288 1530.69 91.0711L1529.45 92.6409ZM1670.66 110H1669.66V111H1670.66V110ZM1670.66 68.96H1671.66V65.2783L1669.79 68.4541L1670.66 68.96ZM1650.64 103.088V104.088H1651.21L1651.5 103.594L1650.64 103.088ZM1638.98 103.088L1638.1 103.577L1638.39 104.088H1638.98V103.088ZM1619.54 68.384L1620.41 67.8953L1618.54 64.5526V68.384H1619.54ZM1619.54 110V111H1620.54V110H1619.54ZM1594.91 110H1593.91V111H1594.91V110ZM1594.91 31.952V30.952H1593.91V31.952H1594.91ZM1623.71 31.952L1624.59 31.4812L1624.31 30.952H1623.71V31.952ZM1645.46 72.704L1644.57 73.1748L1645.41 74.7509L1646.32 73.21L1645.46 72.704ZM1669.36 31.952V30.952H1668.79L1668.5 31.446L1669.36 31.952ZM1695.14 31.952L1696.14 31.9501L1696.13 30.952H1695.14V31.952ZM1695.28 110V111H1696.28L1696.28 109.998L1695.28 110ZM1671.66 110V68.96H1669.66V110H1671.66ZM1669.79 68.4541L1649.78 102.582L1651.5 103.594L1671.52 69.4659L1669.79 68.4541ZM1650.64 102.088H1638.98V104.088H1650.64V102.088ZM1639.85 102.599L1620.41 67.8953L1618.66 68.8727L1638.1 103.577L1639.85 102.599ZM1618.54 68.384V110H1620.54V68.384H1618.54ZM1619.54 109H1594.91V111H1619.54V109ZM1595.91 110V31.952H1593.91V110H1595.91ZM1594.91 32.952H1623.71V30.952H1594.91V32.952ZM1622.83 32.4227L1644.57 73.1748L1646.34 72.2332L1624.59 31.4812L1622.83 32.4227ZM1646.32 73.21L1670.22 32.4579L1668.5 31.446L1644.59 72.198L1646.32 73.21ZM1669.36 32.952H1695.14V30.952H1669.36V32.952ZM1694.14 31.9538L1694.28 110.002L1696.28 109.998L1696.14 31.9501L1694.14 31.9538ZM1695.28 109H1670.66V111H1695.28V109ZM1710 9.19999V8.19999H1708.91L1709 9.28285L1710 9.19999ZM1742.54 9.19999L1743.54 9.28508L1743.63 8.19999H1742.54V9.19999ZM1737.07 73.28V74.28H1737.99L1738.06 73.3651L1737.07 73.28ZM1715.32 73.28L1714.33 73.3629L1714.4 74.28H1715.32V73.28ZM1714.46 106.976L1713.76 107.694L1713.77 107.7L1713.78 107.706L1714.46 106.976ZM1714.46 85.52L1715.13 86.261L1714.46 85.52ZM1737.93 85.52L1737.25 86.2503L1737.25 86.2557L1737.26 86.261L1737.93 85.52ZM1737.93 106.976L1738.62 107.706L1738.62 107.7L1738.63 107.694L1737.93 106.976ZM1710 10.2H1742.54V8.19999H1710V10.2ZM1741.54 9.11491L1736.07 73.1949L1738.06 73.3651L1743.54 9.28508L1741.54 9.11491ZM1737.07 72.28H1715.32V74.28H1737.07V72.28ZM1716.32 73.1971L1710.99 9.11713L1709 9.28285L1714.33 73.3629L1716.32 73.1971ZM1726.27 110.296C1721.68 110.296 1718 108.928 1715.14 106.246L1713.78 107.706C1717.06 110.784 1721.25 112.296 1726.27 112.296V110.296ZM1715.16 106.258C1712.27 103.467 1710.85 100.125 1710.85 96.176H1708.85C1708.85 100.675 1710.5 104.533 1713.76 107.694L1715.16 106.258ZM1710.85 96.176C1710.85 92.1248 1712.28 88.8466 1715.13 86.261L1713.79 84.779C1710.5 87.7614 1708.85 91.5872 1708.85 96.176H1710.85ZM1715.13 86.261C1717.99 83.6697 1721.67 82.344 1726.27 82.344V80.344C1721.26 80.344 1717.07 81.8023 1713.79 84.779L1715.13 86.261ZM1726.27 82.344C1730.86 82.344 1734.49 83.6699 1737.25 86.2503L1738.61 84.7897C1735.42 81.8021 1731.27 80.344 1726.27 80.344V82.344ZM1737.26 86.261C1740.11 88.8466 1741.54 92.1248 1741.54 96.176H1743.54C1743.54 91.5872 1741.89 87.7614 1738.6 84.779L1737.26 86.261ZM1741.54 96.176C1741.54 100.125 1740.12 103.467 1737.24 106.258L1738.63 107.694C1741.89 104.533 1743.54 100.675 1743.54 96.176H1741.54ZM1737.25 106.246C1734.38 108.932 1730.75 110.296 1726.27 110.296V112.296C1731.19 112.296 1735.34 110.78 1738.62 107.706L1737.25 106.246Z" fill="#E3F0FB"/>
</svg>
