<svg width="1172" height="129" viewBox="0 0 1172 129" fill="none" xmlns="http://www.w3.org/2000/svg">
<path d="M96.7978 0.199993H97.7978V-0.800007H96.7978V0.199993ZM96.7978 101V102H97.7978V101H96.7978ZM68.2858 101H67.2858V102H68.2858V101ZM68.2858 61.688H69.2858V60.688H68.2858V61.688ZM29.4058 61.688V60.688H28.4058V61.688H29.4058ZM29.4058 101V102H30.4058V101H29.4058ZM0.89375 101H-0.10625V102H0.89375V101ZM0.89375 0.199993V-0.800007H-0.10625V0.199993H0.89375ZM29.4058 0.199993H30.4058V-0.800007H29.4058V0.199993ZM29.4058 38.072H28.4058V39.072H29.4058V38.072ZM68.2858 38.072V39.072H69.2858V38.072H68.2858ZM68.2858 0.199993V-0.800007H67.2858V0.199993H68.2858ZM95.7978 0.199993V101H97.7978V0.199993H95.7978ZM96.7978 100H68.2858V102H96.7978V100ZM69.2858 101V61.688H67.2858V101H69.2858ZM68.2858 60.688H29.4058V62.688H68.2858V60.688ZM28.4058 61.688V101H30.4058V61.688H28.4058ZM29.4058 100H0.89375V102H29.4058V100ZM1.89375 101V0.199993H-0.10625V101H1.89375ZM0.89375 1.19999H29.4058V-0.800007H0.89375V1.19999ZM28.4058 0.199993V38.072H30.4058V0.199993H28.4058ZM29.4058 39.072H68.2858V37.072H29.4058V39.072ZM69.2858 38.072V0.199993H67.2858V38.072H69.2858ZM68.2858 1.19999H96.7978V-0.800007H68.2858V1.19999ZM178.36 30.584L177.702 31.3373L177.709 31.3425L178.36 30.584ZM188.584 101V102H189.584V101H188.584ZM163.096 101H162.096V102H163.096V101ZM163.096 90.92H164.096L162.209 90.4594L163.096 90.92ZM124.36 99.128L124.792 98.2259L124.36 99.128ZM114.28 90.632L113.425 91.1498L113.433 91.1631L113.441 91.1762L114.28 90.632ZM119.464 61.112L120.044 61.9267L120.053 61.9201L119.464 61.112ZM161.224 54.92V55.92H162.284L162.223 54.862L161.224 54.92ZM133.288 44.408L133.576 45.3658L133.587 45.3626L133.597 45.359L133.288 44.408ZM123.496 49.304L122.6 49.7484L123.147 50.8501L124.114 50.0903L123.496 49.304ZM114.28 30.728L113.726 29.8959L112.993 30.3841L113.384 31.1724L114.28 30.728ZM129.976 24.104L130.219 25.0742L130.229 25.0715L129.976 24.104ZM156.04 82.712L156.579 83.5543L156.04 82.712ZM161.224 75.944L162.167 76.2784L162.224 76.1162V75.944H161.224ZM161.224 69.176H162.224V68.176H161.224V69.176ZM140.2 82.856L139.581 83.6409L140.2 82.856ZM148.696 22.656C161.518 22.656 171.134 25.6011 177.702 31.3372L179.018 29.8308C171.955 23.6629 161.795 20.656 148.696 20.656V22.656ZM177.709 31.3425C184.232 36.9472 187.584 45.6461 187.584 57.656H189.584C189.584 45.2819 186.12 35.9328 179.012 29.8255L177.709 31.3425ZM187.584 57.656V101H189.584V57.656H187.584ZM188.584 100H163.096V102H188.584V100ZM164.096 101V90.92H162.096V101H164.096ZM162.209 90.4594C158.503 97.5998 151.253 101.296 140.056 101.296V103.296C151.708 103.296 159.818 99.4082 163.984 91.3806L162.209 90.4594ZM140.056 101.296C134.123 101.296 129.045 100.26 124.792 98.2259L123.929 100.03C128.507 102.22 133.893 103.296 140.056 103.296V101.296ZM124.792 98.2259C120.516 96.1807 117.308 93.4624 115.119 90.0878L113.441 91.1762C115.86 94.9056 119.373 97.8513 123.929 100.03L124.792 98.2259ZM115.136 90.1142C113.03 86.6349 111.968 82.6887 111.968 78.248H109.968C109.968 83.0233 111.115 87.3331 113.425 91.1498L115.136 90.1142ZM111.968 78.248C111.968 71.1555 114.663 65.7575 120.044 61.9267L118.884 60.2973C112.938 64.5305 109.968 70.5565 109.968 78.248H111.968ZM120.053 61.9201C125.464 57.9765 133.945 55.92 145.672 55.92V53.92C133.783 53.92 124.792 55.9915 118.875 60.3039L120.053 61.9201ZM145.672 55.92H161.224V53.92H145.672V55.92ZM162.223 54.862C161.969 50.5043 160.367 47.1072 157.323 44.8312C154.32 42.5854 150.052 41.536 144.664 41.536V43.536C149.837 43.536 153.608 44.5506 156.125 46.4328C158.602 48.2848 159.999 51.0797 160.226 54.978L162.223 54.862ZM144.664 41.536C140.807 41.536 136.911 42.1791 132.979 43.457L133.597 45.359C137.345 44.1409 141.033 43.536 144.664 43.536V41.536ZM133.001 43.4502C129.061 44.632 125.68 46.3162 122.878 48.5177L124.114 50.0903C126.688 48.0678 129.835 46.488 133.576 45.3658L133.001 43.4502ZM124.392 48.8596L115.176 30.2836L113.384 31.1724L122.6 49.7484L124.392 48.8596ZM114.835 31.56C119.041 28.7559 124.162 26.5882 130.219 25.0741L129.734 23.1339C123.502 24.6917 118.159 26.9401 113.726 29.8959L114.835 31.56ZM130.229 25.0715C136.389 23.4603 142.544 22.656 148.696 22.656V20.656C142.368 20.656 136.043 21.4837 129.723 23.1365L130.229 25.0715ZM147.688 86.016C151.025 86.016 154.001 85.2046 156.579 83.5543L155.501 81.8697C153.28 83.2914 150.687 84.016 147.688 84.016V86.016ZM156.579 83.5543C159.187 81.8855 161.045 79.4398 162.167 76.2784L160.282 75.6096C159.292 78.4002 157.694 80.4665 155.501 81.8697L156.579 83.5543ZM162.224 75.944V69.176H160.224V75.944H162.224ZM161.224 68.176H149.416V70.176H161.224V68.176ZM149.416 68.176C145.353 68.176 142.132 68.8433 139.9 70.3224C137.595 71.8494 136.464 74.1621 136.464 77.096H138.464C138.464 74.7499 139.325 73.1026 141.005 71.9896C142.757 70.8287 145.511 70.176 149.416 70.176V68.176ZM136.464 77.096C136.464 79.7904 137.507 82.0041 139.581 83.6409L140.82 82.0711C139.245 80.8279 138.464 79.2016 138.464 77.096H136.464ZM139.581 83.6409C141.636 85.2632 144.376 86.016 147.688 86.016V84.016C144.664 84.016 142.413 83.3288 140.82 82.0711L139.581 83.6409ZM328.74 22.952H329.74V21.952H328.74V22.952ZM328.74 101V102H329.74V101H328.74ZM205.044 101H204.044V102H205.044V101ZM205.044 22.952V21.952H204.044V22.952H205.044ZM232.26 22.952H233.26V21.952H232.26V22.952ZM232.26 79.112H231.26V80.112H232.26V79.112ZM253.428 79.112V80.112H254.428V79.112H253.428ZM253.428 22.952V21.952H252.428V22.952H253.428ZM280.644 22.952H281.644V21.952H280.644V22.952ZM280.644 79.112H279.644V80.112H280.644V79.112ZM301.668 79.112V80.112H302.668V79.112H301.668ZM301.668 22.952V21.952H300.668V22.952H301.668ZM327.74 22.952V101H329.74V22.952H327.74ZM328.74 100H205.044V102H328.74V100ZM206.044 101V22.952H204.044V101H206.044ZM205.044 23.952H232.26V21.952H205.044V23.952ZM231.26 22.952V79.112H233.26V22.952H231.26ZM232.26 80.112H253.428V78.112H232.26V80.112ZM254.428 79.112V22.952H252.428V79.112H254.428ZM253.428 23.952H280.644V21.952H253.428V23.952ZM279.644 22.952V79.112H281.644V22.952H279.644ZM280.644 80.112H301.668V78.112H280.644V80.112ZM302.668 79.112V22.952H300.668V79.112H302.668ZM301.668 23.952H328.74V21.952H301.668V23.952ZM347.216 22.952V21.952H346.216V22.952H347.216ZM374.432 22.952H375.432V21.952H374.432V22.952ZM374.432 63.848H373.432V66.7007L375.213 64.4724L374.432 63.848ZM407.12 22.952V21.952H406.639L406.339 22.3276L407.12 22.952ZM432.32 22.952H433.32V21.952H432.32V22.952ZM432.32 101V102H433.32V101H432.32ZM404.96 101H403.96V102H404.96V101ZM404.96 59.96H405.96V57.0795L404.175 59.3404L404.96 59.96ZM372.56 101V102H373.045L373.345 101.62L372.56 101ZM347.216 101H346.216V102H347.216V101ZM347.216 23.952H374.432V21.952H347.216V23.952ZM373.432 22.952V63.848H375.432V22.952H373.432ZM375.213 64.4724L407.901 23.5764L406.339 22.3276L373.651 63.2236L375.213 64.4724ZM407.12 23.952H432.32V21.952H407.12V23.952ZM431.32 22.952V101H433.32V22.952H431.32ZM432.32 100H404.96V102H432.32V100ZM405.96 101V59.96H403.96V101H405.96ZM404.175 59.3404L371.775 100.38L373.345 101.62L405.745 60.5796L404.175 59.3404ZM372.56 100H347.216V102H372.56V100ZM348.216 101V22.952H346.216V101H348.216ZM562.318 44.696V45.696H563.318V44.696H562.318ZM537.262 44.696V43.696H536.262V44.696H537.262ZM537.262 101V102H538.262V101H537.262ZM510.046 101H509.046V102H510.046V101ZM510.046 44.696H511.046V43.696H510.046V44.696ZM484.846 44.696H483.846V45.696H484.846V44.696ZM484.846 22.952V21.952H483.846V22.952H484.846ZM562.318 22.952H563.318V21.952H562.318V22.952ZM562.318 43.696H537.262V45.696H562.318V43.696ZM536.262 44.696V101H538.262V44.696H536.262ZM537.262 100H510.046V102H537.262V100ZM511.046 101V44.696H509.046V101H511.046ZM510.046 43.696H484.846V45.696H510.046V43.696ZM485.846 44.696V22.952H483.846V44.696H485.846ZM484.846 23.952H562.318V21.952H484.846V23.952ZM561.318 22.952V44.696H563.318V22.952H561.318ZM641.319 26.696L640.815 27.5598L640.824 27.5647L640.832 27.5695L641.319 26.696ZM655.143 40.808L654.266 41.2878L654.27 41.296L654.275 41.3041L655.143 40.808ZM655.143 83.288L654.272 82.7977L654.269 82.8024L655.143 83.288ZM641.319 97.4L641.812 98.27L641.817 98.2674L641.319 97.4ZM600.279 94.088L600.992 93.3872L599.279 91.6432V94.088H600.279ZM600.279 128.936V129.936H601.279V128.936H600.279ZM572.919 128.936H571.919V129.936H572.919V128.936ZM572.919 22.952V21.952H571.919V22.952H572.919ZM598.983 22.952H599.983V21.952H598.983V22.952ZM598.983 30.728H597.983V33.47L599.748 31.3718L598.983 30.728ZM628.071 75.656L628.799 76.3414L628.804 76.3361L628.809 76.3308L628.071 75.656ZM628.071 48.44L627.333 49.1148L627.338 49.1201L627.343 49.1254L628.071 48.44ZM604.455 48.44L605.183 49.1254L605.188 49.1201L605.193 49.1148L604.455 48.44ZM604.455 75.656L603.717 76.3308L603.722 76.3361L603.727 76.3414L604.455 75.656ZM622.023 22.656C628.962 22.656 635.218 24.2948 640.815 27.5598L641.823 25.8322C635.9 22.3772 629.292 20.656 622.023 20.656V22.656ZM640.832 27.5695C646.516 30.7375 650.992 35.3015 654.266 41.2878L656.021 40.3282C652.574 34.0265 647.834 29.1825 641.806 25.8225L640.832 27.5695ZM654.275 41.3041C657.632 47.1786 659.327 54.0583 659.327 61.976H661.327C661.327 53.7657 659.567 46.5333 656.011 40.3119L654.275 41.3041ZM659.327 61.976C659.327 69.8933 657.632 76.8238 654.272 82.7977L656.015 83.7783C659.566 77.4642 661.327 70.1867 661.327 61.976H659.327ZM654.269 82.8024C650.995 88.6954 646.516 93.2656 640.821 96.5326L641.817 98.2674C647.835 94.8144 652.571 89.9766 656.017 83.7736L654.269 82.8024ZM640.826 96.53C635.227 99.7026 628.967 101.296 622.023 101.296V103.296C629.287 103.296 635.891 101.625 641.812 98.27L640.826 96.53ZM622.023 101.296C613.117 101.296 606.145 98.6321 600.992 93.3872L599.566 94.7888C605.165 100.488 612.689 103.296 622.023 103.296V101.296ZM599.279 94.088V128.936H601.279V94.088H599.279ZM600.279 127.936H572.919V129.936H600.279V127.936ZM573.919 128.936V22.952H571.919V128.936H573.919ZM572.919 23.952H598.983V21.952H572.919V23.952ZM597.983 22.952V30.728H599.983V22.952H597.983ZM599.748 31.3718C604.593 25.6133 611.951 22.656 622.023 22.656V20.656C611.551 20.656 603.549 23.7467 598.218 30.0842L599.748 31.3718ZM616.263 81.552C621.317 81.552 625.524 79.8215 628.799 76.3414L627.343 74.9706C624.474 78.0185 620.809 79.552 616.263 79.552V81.552ZM628.809 76.3308C632.091 72.7413 633.679 67.917 633.679 61.976H631.679C631.679 67.555 630.195 71.8507 627.333 74.9812L628.809 76.3308ZM633.679 61.976C633.679 56.0366 632.091 51.2525 628.799 47.7546L627.343 49.1254C630.195 52.1555 631.679 56.3954 631.679 61.976H633.679ZM628.809 47.7652C625.536 44.1857 621.327 42.4 616.263 42.4V44.4C620.8 44.4 624.462 45.9743 627.333 49.1148L628.809 47.7652ZM616.263 42.4C611.2 42.4 606.99 44.1857 603.717 47.7652L605.193 49.1148C608.064 45.9743 611.727 44.4 616.263 44.4V42.4ZM603.727 47.7546C600.435 51.2525 598.847 56.0366 598.847 61.976H600.847C600.847 56.3954 602.331 52.1555 605.183 49.1254L603.727 47.7546ZM598.847 61.976C598.847 67.917 600.435 72.7413 603.717 76.3308L605.193 74.9812C602.331 71.8507 600.847 67.555 600.847 61.976H598.847ZM603.727 76.3414C607.002 79.8215 611.209 81.552 616.263 81.552V79.552C611.717 79.552 608.052 78.0185 605.183 74.9706L603.727 76.3414ZM752.09 68.888V69.888H753.026L753.088 68.9545L752.09 68.888ZM695.354 68.888V67.888H694.028L694.392 69.1627L695.354 68.888ZM701.978 78.248L701.418 79.0763L701.432 79.0857L701.446 79.0946L701.978 78.248ZM724.154 79.832L723.799 78.8969L723.788 78.9012L724.154 79.832ZM732.506 74.648L733.227 73.9549L732.57 73.2722L731.853 73.8906L732.506 74.648ZM746.906 89.624L747.65 90.292L748.271 89.6006L747.627 88.9309L746.906 89.624ZM689.594 97.112L690.041 96.2176L689.594 97.112ZM673.466 82.712L672.612 83.2324L672.618 83.242L673.466 82.712ZM673.322 41.24L672.468 40.7196L672.466 40.7235L673.322 41.24ZM688.73 26.84L688.262 25.9562L688.73 26.84ZM731.93 26.552L731.472 27.441L731.483 27.4464L731.93 26.552ZM746.906 40.52L746.046 41.0305L746.051 41.0385L746.056 41.0464L746.906 40.52ZM700.25 44.696L699.61 43.9278L699.603 43.9331L699.597 43.9386L700.25 44.696ZM694.922 54.488L693.939 54.3051L693.719 55.488H694.922V54.488ZM726.89 54.488V55.488H728.093L727.873 54.3051L726.89 54.488ZM721.418 44.696L720.765 45.4534L720.771 45.4589L720.778 45.4642L721.418 44.696ZM751.522 62.12C751.522 62.1132 751.521 62.1414 751.517 62.238C751.512 62.3226 751.506 62.4403 751.497 62.5923C751.479 62.8958 751.452 63.3288 751.416 63.8923C751.344 65.0189 751.236 66.6617 751.092 68.8215L753.088 68.9545C753.373 64.6715 753.522 62.3562 753.522 62.12H751.522ZM752.09 67.888H695.354V69.888H752.09V67.888ZM694.392 69.1627C695.605 73.405 697.946 76.7278 701.418 79.0763L702.538 77.4197C699.482 75.3522 697.407 72.435 696.316 68.6133L694.392 69.1627ZM701.446 79.0946C705.002 81.3297 709.374 82.416 714.506 82.416V80.416C709.654 80.416 705.674 79.3903 702.51 77.4014L701.446 79.0946ZM714.506 82.416C718.34 82.416 721.686 81.8759 724.52 80.7627L723.788 78.9012C721.246 79.9001 718.16 80.416 714.506 80.416V82.416ZM724.509 80.767C727.424 79.6612 730.307 77.8643 733.159 75.4054L731.853 73.8906C729.137 76.2317 726.452 77.8908 723.799 78.897L724.509 80.767ZM731.785 75.3411L746.185 90.3171L747.627 88.9309L733.227 73.9549L731.785 75.3411ZM746.162 88.956C738.818 97.136 728.036 101.296 713.642 101.296V103.296C728.432 103.296 739.826 99.0079 747.65 90.292L746.162 88.956ZM713.642 101.296C704.649 101.296 696.791 99.5927 690.041 96.2176L689.147 98.0064C696.221 101.543 704.395 103.296 713.642 103.296V101.296ZM690.041 96.2176C683.282 92.8382 678.05 88.1595 674.314 82.182L672.618 83.242C676.562 89.5525 682.082 94.4738 689.147 98.0064L690.041 96.2176ZM674.32 82.1916C670.679 76.217 668.85 69.4398 668.85 61.832H666.85C666.85 69.7762 668.765 76.919 672.612 83.2324L674.32 82.1916ZM668.85 61.832C668.85 54.3176 670.632 47.6351 674.178 41.7565L672.466 40.7235C668.716 46.9409 666.85 53.9864 666.85 61.832H668.85ZM674.176 41.7604C677.824 35.7743 682.824 31.0979 689.198 27.7238L688.262 25.9562C681.58 29.494 676.308 34.4177 672.468 40.7196L674.176 41.7604ZM689.198 27.7238C695.567 24.3518 702.748 22.656 710.762 22.656V20.656C702.456 20.656 694.949 22.4161 688.262 25.9562L689.198 27.7238ZM710.762 22.656C718.393 22.656 725.29 24.2564 731.472 27.441L732.388 25.663C725.898 22.3196 718.683 20.656 710.762 20.656V22.656ZM731.483 27.4464C737.646 30.5279 742.495 35.0499 746.046 41.0305L747.766 40.0095C744.021 33.7021 738.886 28.9121 732.377 25.6576L731.483 27.4464ZM746.056 41.0464C749.686 46.9105 751.522 53.9211 751.522 62.12H753.522C753.522 53.6149 751.614 46.2255 747.756 39.9936L746.056 41.0464ZM710.906 40.096C706.48 40.096 702.692 41.359 699.61 43.9278L700.89 45.4642C703.568 43.233 706.884 42.096 710.906 42.096V40.096ZM699.597 43.9386C696.617 46.5078 694.742 49.9871 693.939 54.3051L695.905 54.6709C696.638 50.7329 698.315 47.6842 700.903 45.4534L699.597 43.9386ZM694.922 55.488H726.89V53.488H694.922V55.488ZM727.873 54.3051C727.068 49.9772 725.139 46.4949 722.058 43.9278L720.778 45.4642C723.457 47.697 725.176 50.7428 725.907 54.6709L727.873 54.3051ZM722.071 43.9386C719.079 41.359 715.332 40.096 710.906 40.096V42.096C714.928 42.096 718.189 43.233 720.765 45.4534L722.071 43.9386ZM766.982 22.952V21.952H765.982V22.952H766.982ZM794.198 22.952H795.198V21.952H794.198V22.952ZM794.198 51.896H793.198V52.896H794.198V51.896ZM822.278 51.896V52.896H823.278V51.896H822.278ZM822.278 22.952V21.952H821.278V22.952H822.278ZM849.638 22.952H850.638V21.952H849.638V22.952ZM849.638 101V102H850.638V101H849.638ZM822.278 101H821.278V102H822.278V101ZM822.278 73.64H823.278V72.64H822.278V73.64ZM794.198 73.64V72.64H793.198V73.64H794.198ZM794.198 101V102H795.198V101H794.198ZM766.982 101H765.982V102H766.982V101ZM766.982 23.952H794.198V21.952H766.982V23.952ZM793.198 22.952V51.896H795.198V22.952H793.198ZM794.198 52.896H822.278V50.896H794.198V52.896ZM823.278 51.896V22.952H821.278V51.896H823.278ZM822.278 23.952H849.638V21.952H822.278V23.952ZM848.638 22.952V101H850.638V22.952H848.638ZM849.638 100H822.278V102H849.638V100ZM823.278 101V73.64H821.278V101H823.278ZM822.278 72.64H794.198V74.64H822.278V72.64ZM793.198 73.64V101H795.198V73.64H793.198ZM794.198 100H766.982V102H794.198V100ZM767.982 101V22.952H765.982V101H767.982ZM946.715 68.888V69.888H947.651L947.713 68.9545L946.715 68.888ZM889.979 68.888V67.888H888.653L889.017 69.1627L889.979 68.888ZM896.603 78.248L896.043 79.0763L896.057 79.0857L896.071 79.0946L896.603 78.248ZM918.779 79.832L918.424 78.8969L918.413 78.9012L918.779 79.832ZM927.131 74.648L927.852 73.9549L927.195 73.2722L926.478 73.8906L927.131 74.648ZM941.531 89.624L942.275 90.292L942.896 89.6006L942.252 88.9309L941.531 89.624ZM884.219 97.112L884.666 96.2176L884.219 97.112ZM868.091 82.712L867.237 83.2324L867.243 83.242L868.091 82.712ZM867.947 41.24L867.093 40.7196L867.091 40.7235L867.947 41.24ZM883.355 26.84L882.887 25.9562L883.355 26.84ZM926.555 26.552L926.097 27.441L926.108 27.4464L926.555 26.552ZM941.531 40.52L940.671 41.0305L940.676 41.0385L940.681 41.0464L941.531 40.52ZM894.875 44.696L894.235 43.9278L894.228 43.9331L894.222 43.9386L894.875 44.696ZM889.547 54.488L888.564 54.3051L888.344 55.488H889.547V54.488ZM921.515 54.488V55.488H922.718L922.498 54.3051L921.515 54.488ZM916.043 44.696L915.39 45.4534L915.396 45.4589L915.403 45.4642L916.043 44.696ZM946.147 62.12C946.147 62.1132 946.146 62.1414 946.142 62.238C946.137 62.3226 946.131 62.4403 946.122 62.5923C946.104 62.8958 946.077 63.3288 946.041 63.8923C945.969 65.0189 945.861 66.6617 945.717 68.8215L947.713 68.9545C947.998 64.6715 948.147 62.3562 948.147 62.12H946.147ZM946.715 67.888H889.979V69.888H946.715V67.888ZM889.017 69.1627C890.23 73.405 892.571 76.7278 896.043 79.0763L897.163 77.4197C894.107 75.3522 892.032 72.435 890.941 68.6133L889.017 69.1627ZM896.071 79.0946C899.627 81.3297 903.999 82.416 909.131 82.416V80.416C904.279 80.416 900.299 79.3903 897.135 77.4014L896.071 79.0946ZM909.131 82.416C912.965 82.416 916.311 81.8759 919.145 80.7627L918.413 78.9012C915.871 79.9001 912.785 80.416 909.131 80.416V82.416ZM919.134 80.767C922.049 79.6612 924.932 77.8643 927.784 75.4054L926.478 73.8906C923.762 76.2317 921.077 77.8908 918.424 78.897L919.134 80.767ZM926.41 75.3411L940.81 90.3171L942.252 88.9309L927.852 73.9549L926.41 75.3411ZM940.787 88.956C933.443 97.136 922.661 101.296 908.267 101.296V103.296C923.057 103.296 934.451 99.0079 942.275 90.292L940.787 88.956ZM908.267 101.296C899.274 101.296 891.416 99.5927 884.666 96.2176L883.772 98.0064C890.846 101.543 899.02 103.296 908.267 103.296V101.296ZM884.666 96.2176C877.907 92.8382 872.675 88.1595 868.939 82.182L867.243 83.242C871.187 89.5525 876.707 94.4738 883.772 98.0064L884.666 96.2176ZM868.945 82.1916C865.304 76.217 863.475 69.4398 863.475 61.832H861.475C861.475 69.7762 863.39 76.919 867.237 83.2324L868.945 82.1916ZM863.475 61.832C863.475 54.3176 865.257 47.6351 868.803 41.7565L867.091 40.7235C863.341 46.9409 861.475 53.9864 861.475 61.832H863.475ZM868.801 41.7604C872.449 35.7743 877.449 31.0979 883.823 27.7238L882.887 25.9562C876.205 29.494 870.933 34.4177 867.093 40.7196L868.801 41.7604ZM883.823 27.7238C890.192 24.3518 897.373 22.656 905.387 22.656V20.656C897.081 20.656 889.574 22.4161 882.887 25.9562L883.823 27.7238ZM905.387 22.656C913.018 22.656 919.915 24.2564 926.097 27.441L927.013 25.663C920.523 22.3196 913.308 20.656 905.387 20.656V22.656ZM926.108 27.4464C932.271 30.5279 937.12 35.0499 940.671 41.0305L942.391 40.0095C938.646 33.7021 933.511 28.9121 927.002 25.6576L926.108 27.4464ZM940.681 41.0464C944.311 46.9105 946.147 53.9211 946.147 62.12H948.147C948.147 53.6149 946.239 46.2255 942.381 39.9936L940.681 41.0464ZM905.531 40.096C901.105 40.096 897.317 41.359 894.235 43.9278L895.515 45.4642C898.193 43.233 901.509 42.096 905.531 42.096V40.096ZM894.222 43.9386C891.242 46.5078 889.367 49.9871 888.564 54.3051L890.53 54.6709C891.263 50.7329 892.94 47.6842 895.528 45.4534L894.222 43.9386ZM889.547 55.488H921.515V53.488H889.547V55.488ZM922.498 54.3051C921.693 49.9772 919.764 46.4949 916.683 43.9278L915.403 45.4642C918.082 47.697 919.801 50.7428 920.532 54.6709L922.498 54.3051ZM916.696 43.9386C913.704 41.359 909.957 40.096 905.531 40.096V42.096C909.553 42.096 912.814 43.233 915.39 45.4534L916.696 43.9386ZM1030.01 26.696L1029.5 27.5598L1029.51 27.5647L1029.52 27.5695L1030.01 26.696ZM1043.83 40.808L1042.95 41.2878L1042.96 41.296L1042.96 41.3041L1043.83 40.808ZM1043.83 83.288L1042.96 82.7977L1042.96 82.8024L1043.83 83.288ZM1030.01 97.4L1030.5 98.27L1030.5 98.2674L1030.01 97.4ZM988.967 94.088L989.68 93.3872L987.967 91.6432V94.088H988.967ZM988.967 128.936V129.936H989.967V128.936H988.967ZM961.607 128.936H960.607V129.936H961.607V128.936ZM961.607 22.952V21.952H960.607V22.952H961.607ZM987.671 22.952H988.671V21.952H987.671V22.952ZM987.671 30.728H986.671V33.47L988.436 31.3718L987.671 30.728ZM1016.76 75.656L1017.49 76.3414L1017.49 76.3361L1017.5 76.3308L1016.76 75.656ZM1016.76 48.44L1016.02 49.1148L1016.03 49.1201L1016.03 49.1254L1016.76 48.44ZM993.143 48.44L993.871 49.1254L993.876 49.1201L993.881 49.1148L993.143 48.44ZM993.143 75.656L992.405 76.3308L992.409 76.3361L992.414 76.3414L993.143 75.656ZM1010.71 22.656C1017.65 22.656 1023.91 24.2948 1029.5 27.5598L1030.51 25.8322C1024.59 22.3772 1017.98 20.656 1010.71 20.656V22.656ZM1029.52 27.5695C1035.2 30.7375 1039.68 35.3015 1042.95 41.2878L1044.71 40.3282C1041.26 34.0265 1036.52 29.1825 1030.49 25.8225L1029.52 27.5695ZM1042.96 41.3041C1046.32 47.1786 1048.01 54.0583 1048.01 61.976H1050.01C1050.01 53.7657 1048.25 46.5333 1044.7 40.3119L1042.96 41.3041ZM1048.01 61.976C1048.01 69.8933 1046.32 76.8238 1042.96 82.7977L1044.7 83.7783C1048.25 77.4642 1050.01 70.1867 1050.01 61.976H1048.01ZM1042.96 82.8024C1039.68 88.6954 1035.2 93.2656 1029.51 96.5326L1030.5 98.2674C1036.52 94.8144 1041.26 89.9766 1044.7 83.7736L1042.96 82.8024ZM1029.51 96.53C1023.91 99.7026 1017.65 101.296 1010.71 101.296V103.296C1017.97 103.296 1024.58 101.625 1030.5 98.27L1029.51 96.53ZM1010.71 101.296C1001.8 101.296 994.833 98.6321 989.68 93.3872L988.253 94.7888C993.852 100.488 1001.38 103.296 1010.71 103.296V101.296ZM987.967 94.088V128.936H989.967V94.088H987.967ZM988.967 127.936H961.607V129.936H988.967V127.936ZM962.607 128.936V22.952H960.607V128.936H962.607ZM961.607 23.952H987.671V21.952H961.607V23.952ZM986.671 22.952V30.728H988.671V22.952H986.671ZM988.436 31.3718C993.28 25.6133 1000.64 22.656 1010.71 22.656V20.656C1000.24 20.656 992.237 23.7467 986.905 30.0842L988.436 31.3718ZM1004.95 81.552C1010 81.552 1014.21 79.8215 1017.49 76.3414L1016.03 74.9706C1013.16 78.0185 1009.5 79.552 1004.95 79.552V81.552ZM1017.5 76.3308C1020.78 72.7413 1022.37 67.917 1022.37 61.976H1020.37C1020.37 67.555 1018.88 71.8507 1016.02 74.9812L1017.5 76.3308ZM1022.37 61.976C1022.37 56.0366 1020.78 51.2525 1017.49 47.7546L1016.03 49.1254C1018.88 52.1555 1020.37 56.3954 1020.37 61.976H1022.37ZM1017.5 47.7652C1014.22 44.1857 1010.01 42.4 1004.95 42.4V44.4C1009.49 44.4 1013.15 45.9743 1016.02 49.1148L1017.5 47.7652ZM1004.95 42.4C999.887 42.4 995.677 44.1857 992.405 47.7652L993.881 49.1148C996.752 45.9743 1000.41 44.4 1004.95 44.4V42.4ZM992.414 47.7546C989.122 51.2525 987.535 56.0366 987.535 61.976H989.535C989.535 56.3954 991.019 52.1555 993.871 49.1254L992.414 47.7546ZM987.535 61.976C987.535 67.917 989.123 72.7413 992.405 76.3308L993.881 74.9812C991.018 71.8507 989.535 67.555 989.535 61.976H987.535ZM992.414 76.3414C995.69 79.8215 999.897 81.552 1004.95 81.552V79.552C1000.4 79.552 996.739 78.0185 993.871 74.9706L992.414 76.3414ZM1106.79 47.144L1106.8 46.144H1106.79V47.144ZM1129.98 54.056L1129.32 54.8103L1129.98 54.056ZM1128.68 93.8L1128.05 93.0227L1128.05 93.0277L1128.68 93.8ZM1103.34 101L1103.35 100H1103.34V101ZM1062.15 101H1061.15V102H1062.15V101ZM1062.15 22.952V21.952H1061.15V22.952H1062.15ZM1089.37 22.952H1090.37V21.952H1089.37V22.952ZM1089.37 47.144H1088.37V48.144H1089.37V47.144ZM1144.38 22.952V21.952H1143.38V22.952H1144.38ZM1171.59 22.952H1172.59V21.952H1171.59V22.952ZM1171.59 101V102H1172.59V101H1171.59ZM1144.38 101H1143.38V102H1144.38V101ZM1100.6 82.28L1100.59 83.28H1100.6V82.28ZM1108.38 66.152L1109.02 65.3838L1108.38 66.152ZM1100.6 63.848L1100.63 62.8484L1100.62 62.848H1100.6V63.848ZM1089.37 63.848V62.848H1088.37V63.848H1089.37ZM1089.37 82.136H1088.37V83.1233L1089.36 83.1359L1089.37 82.136ZM1106.78 48.144C1116.93 48.2388 1124.39 50.516 1129.32 54.8103L1130.63 53.3017C1125.2 48.572 1117.2 46.2412 1106.8 46.144L1106.78 48.144ZM1129.32 54.8103C1134.24 59.0919 1136.75 65.2214 1136.75 73.352H1138.75C1138.75 64.7786 1136.08 58.0441 1130.63 53.3017L1129.32 54.8103ZM1136.75 73.352C1136.75 81.8281 1133.84 88.3415 1128.05 93.0228L1129.31 94.5772C1135.62 89.4665 1138.75 82.3479 1138.75 73.352H1136.75ZM1128.05 93.0277C1122.34 97.7228 1114.15 100.095 1103.35 100L1103.33 102C1114.41 102.097 1123.12 99.6692 1129.32 94.5723L1128.05 93.0277ZM1103.34 100H1062.15V102H1103.34V100ZM1063.15 101V22.952H1061.15V101H1063.15ZM1062.15 23.952H1089.37V21.952H1062.15V23.952ZM1088.37 22.952V47.144H1090.37V22.952H1088.37ZM1089.37 48.144H1106.79V46.144H1089.37V48.144ZM1144.38 23.952H1171.59V21.952H1144.38V23.952ZM1170.59 22.952V101H1172.59V22.952H1170.59ZM1171.59 100H1144.38V102H1171.59V100ZM1145.38 101V22.952H1143.38V101H1145.38ZM1100.6 83.28C1104.19 83.28 1107.06 82.4728 1109.05 80.6823C1111.05 78.8742 1111.97 76.222 1111.97 72.92H1109.97C1109.97 75.858 1109.16 77.8858 1107.71 79.1977C1106.23 80.5272 1103.93 81.28 1100.6 81.28V83.28ZM1111.97 72.92C1111.97 69.6658 1111.05 67.0766 1109.02 65.3838L1107.74 66.9202C1109.16 68.1074 1109.97 70.0302 1109.97 72.92H1111.97ZM1109.02 65.3838C1107.05 63.741 1104.2 62.9474 1100.63 62.8484L1100.57 64.8476C1103.92 64.9406 1106.25 65.683 1107.74 66.9202L1109.02 65.3838ZM1100.6 62.848H1089.37V64.848H1100.6V62.848ZM1088.37 63.848V82.136H1090.37V63.848H1088.37ZM1089.36 83.1359L1100.59 83.2799L1100.61 81.2801L1089.38 81.1361L1089.36 83.1359Z" fill="#E3F0FB"/>
</svg>
